<svg xmlns="http://www.w3.org/2000/svg" xmlns:xlink="http://www.w3.org/1999/xlink" width="24" height="24" viewBox="0 0 24 24">
  <defs>
    <clipPath id="clip-path">
      <rect id="Rectangle_911" data-name="Rectangle 911" width="24" height="24" transform="translate(-10797 -7197)" fill="#fff" stroke="#707070" stroke-width="1"/>
    </clipPath>
  </defs>
  <g id="Mask_Group_7" data-name="Mask Group 7" transform="translate(10797 7197)" clip-path="url(#clip-path)">
    <path id="phone-svgrepo-com" d="M0,9.981a8.08,8.08,0,0,0,.726,2.847,23.241,23.241,0,0,0,1.337,2.7A24.64,24.64,0,0,0,6.217,20.9a16.394,16.394,0,0,0,5.693,3.66A10.627,10.627,0,0,0,15.8,25.609a7.431,7.431,0,0,0,2.585-.64,3.611,3.611,0,0,0,1.946-1.655,5.138,5.138,0,0,0,.349-1.017,4.987,4.987,0,0,0,.145-1.017.825.825,0,0,0-.029-.32,1.388,1.388,0,0,0-.523-.465c-.523-.261-.61-.349-1.394-.813-.813-.465-1.655-.988-2.382-1.365a1.935,1.935,0,0,0-.668-.291c-.465,0-1.046.64-1.539,1.337-.523.7-1.1,1.337-1.51,1.337a1.236,1.236,0,0,1-.64-.232c-.232-.145-.465-.261-.61-.349a14.387,14.387,0,0,1-5.722-5.693,3.608,3.608,0,0,1-.581-1.22c0-.377.523-.813,1.046-1.278a2.37,2.37,0,0,0,1.017-1.6A3.734,3.734,0,0,0,7.116,9.6c-.261-.756-.61-1.627-.9-2.469-.145-.407-.261-.7-.291-.842a.97.97,0,0,1-.116-.349c-.029-.145-.087-.261-.116-.377a1.269,1.269,0,0,0-.377-.581,3.457,3.457,0,0,0-.842-.175c-.349,0-.756-.029-.93-.029a1.314,1.314,0,0,0-.32.029H2.846A4.5,4.5,0,0,0,.755,6.989,7.124,7.124,0,0,0,0,9.981Z" transform="translate(-10794.999 -7199.781)" fill="#fff"/>
  </g>
</svg>
