<svg width="15" height="17" viewBox="0 0 15 17" fill="none" xmlns="http://www.w3.org/2000/svg">
<path d="M11.9088 8.672C11.9154 8.04742 12.0779 7.43474 12.3811 6.89133C12.6844 6.34793 13.1184 5.89157 13.6426 5.565C13.3096 5.08296 12.871 4.6859 12.3615 4.40499C11.8519 4.12408 11.2852 3.96697 10.7057 3.946C9.4544 3.817 8.26508 4.694 7.63006 4.694C6.99503 4.694 6.01739 3.965 4.97968 3.984C4.29875 4.00331 3.63445 4.20206 3.05193 4.56074C2.46941 4.91942 1.98868 5.42573 1.65687 6.03C0.240127 8.53 1.29457 12.23 2.67489 14.251C3.34929 15.242 4.15169 16.351 5.21007 16.316C6.22709 16.275 6.61205 15.647 7.84173 15.647C9.07142 15.647 9.41699 16.316 10.4941 16.295C11.5889 16.274 12.282 15.285 12.9554 14.295C13.4341 13.58 13.8088 12.7986 14.0679 11.975C13.4304 11.6991 12.8865 11.2395 12.5035 10.653C12.1205 10.0665 11.9151 9.37882 11.9128 8.675L11.9088 8.672ZM9.88563 2.606C10.4916 1.88326 10.7921 0.94663 10.7215 0C9.80753 0.0909376 8.96228 0.533076 8.35861 1.236C8.05726 1.57723 7.8265 1.9765 7.68003 2.41008C7.53356 2.84367 7.47438 3.30273 7.506 3.76C7.96324 3.76604 8.41571 3.66509 8.82836 3.46497C9.24102 3.26486 9.60278 2.97094 9.88563 2.606Z" fill="white"/>
</svg>
