<svg xmlns="http://www.w3.org/2000/svg" xmlns:xlink="http://www.w3.org/1999/xlink" width="24" height="24" viewBox="0 0 24 24">
  <defs>
    <clipPath id="clip-path">
      <rect id="Rectangle_915" data-name="Rectangle 915" width="24" height="24" transform="translate(-10797 -7197)" fill="#fff" stroke="#707070" stroke-width="1"/>
    </clipPath>
  </defs>
  <g id="Mask_Group_11" data-name="Mask Group 11" transform="translate(10797 7197)" clip-path="url(#clip-path)">
    <path id="Icon_metro-apple" data-name="Icon metro-apple" d="M19.559,12.963A4.7,4.7,0,0,1,21.8,9.009,4.85,4.85,0,0,0,18,6.951c-1.617-.164-3.156.952-3.976.952S11.942,6.975,10.6,7a5.081,5.081,0,0,0-4.3,2.6c-1.831,3.178-.469,7.886,1.316,10.464.872,1.262,1.912,2.679,3.278,2.628,1.315-.052,1.812-.851,3.4-.851s2.037.851,3.429.825c1.415-.026,2.312-1.286,3.178-2.551a11.447,11.447,0,0,0,1.438-2.953,4.587,4.587,0,0,1-2.787-4.2ZM16.944,5.244a4.577,4.577,0,0,0,1.081-3.316A4.656,4.656,0,0,0,14.966,3.5a4.354,4.354,0,0,0-1.1,3.213A3.852,3.852,0,0,0,16.944,5.244Z" transform="translate(-10798.436 -7196.928)" fill="#fff"/>
  </g>
</svg>
