<svg width="24" height="24" viewBox="0 0 24 24" fill="none" xmlns="http://www.w3.org/2000/svg">
<g id="Frame">
<path id="Vector" fill-rule="evenodd" clip-rule="evenodd" d="M7.50027 6V6.75H5.51327C4.55327 6.75 3.74927 7.474 3.64827 8.429L2.38527 20.429C2.3578 20.6903 2.38558 20.9545 2.46679 21.2045C2.548 21.4544 2.68084 21.6844 2.85669 21.8797C3.03254 22.075 3.24748 22.2311 3.48755 22.338C3.72763 22.4448 3.98749 22.5 4.25027 22.5H19.7503C20.0131 22.5 20.2729 22.4448 20.513 22.338C20.7531 22.2311 20.968 22.075 21.1439 21.8797C21.3197 21.6844 21.4525 21.4544 21.5338 21.2045C21.615 20.9545 21.6427 20.6903 21.6153 20.429L20.3523 8.429C20.3038 7.96815 20.0865 7.54155 19.7421 7.23151C19.3977 6.92146 18.9507 6.74993 18.4873 6.75H16.5003V6C16.5003 4.80653 16.0262 3.66193 15.1823 2.81802C14.3383 1.97411 13.1937 1.5 12.0003 1.5C10.8068 1.5 9.66221 1.97411 8.81829 2.81802C7.97438 3.66193 7.50027 4.80653 7.50027 6ZM12.0003 3C11.2046 3 10.4416 3.31607 9.87895 3.87868C9.31634 4.44129 9.00027 5.20435 9.00027 6V6.75H15.0003V6C15.0003 5.20435 14.6842 4.44129 14.1216 3.87868C13.559 3.31607 12.7959 3 12.0003 3ZM9.00027 11.25C9.00027 12.0456 9.31634 12.8087 9.87895 13.3713C10.4416 13.9339 11.2046 14.25 12.0003 14.25C12.7959 14.25 13.559 13.9339 14.1216 13.3713C14.6842 12.8087 15.0003 12.0456 15.0003 11.25V10.5C15.0003 10.3011 15.0793 10.1103 15.2199 9.96967C15.3606 9.82902 15.5514 9.75 15.7503 9.75C15.9492 9.75 16.14 9.82902 16.2806 9.96967C16.4213 10.1103 16.5003 10.3011 16.5003 10.5V11.25C16.5003 12.4435 16.0262 13.5881 15.1823 14.432C14.3383 15.2759 13.1937 15.75 12.0003 15.75C10.8068 15.75 9.66221 15.2759 8.81829 14.432C7.97438 13.5881 7.50027 12.4435 7.50027 11.25V10.5C7.50027 10.3011 7.57929 10.1103 7.71994 9.96967C7.86059 9.82902 8.05136 9.75 8.25027 9.75C8.44918 9.75 8.63995 9.82902 8.7806 9.96967C8.92125 10.1103 9.00027 10.3011 9.00027 10.5V11.25Z" fill="#03384C"/>
</g>
</svg>
