<svg width="20" height="20" viewBox="0 0 20 20" fill="none" xmlns="http://www.w3.org/2000/svg">
<path d="M0.00426687 4.43698C0.00426687 3.36063 0.00426687 2.28475 0.00426687 1.20914C-0.00949827 1.04811 0.0119322 0.885944 0.06709 0.734039C0.122248 0.582135 0.209792 0.444029 0.323657 0.329383C0.437522 0.214737 0.57498 0.126343 0.726464 0.0701878C0.877948 0.0140329 1.03982 -0.00842349 1.20086 0.00431349C3.36146 0.00431349 5.52207 0.00431349 7.68267 0.00431349C7.84402 -0.00989725 8.00655 0.0110894 8.15895 0.0660202C8.31134 0.120951 8.44996 0.208488 8.56518 0.322392C8.6804 0.436296 8.76947 0.573911 8.82618 0.725704C8.8829 0.877497 8.90589 1.03976 8.89361 1.20134C8.89801 3.36211 8.89801 5.52287 8.89361 7.68364C8.90713 7.8453 8.88541 8.00805 8.82998 8.16049C8.77454 8.31294 8.68672 8.45145 8.57254 8.56663C8.45835 8.6818 8.32054 8.77086 8.16862 8.82757C8.0167 8.88428 7.85427 8.90739 7.69258 8.89519C5.53198 8.89886 3.37137 8.89886 1.21077 8.89519C1.04732 8.90838 0.88295 8.8854 0.729286 8.82811C0.575622 8.77081 0.43643 8.68054 0.321473 8.56353C0.206517 8.44654 0.118618 8.30577 0.0639992 8.15108C0.0093804 7.99639 -0.0106537 7.83159 0.00534191 7.66832C0.00387411 6.5905 0.00353297 5.51333 0.00426687 4.43698Z" fill="#B9B9B9"/>
<path d="M15.5614 0.00415599C16.6373 0.00415599 17.7132 0.00415599 18.7891 0.00415599C18.9501 -0.00978466 19.1123 0.0114299 19.2643 0.0665349C19.4162 0.12164 19.5544 0.209244 19.6691 0.323176C19.7839 0.437108 19.8724 0.574721 19.9286 0.726353C19.9848 0.877986 20.0073 1.03997 19.9945 1.20119C19.9945 3.36196 19.9945 5.52319 19.9945 7.6847C20.0087 7.84612 19.9877 8.00868 19.9327 8.16114C19.8778 8.3136 19.7904 8.45228 19.6766 8.56754C19.5627 8.68281 19.4251 8.77188 19.2734 8.82862C19.1217 8.88536 18.9594 8.9084 18.7979 8.89611C16.6373 8.89978 14.4767 8.89978 12.3161 8.89611C12.1545 8.90964 11.9919 8.88784 11.8396 8.83239C11.6872 8.77693 11.5486 8.68904 11.4335 8.5748C11.3184 8.46057 11.2294 8.3228 11.1727 8.17082C11.116 8.01884 11.093 7.85627 11.1052 7.69451C11.1015 5.53374 11.1015 3.37298 11.1052 1.21221C11.092 1.04868 11.1148 0.884249 11.1721 0.730521C11.2294 0.576793 11.3197 0.437508 11.4366 0.322504C11.5536 0.207499 11.6943 0.119563 11.849 0.0649217C12.0036 0.0102799 12.1683 -0.0096953 12.3315 0.00630698L15.5614 0.00415599Z" fill="#B9B9B9"/>
<path d="M0.00430097 15.5479C0.00430097 14.4715 0.00430097 13.3952 0.00430097 12.3188C-0.00990382 12.1574 0.0111749 11.9949 0.0660827 11.8424C0.12099 11.6899 0.20839 11.5513 0.322247 11.436C0.436103 11.3207 0.573694 11.2317 0.725423 11.1749C0.877153 11.1182 1.03941 11.0951 1.20093 11.1074C3.36153 11.1038 5.52213 11.1038 7.68273 11.1074C7.84432 11.0939 8.0069 11.1156 8.15928 11.171C8.31166 11.2265 8.45019 11.3144 8.56531 11.4286C8.68044 11.5428 8.76943 11.6807 8.82611 11.8327C8.8828 11.9847 8.90583 12.1471 8.89364 12.3089C8.89731 14.4697 8.89731 16.6304 8.89364 18.7912C8.90672 18.9524 8.88469 19.1147 8.829 19.2666C8.77332 19.4185 8.68532 19.5564 8.57113 19.6709C8.45693 19.7855 8.31925 19.874 8.16758 19.9301C8.0159 19.9863 7.85387 20.0087 7.69264 19.996C5.53204 19.996 3.37144 19.996 1.21084 19.996C1.04983 20.0098 0.88776 19.9884 0.735871 19.9332C0.583982 19.8781 0.445897 19.7905 0.331216 19.6766C0.216536 19.5627 0.127989 19.4252 0.0717266 19.2737C0.0154641 19.1221 -0.00715143 18.9602 0.00540961 18.799C0.00320791 17.7168 0.00283317 16.633 0.00430097 15.5479Z" fill="#B9B9B9"/>
<path d="M16.6616 16.6583V18.8785H14.4599V16.6759H12.2461V14.448H14.4335V12.252H16.6616V14.4414H18.8776V16.6583H16.6616Z" fill="#B9B9B9"/>
</svg>
