<svg width="16" height="21" viewBox="0 0 16 21" fill="none" xmlns="http://www.w3.org/2000/svg">
<g clip-path="url(#clip0_340_193)">
<path d="M0.445272 0H11.5685C11.7197 0.0682932 11.8448 0.18364 11.9251 0.328844C12.0055 0.474049 12.0367 0.641339 12.0142 0.805747C12.0066 5.91955 12.0047 11.033 12.0085 16.1462C12.0085 16.6672 11.7904 16.8844 11.2666 16.8844H0.766239C0.214794 16.8844 0.0043083 16.6748 0.0043083 16.1224C0.0043083 11.0156 0.00240662 5.90873 -0.00140302 0.80191C-0.0226598 0.638028 0.00927232 0.471645 0.0896875 0.327275C0.170103 0.182905 0.294745 0.0681976 0.445272 0ZM6.00449 5.44206C4.82541 5.44206 3.64632 5.44206 2.46724 5.44206C2.33986 5.43132 2.21234 5.461 2.10276 5.52681C1.99318 5.59263 1.90711 5.69126 1.85675 5.80875C1.81579 5.90418 1.8003 6.00863 1.81179 6.11184C1.82328 6.21505 1.86136 6.31347 1.92231 6.39755C1.98326 6.48163 2.06499 6.5485 2.15951 6.59153C2.25403 6.63456 2.35809 6.65228 2.46153 6.64304C3.95364 6.64304 5.44574 6.64304 6.93785 6.64304C7.81089 6.64304 8.68363 6.64304 9.55604 6.64304C9.68003 6.65253 9.80392 6.62331 9.91056 6.55933C10.0172 6.49535 10.1013 6.39976 10.1513 6.28588C10.1941 6.19127 10.2115 6.08717 10.2019 5.98378C10.1922 5.88038 10.1558 5.78126 10.0962 5.69621C10.0366 5.61116 9.95591 5.54308 9.86203 5.49868C9.76816 5.45428 9.66433 5.43514 9.56079 5.44305C8.37599 5.43987 7.19056 5.43952 6.00449 5.44206ZM5.98544 9.04313C7.17151 9.04313 8.35726 9.04313 9.5427 9.04313C9.66646 9.05392 9.79057 9.02657 9.89834 8.96477C10.0061 8.90297 10.0924 8.8097 10.1456 8.69743C10.1917 8.60382 10.2124 8.49974 10.2056 8.39561C10.1988 8.29148 10.1648 8.19097 10.1069 8.10415C10.049 8.01732 9.96932 7.94724 9.87581 7.90092C9.7823 7.85461 9.67827 7.83366 9.57413 7.84023C8.45505 7.84023 7.33596 7.84023 6.21593 7.84023C4.96319 7.84023 3.71078 7.84023 2.45868 7.84023C2.33817 7.83081 2.21762 7.85783 2.11266 7.91778C2.0077 7.97773 1.92318 8.06787 1.87008 8.17646C1.82269 8.27074 1.80113 8.37586 1.80759 8.48118C1.81405 8.5865 1.84829 8.68824 1.90685 8.77602C1.9654 8.8638 2.04617 8.93451 2.14092 8.98093C2.23568 9.02735 2.34105 9.04782 2.4463 9.04028C3.62729 9.0479 4.80636 9.04313 5.98544 9.04313ZM6.02926 10.2432C4.84351 10.2432 3.65776 10.2432 2.47201 10.2432C2.34478 10.2319 2.21721 10.2607 2.10721 10.3256C1.9972 10.3905 1.91028 10.4883 1.85866 10.6051C1.81729 10.6985 1.80057 10.8009 1.8101 10.9026C1.81963 11.0043 1.8551 11.1019 1.9131 11.186C1.9711 11.2701 2.04969 11.3378 2.14137 11.3829C2.23306 11.4279 2.33476 11.4487 2.43676 11.4432C3.59585 11.4432 4.75493 11.4432 5.91401 11.4432C7.12675 11.4432 8.33917 11.4432 9.55127 11.4432C9.67523 11.4532 9.79925 11.4246 9.90633 11.3613C10.0134 11.2981 10.0983 11.2032 10.1494 11.0898C10.193 10.9956 10.2114 10.8917 10.2025 10.7882C10.1937 10.6847 10.1581 10.5854 10.0992 10.4999C10.0402 10.4144 9.95998 10.3457 9.86641 10.3007C9.77283 10.2557 9.66914 10.2359 9.56555 10.2432C8.38742 10.2413 7.20834 10.2432 6.02926 10.2432ZM4.18635 4.243H5.92449C6.00918 4.253 6.09504 4.24514 6.1765 4.21993C6.25797 4.19472 6.33324 4.15271 6.39749 4.09663C6.46173 4.04055 6.51353 3.97159 6.54951 3.89428C6.5855 3.81696 6.60488 3.73301 6.60642 3.64775C6.60651 3.56244 6.58862 3.47805 6.55394 3.40011C6.51926 3.32217 6.46856 3.25237 6.40513 3.19532C6.3417 3.13827 6.26697 3.09526 6.1858 3.069C6.10463 3.04274 6.01884 3.03386 5.93401 3.04296H2.47868C2.39388 3.03402 2.30815 3.04298 2.22704 3.06929C2.14594 3.0956 2.07127 3.1387 2.00788 3.19572C1.94448 3.25274 1.89378 3.32241 1.85905 3.40029C1.82432 3.47816 1.80633 3.56248 1.80627 3.64775C1.8081 3.73292 1.82769 3.81676 1.86377 3.89393C1.89985 3.9711 1.95163 4.03991 2.01581 4.09593C2.07999 4.15196 2.15515 4.19396 2.23649 4.21929C2.31783 4.24461 2.40356 4.25269 2.4882 4.243H4.18635ZM8.40742 12.6451C8.02646 12.6451 7.6455 12.6451 7.2693 12.6451C7.18617 12.6378 7.10241 12.6477 7.02326 12.6741C6.94411 12.7006 6.87127 12.743 6.80925 12.7989C6.74724 12.8547 6.69739 12.9228 6.66282 12.9987C6.62825 13.0747 6.6097 13.1569 6.60833 13.2404C6.60834 13.3239 6.6256 13.4064 6.65903 13.4829C6.69246 13.5594 6.74135 13.6282 6.80261 13.6848C6.86387 13.7415 6.93619 13.785 7.01502 13.8124C7.09385 13.8398 7.1775 13.8507 7.26072 13.8442C8.02583 13.8442 8.79124 13.8442 9.55698 13.8442C9.64027 13.8508 9.72402 13.8401 9.80293 13.8126C9.88184 13.7852 9.95421 13.7416 10.0154 13.6848C10.0767 13.6279 10.1254 13.559 10.1587 13.4824C10.1919 13.4057 10.2088 13.323 10.2084 13.2395C10.2071 13.1555 10.1884 13.0727 10.1535 12.9964C10.1186 12.9201 10.0682 12.8518 10.0055 12.796C9.94287 12.7401 9.86929 12.6979 9.78946 12.6719C9.70963 12.646 9.62528 12.6368 9.54175 12.6451C9.16555 12.6423 8.78648 12.6451 8.40742 12.6451Z" fill="#B9B9B9"/>
<path d="M3.60664 18.0858H11.2697C11.5288 18.1051 11.789 18.0683 12.0326 17.978C12.2762 17.8878 12.4976 17.7461 12.6815 17.5627C12.8655 17.3793 13.0078 17.1583 13.0988 16.915C13.1898 16.6717 13.2273 16.4116 13.2088 16.1524C13.2088 12.0717 13.2088 7.99091 13.2088 3.91016V3.65682C13.2669 3.65111 13.3174 3.64153 13.3679 3.64153C13.8949 3.64153 14.4216 3.64153 14.9479 3.64153C15.0366 3.63287 15.1262 3.64395 15.2101 3.67391C15.294 3.70388 15.3703 3.752 15.4335 3.81488C15.4966 3.87776 15.5451 3.95383 15.5754 4.03764C15.6058 4.12144 15.6172 4.21095 15.6089 4.29969C15.6089 9.47381 15.6089 14.6486 15.6089 19.824C15.6183 19.9129 15.6078 20.0028 15.5783 20.0872C15.5488 20.1717 15.5009 20.2485 15.4382 20.3122C15.3755 20.3759 15.2994 20.425 15.2155 20.4558C15.1315 20.4867 15.0418 20.4986 14.9527 20.4907C11.392 20.4907 7.83122 20.4907 4.27047 20.4907C4.1817 20.5 4.09198 20.4896 4.00771 20.4601C3.92344 20.4307 3.84671 20.383 3.78301 20.3205C3.71931 20.258 3.67022 20.1822 3.63923 20.0985C3.60825 20.0148 3.59614 19.9253 3.60379 19.8363C3.60474 19.2592 3.60664 18.682 3.60664 18.0858Z" fill="#B9B9B9"/>
</g>
<defs>
<clipPath id="clip0_340_193">
<rect width="15.61" height="20.4863" fill="white"/>
</clipPath>
</defs>
</svg>
