<svg xmlns="http://www.w3.org/2000/svg" width="19" height="19" viewBox="0 0 19 19">
  <g id="Group_1107" data-name="Group 1107" transform="translate(0 0)">
    <path id="Path_613" data-name="Path 613" d="M12.6,12.731A.731.731,0,1,1,11.865,12,.731.731,0,0,1,12.6,12.731ZM7.481,15.654a.731.731,0,1,0-.731-.731A.731.731,0,0,0,7.481,15.654Zm.731,1.462a.731.731,0,1,1-.731-.731A.731.731,0,0,1,8.212,17.115Zm1.462-1.462a.731.731,0,1,0-.731-.731A.731.731,0,0,0,9.673,15.654Zm.731,1.462a.731.731,0,1,1-.731-.731A.731.731,0,0,1,10.4,17.115Zm1.462-1.462a.731.731,0,1,0-.731-.731A.731.731,0,0,0,11.865,15.654Zm.731,1.462a.731.731,0,1,1-.731-.731A.731.731,0,0,1,12.6,17.115Zm1.462-1.462a.731.731,0,1,0-.731-.731A.731.731,0,0,0,14.058,15.654Zm.731,1.462a.731.731,0,1,1-.731-.731A.731.731,0,0,1,14.788,17.115Zm1.462-1.462a.731.731,0,1,0-.731-.731A.731.731,0,0,0,16.25,15.654Zm-1.462-2.923A.731.731,0,1,1,14.058,12,.731.731,0,0,1,14.788,12.731Zm1.462.731a.731.731,0,1,0-.731-.731A.731.731,0,0,0,16.25,13.462Z" transform="translate(-2.365 -2.5)" fill="#29b6f6"/>
    <path id="Path_614" data-name="Path 614" d="M6.635,2.25a.731.731,0,0,1,.731.731V4.442h8.769V2.981a.731.731,0,1,1,1.462,0V4.442h.731A2.923,2.923,0,0,1,21.25,7.365V18.327a2.923,2.923,0,0,1-2.923,2.923H5.173A2.923,2.923,0,0,1,2.25,18.327V7.365A2.923,2.923,0,0,1,5.173,4.442H5.9V2.981A.731.731,0,0,1,6.635,2.25Zm13.154,8.769a1.462,1.462,0,0,0-1.462-1.462H5.173a1.462,1.462,0,0,0-1.462,1.462v7.308a1.462,1.462,0,0,0,1.462,1.462H18.327a1.462,1.462,0,0,0,1.462-1.462Z" transform="translate(-2.25 -2.25)" fill="#29b6f6" fill-rule="evenodd"/>
  </g>
</svg>
