<svg xmlns="http://www.w3.org/2000/svg" width="17.01" height="14.884" viewBox="0 0 17.01 14.884">
  <path id="Icon_awesome-camera" data-name="Icon awesome-camera" d="M17.01,5.971v9.568a1.6,1.6,0,0,1-1.595,1.595H1.595A1.6,1.6,0,0,1,0,15.539V5.971A1.6,1.6,0,0,1,1.595,4.376H4.518l.409-1.093A1.592,1.592,0,0,1,6.419,2.25h4.169A1.592,1.592,0,0,1,12.08,3.283l.412,1.093h2.924A1.6,1.6,0,0,1,17.01,5.971Zm-4.518,4.784A3.987,3.987,0,1,0,8.5,14.742,3.99,3.99,0,0,0,12.492,10.755Zm-1.063,0A2.924,2.924,0,1,1,8.5,7.831,2.928,2.928,0,0,1,11.428,10.755Z" transform="translate(0 -2.25)" fill="#fff"/>
</svg>
