<svg xmlns="http://www.w3.org/2000/svg" width="25.442" height="19.789" viewBox="0 0 25.442 19.789">
  <path id="Icon_awesome-credit-card" data-name="Icon awesome-credit-card" d="M0,19.918a2.121,2.121,0,0,0,2.12,2.12h21.2a2.121,2.121,0,0,0,2.12-2.12V12.144H0Zm8.481-3a.532.532,0,0,1,.53-.53h6.007a.532.532,0,0,1,.53.53v1.767a.532.532,0,0,1-.53.53H9.011a.532.532,0,0,1-.53-.53Zm-5.654,0a.532.532,0,0,1,.53-.53h3.18a.532.532,0,0,1,.53.53v1.767a.532.532,0,0,1-.53.53H3.357a.532.532,0,0,1-.53-.53ZM25.442,4.37V6.49H0V4.37A2.121,2.121,0,0,1,2.12,2.25h21.2A2.121,2.121,0,0,1,25.442,4.37Z" transform="translate(0 -2.25)" fill="#29b6f6"/>
</svg>
