<svg width="28" height="31" viewBox="0 0 28 31" fill="none" xmlns="http://www.w3.org/2000/svg">
<g filter="url(#filter0_dd_22_434)">
<path fill-rule="evenodd" clip-rule="evenodd" d="M9.50027 6V6.75H7.51327C6.55327 6.75 5.74927 7.474 5.64827 8.429L4.38527 20.429C4.3578 20.6903 4.38558 20.9545 4.46679 21.2045C4.548 21.4544 4.68084 21.6844 4.85669 21.8797C5.03254 22.075 5.24748 22.2311 5.48755 22.338C5.72763 22.4448 5.98749 22.5 6.25027 22.5H21.7503C22.0131 22.5 22.2729 22.4448 22.513 22.338C22.7531 22.2311 22.968 22.075 23.1439 21.8797C23.3197 21.6844 23.4525 21.4544 23.5338 21.2045C23.615 20.9545 23.6427 20.6903 23.6153 20.429L22.3523 8.429C22.3038 7.96815 22.0865 7.54155 21.7421 7.23151C21.3977 6.92146 20.9507 6.74993 20.4873 6.75H18.5003V6C18.5003 4.80653 18.0262 3.66193 17.1823 2.81802C16.3383 1.97411 15.1937 1.5 14.0003 1.5C12.8068 1.5 11.6622 1.97411 10.8183 2.81802C9.97438 3.66193 9.50027 4.80653 9.50027 6ZM14.0003 3C13.2046 3 12.4416 3.31607 11.879 3.87868C11.3163 4.44129 11.0003 5.20435 11.0003 6V6.75H17.0003V6C17.0003 5.20435 16.6842 4.44129 16.1216 3.87868C15.559 3.31607 14.7959 3 14.0003 3ZM11.0003 11.25C11.0003 12.0456 11.3163 12.8087 11.879 13.3713C12.4416 13.9339 13.2046 14.25 14.0003 14.25C14.7959 14.25 15.559 13.9339 16.1216 13.3713C16.6842 12.8087 17.0003 12.0456 17.0003 11.25V10.5C17.0003 10.3011 17.0793 10.1103 17.2199 9.96967C17.3606 9.82902 17.5514 9.75 17.7503 9.75C17.9492 9.75 18.14 9.82902 18.2806 9.96967C18.4213 10.1103 18.5003 10.3011 18.5003 10.5V11.25C18.5003 12.4435 18.0262 13.5881 17.1823 14.432C16.3383 15.2759 15.1937 15.75 14.0003 15.75C12.8068 15.75 11.6622 15.2759 10.8183 14.432C9.97438 13.5881 9.50027 12.4435 9.50027 11.25V10.5C9.50027 10.3011 9.57929 10.1103 9.71994 9.96967C9.86059 9.82902 10.0514 9.75 10.2503 9.75C10.4492 9.75 10.64 9.82902 10.7806 9.96967C10.9213 10.1103 11.0003 10.3011 11.0003 10.5V11.25Z" fill="#03384C"/>
</g>
<defs>
<filter id="filter0_dd_22_434" x="-2" y="0" width="32" height="32" filterUnits="userSpaceOnUse" color-interpolation-filters="sRGB">
<feFlood flood-opacity="0" result="BackgroundImageFix"/>
<feColorMatrix in="SourceAlpha" type="matrix" values="0 0 0 0 0 0 0 0 0 0 0 0 0 0 0 0 0 0 127 0" result="hardAlpha"/>
<feOffset dy="4"/>
<feGaussianBlur stdDeviation="2"/>
<feComposite in2="hardAlpha" operator="out"/>
<feColorMatrix type="matrix" values="0 0 0 0 0 0 0 0 0 0 0 0 0 0 0 0 0 0 0.25 0"/>
<feBlend mode="normal" in2="BackgroundImageFix" result="effect1_dropShadow_22_434"/>
<feColorMatrix in="SourceAlpha" type="matrix" values="0 0 0 0 0 0 0 0 0 0 0 0 0 0 0 0 0 0 127 0" result="hardAlpha"/>
<feOffset dy="4"/>
<feGaussianBlur stdDeviation="2"/>
<feComposite in2="hardAlpha" operator="out"/>
<feColorMatrix type="matrix" values="0 0 0 0 0 0 0 0 0 0 0 0 0 0 0 0 0 0 0.25 0"/>
<feBlend mode="normal" in2="effect1_dropShadow_22_434" result="effect2_dropShadow_22_434"/>
<feBlend mode="normal" in="SourceGraphic" in2="effect2_dropShadow_22_434" result="shape"/>
</filter>
</defs>
</svg>
