<svg xmlns="http://www.w3.org/2000/svg" width="23.799" height="21.356" viewBox="0 0 23.799 21.356">
  <g id="Group_1248" data-name="Group 1248" transform="translate(-241 -562.836)">
    <path id="Icon_awesome-coins" data-name="Icon awesome-coins" d="M0,12.731v1.341c0,1.109,2.7,2.01,6.031,2.01s6.031-.9,6.031-2.01V12.731c-1.3.914-3.669,1.341-6.031,1.341S1.3,13.645,0,12.731Zm10.051-8.71c3.329,0,6.031-.9,6.031-2.01S13.381,0,10.051,0,4.021.9,4.021,2.01,6.722,4.021,10.051,4.021ZM0,9.436v1.621c0,1.109,2.7,2.01,6.031,2.01s6.031-.9,6.031-2.01V9.436c-1.3,1.068-3.672,1.621-6.031,1.621S1.3,10.5,0,9.436Zm13.067.346c1.8-.349,3.015-1,3.015-1.74V6.7a7.713,7.713,0,0,1-3.015,1.084ZM6.031,5.026C2.7,5.026,0,6.15,0,7.538s2.7,2.513,6.031,2.513,6.031-1.124,6.031-2.513S9.36,5.026,6.031,5.026Zm6.888,1.768c1.885-.339,3.163-1.005,3.163-1.768V3.684A10.226,10.226,0,0,1,11.034,5,3.517,3.517,0,0,1,12.919,6.794Z" transform="translate(241 562.836)" fill="#29b6f6"/>
    <g id="graph-up-svgrepo-com" transform="translate(249.365 573.644)">
      <path id="Path_640" data-name="Path 640" d="M17.393,7.25a.916.916,0,0,0,0,1.832Zm4.741,1.832a.916.916,0,0,0,0-1.832Zm.916-.916a.916.916,0,1,0-1.832,0Zm-1.832,4.407a.916.916,0,1,0,1.832,0Zm1.621-3.82A.916.916,0,0,0,21.43,7.58Zm-5.591,5.286.615.679a.923.923,0,0,0,.089-.093Zm-1.917.075-.568.719.007.005ZM14.049,13.1l.568-.719,0,0Zm-2.055.224-.705-.585-.026.033Zm-.156.186.654.642.014-.014ZM7.878,16.24a.916.916,0,0,0,1.308,1.283Zm9.515-7.157h4.741V7.25H17.393Zm3.825-.916v4.407H23.05V8.166Zm.212-.586-4.887,5.873,1.409,1.172,4.887-5.872Zm-4.8,5.78a.577.577,0,0,1-.74.029L14.77,14.838a2.409,2.409,0,0,0,3.093-.12Zm-.734.034-1.282-1.012-1.135,1.438,1.282,1.012Zm-1.286-1.015a2.4,2.4,0,0,0-3.323.362L12.7,13.91a.568.568,0,0,1,.787-.086Zm-3.35.395a1.323,1.323,0,0,1-.093.11l1.336,1.254a3.186,3.186,0,0,0,.22-.261Zm-.079.1L7.878,16.24l1.308,1.283,3.306-3.371Z" transform="translate(-7.616 -7.25)" fill="#29b6f6"/>
    </g>
  </g>
</svg>
