<svg xmlns="http://www.w3.org/2000/svg" width="22.729" height="16.836" viewBox="0 0 22.729 16.836">
  <path id="Icon_metro-coins" data-name="Icon metro-coins" d="M26.868,22.023H16.559a6.635,6.635,0,0,0,.687-1.684h9.622a.842.842,0,1,1,0,1.684Zm0-2.525H17.409a6.129,6.129,0,0,0,0-1.684h9.458a.842.842,0,1,1,0,1.684Zm0-2.525H17.246a6.665,6.665,0,0,0-.687-1.684H26.868a.842.842,0,1,1,0,1.684Zm0-2.525H15.985a6.742,6.742,0,0,0-1.994-1.684H26.868a.842.842,0,0,1,0,1.684Zm0-2.525H13.4a.842.842,0,1,1,0-1.684H26.868a.842.842,0,0,1,0,1.684Zm0-2.525H13.4a.842.842,0,0,1,0-1.684H26.868a.842.842,0,0,1,0,1.684Zm-10.1,9.26a5.893,5.893,0,1,1-5.893-5.893A5.893,5.893,0,0,1,16.766,18.656Zm-3.807.641a1.8,1.8,0,0,0-.332-.525,2.17,2.17,0,0,0-.468-.384,5.4,5.4,0,0,0-.536-.287q-.267-.123-.536-.239a3.5,3.5,0,0,1-.471-.242,1.186,1.186,0,0,1-.332-.295.636.636,0,0,1-.124-.392.771.771,0,0,1,.055-.288.606.606,0,0,1,.168-.233.815.815,0,0,1,.281-.152,1.264,1.264,0,0,1,.395-.055,1.891,1.891,0,0,1,.531.07,3.036,3.036,0,0,1,.426.157q.184.086.311.159a.436.436,0,0,0,.184.072.129.129,0,0,0,.092-.031.207.207,0,0,0,.052-.1.988.988,0,0,0,.026-.173c.005-.071.008-.157.008-.259s0-.168-.005-.228a1.192,1.192,0,0,0-.018-.153.478.478,0,0,0-.031-.1.4.4,0,0,0-.072-.088.838.838,0,0,0-.215-.13,2.492,2.492,0,0,0-.373-.141,3.307,3.307,0,0,0-.452-.1c-.033-.005-.067,0-.1-.008v-.87H10.6v.87a3.035,3.035,0,0,0-.443.092,2.082,2.082,0,0,0-.726.365,1.766,1.766,0,0,0-.489.615,2.158,2.158,0,0,0-.056,1.59,1.806,1.806,0,0,0,.329.529,2.16,2.16,0,0,0,.46.383,4.763,4.763,0,0,0,.531.287c.183.084.359.163.531.239a3.533,3.533,0,0,1,.46.242,1.263,1.263,0,0,1,.329.295.638.638,0,0,1,.126.4.884.884,0,0,1-.073.364.738.738,0,0,1-.213.274,1,1,0,0,1-.338.171,1.56,1.56,0,0,1-.453.061A2.37,2.37,0,0,1,9.9,20.97a3.1,3.1,0,0,1-.5-.193,3.326,3.326,0,0,1-.344-.192.44.44,0,0,0-.208-.087.153.153,0,0,0-.092.029.19.19,0,0,0-.063.1.816.816,0,0,0-.035.179c-.008.074-.011.165-.011.274a1.865,1.865,0,0,0,.029.371.388.388,0,0,0,.1.2,1.121,1.121,0,0,0,.223.157,2.3,2.3,0,0,0,.386.169,3.939,3.939,0,0,0,.534.138,3.548,3.548,0,0,0,.655.056l.03,0v.811h.827v-.919c.04-.01.082-.015.12-.026a2.37,2.37,0,0,0,.8-.407,1.948,1.948,0,0,0,.542-.675,2.1,2.1,0,0,0,.2-.941,1.838,1.838,0,0,0-.125-.71Zm3.025,3.568H26.868a.842.842,0,1,1,0,1.684H13.991a6.742,6.742,0,0,0,1.994-1.684Z" transform="translate(-4.981 -7.712)" fill="#29b6f6"/>
</svg>
