<svg width="16" height="13" viewBox="0 0 16 13" fill="none" xmlns="http://www.w3.org/2000/svg">
<path d="M14.1773 0H1.57526C1.15884 0.00211482 0.760187 0.171619 0.46647 0.471448C0.172754 0.771278 0.00787098 1.17704 0.00787619 1.6L0 11.2C0 11.6243 0.165964 12.0313 0.461382 12.3314C0.7568 12.6314 1.15747 12.8 1.57526 12.8H14.1773C14.5951 12.8 14.9958 12.6314 15.2912 12.3314C15.5866 12.0313 15.7526 11.6243 15.7526 11.2V1.6C15.7526 1.17565 15.5866 0.768688 15.2912 0.468629C14.9958 0.168571 14.5951 0 14.1773 0ZM14.1773 3.2L7.87629 7.2L1.57526 3.2V1.6L7.87629 5.6L14.1773 1.6V3.2Z" fill="white"/>
</svg>
