<svg width="16" height="15" viewBox="0 0 16 15" fill="none" xmlns="http://www.w3.org/2000/svg">
<path d="M14.9372 0H1.79957C1.58345 0.000264639 1.37625 0.0875851 1.22343 0.242808C1.07061 0.398031 0.984636 0.608482 0.984375 0.828V14.172C0.984636 14.3915 1.07061 14.602 1.22343 14.7572C1.37625 14.9124 1.58345 14.9997 1.79957 15H8.3684V9.063H6.60312V6.875H8.3684V5.258C8.34719 4.85235 8.4116 4.44678 8.55732 4.06848C8.70303 3.69018 8.92669 3.34789 9.21328 3.06455C9.49988 2.78122 9.8428 2.56339 10.2191 2.42566C10.5953 2.28794 10.9962 2.2335 11.3949 2.266C12.2101 2.266 13.0873 2.329 13.2911 2.356V4.379H11.9334C11.007 4.379 10.8297 4.824 10.8297 5.479V6.874H13.0371L12.7486 9.062H10.8297V15H14.9372C15.1533 14.9997 15.3605 14.9124 15.5134 14.7572C15.6662 14.602 15.7522 14.3915 15.7524 14.172V0.828C15.7522 0.608482 15.6662 0.398031 15.5134 0.242808C15.3605 0.0875851 15.1533 0.000264639 14.9372 0Z" fill="white"/>
</svg>
