<svg width="20" height="18" viewBox="0 0 20 18" fill="none" xmlns="http://www.w3.org/2000/svg">
<path d="M0.666667 3.11198H0.761333C0.906848 3.64583 1.2387 4.1192 1.70448 4.45729C2.17025 4.79539 2.74338 4.97893 3.33333 4.97893C3.92328 4.97893 4.49642 4.79539 4.96219 4.45729C5.42796 4.1192 5.75982 3.64583 5.90533 3.11198H19.3333C19.5101 3.11198 19.6797 3.04639 19.8047 2.92965C19.9298 2.81291 20 2.65457 20 2.48947C20 2.32437 19.9298 2.16603 19.8047 2.04928C19.6797 1.93254 19.5101 1.86695 19.3333 1.86695H5.90533C5.75982 1.3331 5.42796 0.859731 4.96219 0.521638C4.49642 0.183545 3.92328 0 3.33333 0C2.74338 0 2.17025 0.183545 1.70448 0.521638C1.2387 0.859731 0.906848 1.3331 0.761333 1.86695H0.666667C0.489856 1.86695 0.320286 1.93254 0.195262 2.04928C0.0702379 2.16603 0 2.32437 0 2.48947C0 2.65457 0.0702379 2.81291 0.195262 2.92965C0.320286 3.04639 0.489856 3.11198 0.666667 3.11198ZM3.33333 1.24444C3.59704 1.24444 3.85483 1.31746 4.07409 1.45427C4.29336 1.59107 4.46426 1.78552 4.56517 2.01302C4.66609 2.24051 4.69249 2.49085 4.64105 2.73236C4.5896 2.97387 4.46261 3.19571 4.27614 3.36983C4.08967 3.54395 3.8521 3.66253 3.59345 3.71057C3.33481 3.75861 3.06672 3.73395 2.82309 3.63972C2.57945 3.54549 2.37122 3.38591 2.22471 3.18116C2.0782 2.97642 2 2.73571 2 2.48947C2 2.15927 2.14048 1.84259 2.39052 1.6091C2.64057 1.37561 2.97971 1.24444 3.33333 1.24444ZM19.3333 8.09208H19.2387C19.0932 7.55822 18.7613 7.08485 18.2955 6.74676C17.8298 6.40867 17.2566 6.22512 16.6667 6.22512C16.0767 6.22512 15.5036 6.40867 15.0378 6.74676C14.572 7.08485 14.2402 7.55822 14.0947 8.09208H0.666667C0.489856 8.09208 0.320286 8.15766 0.195262 8.27441C0.0702379 8.39115 0 8.54949 0 8.71459C0 8.87969 0.0702379 9.03803 0.195262 9.15477C0.320286 9.27151 0.489856 9.3371 0.666667 9.3371H14.0947C14.2402 9.87096 14.572 10.3443 15.0378 10.6824C15.5036 11.0205 16.0767 11.2041 16.6667 11.2041C17.2566 11.2041 17.8298 11.0205 18.2955 10.6824C18.7613 10.3443 19.0932 9.87096 19.2387 9.3371H19.3333C19.5101 9.3371 19.6797 9.27151 19.8047 9.15477C19.9298 9.03803 20 8.87969 20 8.71459C20 8.54949 19.9298 8.39115 19.8047 8.27441C19.6797 8.15766 19.5101 8.09208 19.3333 8.09208ZM16.6667 9.95961C16.403 9.95961 16.1452 9.88659 15.9259 9.74979C15.7066 9.61298 15.5357 9.41854 15.4348 9.19104C15.3339 8.96354 15.3075 8.71321 15.359 8.4717C15.4104 8.23018 15.5374 8.00834 15.7239 7.83422C15.9103 7.6601 16.1479 7.54153 16.4065 7.49349C16.6652 7.44545 16.9333 7.4701 17.1769 7.56434C17.4205 7.65857 17.6288 7.81815 17.7753 8.02289C17.9218 8.22763 18 8.46835 18 8.71459C18 9.04479 17.8595 9.36147 17.6095 9.59495C17.3594 9.82844 17.0203 9.95961 16.6667 9.95961ZM19.3333 14.3172H12.572C12.4265 13.7833 12.0946 13.31 11.6289 12.9719C11.1631 12.6338 10.59 12.4502 10 12.4502C9.41005 12.4502 8.83692 12.6338 8.37114 12.9719C7.90537 13.31 7.57351 13.7833 7.428 14.3172H0.666667C0.489856 14.3172 0.320286 14.3828 0.195262 14.4995C0.0702379 14.6163 0 14.7746 0 14.9397C0 15.1048 0.0702379 15.2631 0.195262 15.3799C0.320286 15.4966 0.489856 15.5622 0.666667 15.5622H7.428C7.57351 16.0961 7.90537 16.5694 8.37114 16.9075C8.83692 17.2456 9.41005 17.4292 10 17.4292C10.59 17.4292 11.1631 17.2456 11.6289 16.9075C12.0946 16.5694 12.4265 16.0961 12.572 15.5622H19.3333C19.5101 15.5622 19.6797 15.4966 19.8047 15.3799C19.9298 15.2631 20 15.1048 20 14.9397C20 14.7746 19.9298 14.6163 19.8047 14.4995C19.6797 14.3828 19.5101 14.3172 19.3333 14.3172ZM10 16.1847C9.73629 16.1847 9.47851 16.1117 9.25924 15.9749C9.03997 15.8381 8.86908 15.6437 8.76816 15.4162C8.66724 15.1887 8.64084 14.9383 8.69229 14.6968C8.74373 14.4553 8.87072 14.2335 9.05719 14.0593C9.24366 13.8852 9.48124 13.7666 9.73988 13.7186C9.99852 13.6706 10.2666 13.6952 10.5102 13.7895C10.7539 13.8837 10.9621 14.0433 11.1086 14.248C11.2551 14.4528 11.3333 14.6935 11.3333 14.9397C11.3333 15.2699 11.1929 15.5866 10.9428 15.8201C10.6928 16.0536 10.3536 16.1847 10 16.1847Z" fill="#388E3C"/>
</svg>
