<svg xmlns="http://www.w3.org/2000/svg" xmlns:xlink="http://www.w3.org/1999/xlink" width="153.292" height="151.79" viewBox="0 0 153.292 151.79">
  <defs>
    <linearGradient id="linear-gradient" y1="0.5" x2="1" y2="0.5" gradientUnits="objectBoundingBox">
      <stop offset="0" stop-color="#29b6f6"/>
      <stop offset="1" stop-color="#25a8e3"/>
    </linearGradient>
    <linearGradient id="linear-gradient-2" x1="0" y1="0.5" x2="1" y2="0.5" xlink:href="#linear-gradient"/>
    <linearGradient id="linear-gradient-3" x1="0" y1="0.5" x2="1" y2="0.5" xlink:href="#linear-gradient"/>
    <linearGradient id="linear-gradient-4" x1="0" y1="0.5" x2="1" y2="0.5" xlink:href="#linear-gradient"/>
    <linearGradient id="linear-gradient-5" x1="0" y1="0.5" x2="1" y2="0.5" xlink:href="#linear-gradient"/>
    <linearGradient id="linear-gradient-6" x1="0" y1="0.5" x2="1" y2="0.5" xlink:href="#linear-gradient"/>
    <linearGradient id="linear-gradient-7" x1="0" y1="0.5" x2="1" y2="0.5" xlink:href="#linear-gradient"/>
    <linearGradient id="linear-gradient-8" x1="0" y1="0.5" x2="1" y2="0.5" xlink:href="#linear-gradient"/>
    <linearGradient id="linear-gradient-9" x1="0" y1="0.5" x2="1" y2="0.5" xlink:href="#linear-gradient"/>
    <linearGradient id="linear-gradient-13" x1="0" y1="0.5" x2="1" y2="0.5" xlink:href="#linear-gradient"/>
  </defs>
  <g id="svg" transform="translate(-231.9 -155.78)">
    <g id="Group_1" data-name="Group 1" transform="translate(241.183 155.78)">
      <path id="Path_1" data-name="Path 1" d="M396.1,246.355A61.631,61.631,0,0,0,401.515,221c0-33.482-26.5-60.623-59.181-60.623S283.154,187.516,283.154,221a61.7,61.7,0,0,0,4.452,23.1,61.177,61.177,0,1,1,108.5,2.254Z" transform="translate(-275.075 -155.78)" fill="#223850"/>
      <path id="Path_2" data-name="Path 2" d="M261.51,504.811c.661-.276,1.329-.533,2-.784s1.345-.5,2.019-.737c1.351-.473,2.712-.925,4.076-1.367,2.728-.881,5.486-1.674,8.255-2.42q8.314-2.22,16.807-3.75c1.414-.254,2.828-.5,4.248-.724.709-.119,1.42-.223,2.129-.329s1.42-.21,2.132-.307c2.847-.4,5.7-.74,8.562-1.028s5.731-.5,8.6-.68,5.75-.267,8.625-.323a182.11,182.11,0,0,1,34.392,2.605l2.122.389c.709.125,1.411.282,2.116.42,1.411.276,2.815.6,4.217.915,2.8.668,5.584,1.373,8.336,2.2l1.035.3,1.028.323,2.053.649,2.038.7,1.016.351,1.009.373c2.7.966,5.352,2.066,7.969,3.22a198.343,198.343,0,0,0-33.313-7.436,227.879,227.879,0,0,0-33.968-1.916q-4.256.061-8.512.276c-2.837.132-5.671.326-8.5.549s-5.659.5-8.487.812c-.705.075-1.414.157-2.119.241l-2.116.257q-2.116.259-4.229.558-8.455,1.176-16.848,2.828C272.611,502.087,267.037,503.316,261.51,504.811Z" transform="translate(-261.51 -386.823)" fill="#223850"/>
      <path id="Path_3" data-name="Path 3" d="M415.02,204.391s1.232-6.891,9.894-.925c0,0-6.082,7.044-9.894,2.157a13.105,13.105,0,0,1,6.236-1.734,13.174,13.174,0,0,0-6.16.962Z" transform="translate(-366.894 -186.847)" fill="url(#linear-gradient)"/>
      <path id="Path_4" data-name="Path 4" d="M385.893,231.123s4.6-5.276,8.96,4.3c0,0-8.841,2.916-9.593-3.239A13.1,13.1,0,0,1,391.5,233.9a13.182,13.182,0,0,0-5.778-2.342Z" transform="translate(-346.464 -206.507)" fill="url(#linear-gradient-2)"/>
      <path id="Path_5" data-name="Path 5" d="M359.891,258.348s3.273-3.756,6.377,3.057c0,0-6.289,2.075-6.828-2.3a9.331,9.331,0,0,1,4.439,1.226,9.39,9.39,0,0,0-4.11-1.665Z" transform="translate(-328.738 -225.484)" fill="url(#linear-gradient-3)"/>
      <path id="Path_6" data-name="Path 6" d="M377.66,281.138s2.919-6.364,9.81,1.583c0,0-7.653,5.3-10.12-.389a13.123,13.123,0,0,1,6.471-.116,13.166,13.166,0,0,0-6.2-.611Z" transform="translate(-341.034 -240.182)" fill="url(#linear-gradient-4)"/>
      <path id="Path_7" data-name="Path 7" d="M350.676,304.2s4.361-5.474,9.142,3.894c0,0-8.7,3.3-9.728-2.812a13.136,13.136,0,0,1,6.311,1.442,13.177,13.177,0,0,0-5.875-2.085Z" transform="translate(-322.32 -256.578)" fill="url(#linear-gradient-5)"/>
      <path id="Path_8" data-name="Path 8" d="M456.927,227.95s-6.621,3.85-1.464,12.4,9.546.539,9.546.539,1.386,6.16-2.85,8.085-9.393.154-9.857-5.389-1.386-12.089-1.154-12.4S456.927,227.95,456.927,227.95Z" transform="translate(-391.671 -205.324)" fill="url(#linear-gradient-6)"/>
      <path id="Path_9" data-name="Path 9" d="M520.4,232.792s4.775-.307,2.539,4.85-2.771,5.314-7.468,7.392-9.01,5.468-4.621,15.092c0,0,1.423-7.527,1.539-7.7a36.358,36.358,0,0,1,4.1-3.637c.464-.113,4.561-2.311,4.561-2.311s3.235.749,4.157-3,1.618-2.6.693-6.063a29.979,29.979,0,0,0-1.329-4.445A34.058,34.058,0,0,0,520.4,232.792Z" transform="translate(-431.428 -208.646)" fill="url(#linear-gradient-7)"/>
      <path id="Path_10" data-name="Path 10" d="M502.6,366.785l2.85-22.444s-9.9-.6-8.719-5.314a15.969,15.969,0,0,0,2.427-3.464c1.041-2.195-6.64,2.367-6.64,2.367a30.866,30.866,0,0,0,.925,3.928c.288.464,4.561,4.157,7.276,5.026s.288,9.3.288,12.415A27.576,27.576,0,0,0,502.6,366.785Z" transform="translate(-420.097 -278.79)" fill="url(#linear-gradient-8)"/>
      <path id="Path_11" data-name="Path 11" d="M387.612,292.05s-1.5,9.662-10.857,17.632-20.1,24.833-17.152,37.307a32.771,32.771,0,0,1-3.176-16.171c.577-9.239,9.239-17.556,9.932-17.785s13.628-8.894,17.208-14.321S387.612,292.05,387.612,292.05Z" transform="translate(-326.629 -249.329)" fill="url(#linear-gradient-9)"/>
      <path id="Path_12" data-name="Path 12" d="M273.582,457.34s-4.082,4.2-1.618,4.273,4.7-2.734,8.816-.307,7.123,7.355,14.785,6.891c0,0-4.505,1.655-11.01-1.655s-7.239-3.85-10.665-2.618-5.2.232-4.775-1.963S273.582,457.34,273.582,457.34Z" transform="translate(-266.688 -362.799)" fill="url(#linear-gradient-9)"/>
      <path id="Path_13" data-name="Path 13" d="M406.3,393.141s11.089-1.154,13.13,6.314-2.195,14.553-5.044,17.208c0,0,7.2-4.427,8.584-7.2s2.157-11.819-.73-14.321S418.348,388.326,406.3,393.141Z" transform="translate(-360.907 -317.232)" fill="url(#linear-gradient-9)"/>
      <path id="Path_14" data-name="Path 14" d="M406.3,391.7s8.49-5.505,14.2-1.176,7.913,14.2-1.041,23.159c0,0,9.7-1.618,8.662,7.16h-2.655s-1.618-9.415-11.666-3.235c0,0-.4-1.618,1.558-3.7s10.048-7.8,7.449-15.766S415.367,389.06,406.3,391.7Z" transform="translate(-360.907 -315.79)" fill="#223850"/>
      <path id="Path_15" data-name="Path 15" d="M549.983,370.29s10.6,8.7,11.634,18.569-2.483,17.845-12.186,20.155-1.213,2.079-.577,1.963,10.913-4.217,11.377-4.561,6.64-8.085,5.37-14.609a36.383,36.383,0,0,0-5.37-12.3l-7.449-8.2Z" transform="translate(-455.994 -303.04)" fill="url(#linear-gradient-4)"/>
      <path id="Path_16" data-name="Path 16" d="M493.273,456.714s-9.3-14.321.925-10.741a.85.85,0,0,0,.172-1.213c-.464-.809-4.333-4.678-6.7-1.674s-1.213,8.49-.809,9.183S493.273,456.714,493.273,456.714Z" transform="translate(-415.774 -352.241)" fill="url(#linear-gradient-13)"/>
      <path id="Path_17" data-name="Path 17" d="M324.772,292.05s-3.734,8.471-15.823,15.707-16.863,18.9-16.863,26.181a28.785,28.785,0,0,0,2.311,11.9s-5.138,3.408-13.167-1.79-16.4-2.655-16.4,4.217,5.254,5.6,6.756,3.812,4.734-.981,6.584.461,8.317,4.966,14.493,2.195c0,0-5.37,1.5-13.917-5.025,0,0-4.176-3.176-7.643-.367s-4.389,1.154-3.966-1.078,4.621-6.775,9.317-4.273,11.587,9.759,20.309,3c0,0-5.6-18.748,5.486-30.222S323.349,304.217,324.772,292.05Z" transform="translate(-263.789 -249.329)" fill="#223850"/>
      <path id="Path_18" data-name="Path 18" d="M522.122,343.048c-2.079-3.887-7.891-12.609-12.8-15.669,0,0-.056-9.509-1.288-14.4s-2.539-4.352-5.236-1.925-2.925,1.963-5.044,1.887-3.157-.116-4.775,1.847-3.348,4.157-7.853,4.389c0,0-1.847,9.7,8.969,11.126,0,0-.655,15.976,1.809,18.826l.232-21.406s-9.28,1.213-8.988-7.16c0,0,4.273-.52,5.659-2.367s3-3.58,5.831-3.119,3.58-.348,3.58-.348,1.618-2.292,2.925-2.715c0,0,2,10.433,2.232,16.092,0,.094.006.185.013.276.615.5,10.415,8.568,13.694,17.666,3.389,9.393-.461,21.253-19.71,21.481a22.335,22.335,0,0,1-10.857-3.464c-5.082-3.389-6.775-8.932-3.928-11.089s5.389,1.078,5.928,3.7,4.85,6.007,6.928,5.928a10.114,10.114,0,0,1-5.138-7.276c-.925-5.314-9.7-7.508-11.2-1.906s2.022,12.7,10.107,14.669,18.249,1.06,18.249,1.06l.27-.27V367.9a12.647,12.647,0,0,0,10.625-7.449A18.2,18.2,0,0,0,522.122,343.048Z" transform="translate(-413.398 -261.135)" fill="#223850"/>
      <path id="Path_19" data-name="Path 19" d="M528.98,440.95c.113.216.229.43.354.636s.245.417.379.618.266.4.4.6.276.389.429.574a13.181,13.181,0,0,0,1.931,2.05,10.32,10.32,0,0,0,2.3,1.5,9.341,9.341,0,0,0,2.6.787l.677.078c.226.019.458.016.687.025a5.017,5.017,0,0,0,.687-.013c.229-.013.461-.013.69-.047l.69-.082c.229-.034.458-.088.687-.129l.345-.066c.116-.019.226-.06.342-.085l.683-.176c.455-.129.9-.285,1.358-.426.445-.172.9-.332,1.339-.514s.887-.373,1.329-.567.878-.411,1.326-.605c-.379.3-.771.6-1.163.89-.194.147-.408.27-.611.4l-.621.4c-.423.248-.862.47-1.3.709-.223.11-.451.2-.677.3l-.342.151a2.935,2.935,0,0,1-.345.138,13.038,13.038,0,0,1-1.427.458c-.245.06-.486.132-.731.182l-.746.125a10.8,10.8,0,0,1-3.05.009c-.254-.041-.5-.1-.756-.15-.063-.013-.125-.025-.188-.041l-.185-.056-.37-.113c-.248-.066-.483-.179-.724-.27a5.649,5.649,0,0,1-.7-.329,9.772,9.772,0,0,1-2.436-1.825c-.091-.088-.176-.182-.26-.276l-.251-.282c-.16-.191-.317-.392-.464-.589a13.343,13.343,0,0,1-.806-1.257,11.881,11.881,0,0,1-.636-1.339A8.137,8.137,0,0,1,528.98,440.95Z" transform="translate(-445.127 -351.548)" fill="#223850"/>
      <path id="Path_20" data-name="Path 20" d="M309.366,288.074s-26.335-48.509,27.72-75.364c0,0-29.8,17.845-30.319,45.045,0,0,3.869-16.785,18.422-21.945C325.188,235.812,299.835,252.212,309.366,288.074Z" transform="translate(-289.96 -194.862)" fill="#223850"/>
      <path id="Path_21" data-name="Path 21" d="M457.959,224.493a10.081,10.081,0,0,0,1.963,8.026c3,4.041-.865,10.684-5.486,8.894s-7.333-12.59-4.793-17.44,13.8-4.966,16.287-3.348,6.7,3.464,9.183,2.539,5.659-.865,5.891,3.408-.461,6.816-5.138,9.067-8.778,3.869-8.662,8.374.232,6.063.232,6.063.809-2.6,1.558-6.063,6.468-5.314,9.3-6.872,6.179-5.138,5.2-11.838-5.314-4.91-8.546-4.446-6.179-2.022-9.3-2.831-13.456-1.618-18.365,5.314,2.539,23.908,11.377,19.751,3.408-10.568,2.195-12.819S457.787,227.38,457.959,224.493Z" transform="translate(-387.966 -198.152)" fill="#223850"/>
    </g>
    <g id="Group_3" data-name="Group 3" transform="translate(257.413 301.93)">
      <g id="Group_2" data-name="Group 2">
        <path id="Path_22" data-name="Path 22" d="M313.28,627.678V622.17h1.756a3.393,3.393,0,0,1,.875.1,1.631,1.631,0,0,1,.6.285,1.142,1.142,0,0,1,.351.451,1.536,1.536,0,0,1,.113.6,1.267,1.267,0,0,1-.063.392,1.166,1.166,0,0,1-.191.351,1.376,1.376,0,0,1-.323.288,1.787,1.787,0,0,1-.455.207,1.685,1.685,0,0,1,.912.436,1.142,1.142,0,0,1,.307.831,1.586,1.586,0,0,1-.129.64,1.346,1.346,0,0,1-.376.5,1.751,1.751,0,0,1-.608.32,2.756,2.756,0,0,1-.821.113h-1.95Zm.746-3.041h.984a1.877,1.877,0,0,0,.545-.069,1.12,1.12,0,0,0,.383-.191.777.777,0,0,0,.226-.3.956.956,0,0,0,.072-.383.845.845,0,0,0-.292-.712,1.482,1.482,0,0,0-.906-.226h-1.013Zm0,.533v1.919h1.191a1.878,1.878,0,0,0,.549-.072.946.946,0,0,0,.376-.207.785.785,0,0,0,.216-.317,1.112,1.112,0,0,0,.069-.4.827.827,0,0,0-.3-.674,1.408,1.408,0,0,0-.912-.248Z" transform="translate(-313.28 -622.104)" fill="#223850"/>
        <path id="Path_23" data-name="Path 23" d="M339.9,622.17v.608h-2.646v1.831h2.141v.583h-2.141v1.881H339.9v.608h-3.4v-5.508h3.4Z" transform="translate(-329.22 -622.104)" fill="#223850"/>
        <path id="Path_24" data-name="Path 24" d="M361.287,626.4a.155.155,0,0,1,.113.05l.292.32a2.381,2.381,0,0,1-.821.611,2.78,2.78,0,0,1-1.163.219,2.728,2.728,0,0,1-1.082-.207,2.388,2.388,0,0,1-.828-.577,2.606,2.606,0,0,1-.53-.89,3.327,3.327,0,0,1-.188-1.141,3.1,3.1,0,0,1,.2-1.141,2.636,2.636,0,0,1,.567-.893,2.59,2.59,0,0,1,.875-.58,2.962,2.962,0,0,1,1.125-.207,2.516,2.516,0,0,1,1.831.7l-.241.342a.236.236,0,0,1-.063.063.175.175,0,0,1-.1.025.191.191,0,0,1-.107-.038c-.038-.025-.082-.053-.132-.091s-.113-.075-.182-.116a1.818,1.818,0,0,0-.245-.116,2.137,2.137,0,0,0-.765-.128,2.112,2.112,0,0,0-.809.15,1.812,1.812,0,0,0-.633.433,2.016,2.016,0,0,0-.414.683,2.648,2.648,0,0,0-.147.9,2.7,2.7,0,0,0,.147.919,2.049,2.049,0,0,0,.4.683,1.743,1.743,0,0,0,.605.426,1.928,1.928,0,0,0,.752.147,3.155,3.155,0,0,0,.442-.028,1.821,1.821,0,0,0,.364-.091,1.44,1.44,0,0,0,.31-.157,2.526,2.526,0,0,0,.292-.226A.249.249,0,0,1,361.287,626.4Z" transform="translate(-343.348 -621.96)" fill="#223850"/>
        <path id="Path_25" data-name="Path 25" d="M385.437,627.671h-.577a.238.238,0,0,1-.16-.05.293.293,0,0,1-.091-.129l-.514-1.329h-2.474l-.514,1.329a.313.313,0,0,1-.091.122.235.235,0,0,1-.16.053h-.577l2.2-5.508h.759Zm-3.612-2.044h2.057l-.865-2.242a3.963,3.963,0,0,1-.166-.52c-.028.1-.056.2-.082.292s-.053.166-.078.232Z" transform="translate(-359.275 -622.097)" fill="#223850"/>
        <path id="Path_26" data-name="Path 26" d="M407.645,627.086a1.51,1.51,0,0,0,.611-.116,1.291,1.291,0,0,0,.455-.323,1.406,1.406,0,0,0,.285-.5,1.945,1.945,0,0,0,.1-.633V622.17h.743v3.348a2.542,2.542,0,0,1-.15.884,2.027,2.027,0,0,1-.436.705,1.988,1.988,0,0,1-.69.467,2.56,2.56,0,0,1-1.831,0,2.031,2.031,0,0,1-.693-.467,1.983,1.983,0,0,1-.436-.705,2.542,2.542,0,0,1-.151-.884V622.17h.743v3.345a1.93,1.93,0,0,0,.1.633,1.406,1.406,0,0,0,.285.5,1.312,1.312,0,0,0,.458.326A1.511,1.511,0,0,0,407.645,627.086Z" transform="translate(-376.554 -622.104)" fill="#223850"/>
        <path id="Path_27" data-name="Path 27" d="M432.727,622.909a.348.348,0,0,1-.072.088.147.147,0,0,1-.1.028.258.258,0,0,1-.15-.066,2.48,2.48,0,0,0-.219-.144,1.714,1.714,0,0,0-.32-.144,1.549,1.549,0,0,0-.893,0,.929.929,0,0,0-.32.182.78.78,0,0,0-.194.27.853.853,0,0,0-.066.335.622.622,0,0,0,.113.382.981.981,0,0,0,.3.26,2.189,2.189,0,0,0,.423.185c.157.053.32.107.483.163s.326.119.486.191a1.83,1.83,0,0,1,.423.266,1.226,1.226,0,0,1,.3.4,1.324,1.324,0,0,1,.113.577,1.884,1.884,0,0,1-.122.68,1.544,1.544,0,0,1-.361.552,1.72,1.72,0,0,1-.58.37,2.107,2.107,0,0,1-.784.135,2.4,2.4,0,0,1-.975-.194,2.267,2.267,0,0,1-.752-.523l.216-.354a.274.274,0,0,1,.075-.072.176.176,0,0,1,.1-.028.3.3,0,0,1,.185.088c.069.056.157.122.26.191a2.1,2.1,0,0,0,.376.191,1.507,1.507,0,0,0,.539.088,1.471,1.471,0,0,0,.473-.072.932.932,0,0,0,.351-.207.908.908,0,0,0,.223-.317,1.077,1.077,0,0,0,.078-.411.7.7,0,0,0-.113-.411.944.944,0,0,0-.3-.267,2.071,2.071,0,0,0-.42-.182l-.486-.154a4.932,4.932,0,0,1-.483-.182,1.581,1.581,0,0,1-.42-.27,1.23,1.23,0,0,1-.3-.414,1.483,1.483,0,0,1-.113-.614,1.462,1.462,0,0,1,.113-.564,1.435,1.435,0,0,1,.329-.483,1.583,1.583,0,0,1,.533-.339,1.943,1.943,0,0,1,.727-.125,2.345,2.345,0,0,1,.843.147,1.912,1.912,0,0,1,.665.423Z" transform="translate(-393.037 -621.981)" fill="#223850"/>
        <path id="Path_28" data-name="Path 28" d="M454.635,622.17v.608h-2.646v1.831h2.141v.583h-2.141v1.881h2.646v.608h-3.4v-5.508h3.4Z" transform="translate(-407.989 -622.104)" fill="#223850"/>
        <path id="Path_29" data-name="Path 29" d="M482.98,622.163h.618a.262.262,0,0,1,.166.05.249.249,0,0,1,.088.125l1.138,3.828c.022.069.038.144.056.223s.031.163.047.251c.019-.088.034-.169.053-.251a1.893,1.893,0,0,1,.063-.223l1.295-3.828a.3.3,0,0,1,.091-.122.246.246,0,0,1,.163-.056h.216a.247.247,0,0,1,.163.05.3.3,0,0,1,.091.125l1.289,3.828a3.3,3.3,0,0,1,.122.458c.016-.085.028-.166.041-.241a1.542,1.542,0,0,1,.05-.216l1.141-3.828a.22.22,0,0,1,.088-.122.261.261,0,0,1,.163-.053h.58l-1.718,5.508h-.668l-1.4-4.2a2.758,2.758,0,0,1-.078-.276c-.013.05-.025.1-.038.147s-.025.091-.038.129l-1.4,4.2h-.668Z" transform="translate(-429.778 -622.097)" fill="#223850"/>
        <path id="Path_30" data-name="Path 30" d="M520.685,622.17v.608h-2.646v1.831h2.141v.583h-2.141v1.881h2.646v.608h-3.4v-5.508h3.4Z" transform="translate(-453.332 -622.104)" fill="#223850"/>
        <path id="Path_31" data-name="Path 31" d="M554.167,626.4a.155.155,0,0,1,.113.05l.292.32a2.381,2.381,0,0,1-.821.611,2.78,2.78,0,0,1-1.163.219,2.728,2.728,0,0,1-1.082-.207,2.389,2.389,0,0,1-.828-.577,2.607,2.607,0,0,1-.53-.89,3.327,3.327,0,0,1-.188-1.141,3.1,3.1,0,0,1,.2-1.141,2.637,2.637,0,0,1,.567-.893,2.59,2.59,0,0,1,.875-.58,2.962,2.962,0,0,1,1.125-.207,2.516,2.516,0,0,1,1.831.7l-.241.342a.238.238,0,0,1-.063.063.175.175,0,0,1-.1.025.192.192,0,0,1-.107-.038c-.038-.025-.081-.053-.132-.091s-.113-.075-.182-.116a1.7,1.7,0,0,0-.248-.116,2.137,2.137,0,0,0-.765-.128,2.113,2.113,0,0,0-.809.15,1.812,1.812,0,0,0-.633.433,1.967,1.967,0,0,0-.414.683,2.573,2.573,0,0,0-.147.9,2.7,2.7,0,0,0,.147.919,2,2,0,0,0,.4.683,1.752,1.752,0,0,0,.6.426,1.929,1.929,0,0,0,.753.147,3.158,3.158,0,0,0,.442-.028,1.821,1.821,0,0,0,.364-.091,1.437,1.437,0,0,0,.31-.157,2.521,2.521,0,0,0,.292-.226A.269.269,0,0,1,554.167,626.4Z" transform="translate(-475.759 -621.96)" fill="#223850"/>
        <path id="Path_32" data-name="Path 32" d="M578.31,627.671h-.577a.238.238,0,0,1-.16-.05.294.294,0,0,1-.091-.129l-.514-1.329h-2.474l-.514,1.329a.311.311,0,0,1-.091.122.238.238,0,0,1-.163.053h-.577l2.2-5.508h.759Zm-3.612-2.044h2.057l-.865-2.242a3.986,3.986,0,0,1-.166-.52c-.028.1-.056.2-.081.292a2.424,2.424,0,0,1-.078.232Z" transform="translate(-491.679 -622.097)" fill="#223850"/>
        <path id="Path_33" data-name="Path 33" d="M600.173,625.38v2.3h-.743V622.17h1.558a3.334,3.334,0,0,1,.9.107,1.788,1.788,0,0,1,.63.3,1.219,1.219,0,0,1,.367.483,1.715,1.715,0,0,1,.028,1.179,1.472,1.472,0,0,1-.266.455,1.6,1.6,0,0,1-.427.345,2.2,2.2,0,0,1-.57.216.8.8,0,0,1,.248.235l1.608,2.188h-.662a.333.333,0,0,1-.3-.157l-1.43-1.969a.392.392,0,0,0-.141-.132.493.493,0,0,0-.232-.041h-.571Zm0-.542h.781a1.852,1.852,0,0,0,.574-.078,1.134,1.134,0,0,0,.414-.223.94.94,0,0,0,.251-.345,1.133,1.133,0,0,0,.085-.442.88.88,0,0,0-.326-.743,1.572,1.572,0,0,0-.966-.251h-.815v2.082Z" transform="translate(-509.72 -622.104)" fill="#223850"/>
        <path id="Path_34" data-name="Path 34" d="M625.735,622.17v.608h-2.646v1.831h2.141v.583h-2.141v1.881h2.646v.608h-3.4v-5.508h3.4Z" transform="translate(-525.448 -622.104)" fill="#223850"/>
      </g>
    </g>
    <g id="Group_5" data-name="Group 5" transform="translate(231.9 276.091)">
      <g id="Group_4" data-name="Group 4">
        <path id="Path_35" data-name="Path 35" d="M244.243,540.92v20.644h-5.367v-8.672H237.27v8.672H231.9V540.92h5.367V548.3h1.605V540.92Z" transform="translate(-231.9 -540.487)" fill="#29b6f6"/>
        <path id="Path_36" data-name="Path 36" d="M279.81,540.92h8.951v4.132h-3.583v3.916h3.355V552.9h-3.355v4.54h3.941v4.132H279.81Z" transform="translate(-264.79 -540.487)" fill="#29b6f6"/>
        <path id="Path_37" data-name="Path 37" d="M322.7,540.92l3.069,20.644h-5.486l-.288-3.712h-1.922l-.323,3.712H312.2l2.737-20.644ZM319.856,554.2q-.409-3.508-.818-8.672-.818,5.93-1.031,8.672Z" transform="translate(-287.025 -540.487)" fill="#29b6f6"/>
        <path id="Path_38" data-name="Path 38" d="M365.42,540.92v16.512h3.264v4.132H360.05V540.92Z" transform="translate(-319.874 -540.487)" fill="#29b6f6"/>
        <path id="Path_39" data-name="Path 39" d="M398.777,540.92v20.644H393.41V540.92Z" transform="translate(-342.776 -540.487)" fill="#29b6f6"/>
        <path id="Path_40" data-name="Path 40" d="M431.055,540.92v20.644h-4.7l-2.793-9.386v9.386H419.07V540.92h4.489l3.01,9.3v-9.3Z" transform="translate(-360.391 -540.487)" fill="#29b6f6"/>
        <path id="Path_41" data-name="Path 41" d="M477.814,547.575h-5.367V545.7a9.211,9.211,0,0,0-.154-2.22.8.8,0,0,0-1.4-.063,6.212,6.212,0,0,0-.179,1.963v9.907a5.9,5.9,0,0,0,.179,1.831.694.694,0,0,0,.715.439.787.787,0,0,0,.8-.5,5.8,5.8,0,0,0,.21-1.937v-2.448h-1.085v-3.135h6.286v11.079h-3.373l-.5-1.48a3.775,3.775,0,0,1-1.386,1.436,3.893,3.893,0,0,1-1.972.48,5.146,5.146,0,0,1-2.533-.655,4.831,4.831,0,0,1-1.793-1.627,5.143,5.143,0,0,1-.765-2.035,24.736,24.736,0,0,1-.154-3.195v-6.132a20.5,20.5,0,0,1,.32-4.3,4.4,4.4,0,0,1,1.831-2.455,6.419,6.419,0,0,1,3.909-1.116,7.287,7.287,0,0,1,3.916.969,4.587,4.587,0,0,1,2.028,2.3,12.221,12.221,0,0,1,.47,3.869Z" transform="translate(-392.155 -539.54)" fill="#29b6f6"/>
        <path id="Path_42" data-name="Path 42" d="M529.78,540.92h5.408a12.731,12.731,0,0,1,3.373.345,3.761,3.761,0,0,1,1.771.994,3.4,3.4,0,0,1,.8,1.574,14.052,14.052,0,0,1,.21,2.862v1.8a7.471,7.471,0,0,1-.408,2.881,2.788,2.788,0,0,1-1.5,1.389,7.091,7.091,0,0,1-2.85.486h-1.442v8.314H529.78Zm5.367,3.533v5.254c.154.009.285.012.4.012a1.243,1.243,0,0,0,1.025-.364,2.668,2.668,0,0,0,.288-1.511v-1.7a1.98,1.98,0,0,0-.332-1.376A2.077,2.077,0,0,0,535.147,544.453Z" transform="translate(-436.393 -540.487)" fill="#29b6f6"/>
        <path id="Path_43" data-name="Path 43" d="M577.8,540.92l3.069,20.644h-5.486l-.288-3.712h-1.919l-.323,3.712H567.3l2.737-20.644H577.8ZM574.953,554.2q-.409-3.508-.818-8.672-.818,5.93-1.031,8.672Z" transform="translate(-462.15 -540.487)" fill="#29b6f6"/>
        <path id="Path_44" data-name="Path 44" d="M631.5,540.92l-2.389,20.644h-6.7q-.922-4.759-1.624-10.825-.32,2.6-1.5,10.825h-6.665l-2.4-20.644h5.217l.567,7.2.549,6.963q.3-5.4,1.483-14.167h5.574q.113.9.586,6.809l.592,7.853q.456-7.5,1.5-14.663Z" transform="translate(-491.614 -540.487)" fill="#29b6f6"/>
        <path id="Path_45" data-name="Path 45" d="M693.542,546.221h-4.985v-1.53a2.979,2.979,0,0,0-.191-1.364.706.706,0,0,0-.636-.295.813.813,0,0,0-.734.4,2.3,2.3,0,0,0-.248,1.2,3.407,3.407,0,0,0,.279,1.555,4.062,4.062,0,0,0,1.517,1.264,15.3,15.3,0,0,1,4.514,3.492,8,8,0,0,1,.931,4.4,7.7,7.7,0,0,1-.517,3.251,4.043,4.043,0,0,1-2,1.753,7.924,7.924,0,0,1-3.442.708,7.715,7.715,0,0,1-3.677-.815,4.026,4.026,0,0,1-2-2.079,10.6,10.6,0,0,1-.47-3.583v-1.351h4.985v2.511a3.3,3.3,0,0,0,.21,1.492.812.812,0,0,0,.746.332.874.874,0,0,0,.8-.42,2.393,2.393,0,0,0,.26-1.251,3.872,3.872,0,0,0-.5-2.386,15.882,15.882,0,0,0-2.511-1.875,24.731,24.731,0,0,1-2.652-1.925,4.517,4.517,0,0,1-1.078-1.658,7.277,7.277,0,0,1-.426-2.7,7.489,7.489,0,0,1,.605-3.467,4.091,4.091,0,0,1,1.956-1.715,7.782,7.782,0,0,1,3.264-.618,8.487,8.487,0,0,1,3.564.677,3.73,3.73,0,0,1,1.95,1.7,8.98,8.98,0,0,1,.48,3.486v.815Z" transform="translate(-540.699 -539.54)" fill="#29b6f6"/>
      </g>
    </g>
  </g>
</svg>
