<svg width="16" height="16" viewBox="0 0 16 16" fill="none" xmlns="http://www.w3.org/2000/svg">
<path d="M15.1068 6.65709L15.031 6.31909H7.82124V9.41909H12.1276C11.8885 10.3678 11.3431 11.2076 10.5787 11.8044C9.81427 12.4012 8.87493 12.7204 7.91083 12.7111C6.65042 12.7003 5.43968 12.2105 4.51714 11.3381C4.06328 10.8841 3.70202 10.3437 3.45401 9.74776C3.20601 9.15182 3.07614 8.51206 3.07184 7.86509C3.09062 6.56654 3.5987 5.3247 4.49154 4.39509C5.40153 3.52127 6.6104 3.0411 7.86259 3.05609C8.92199 3.0711 9.94042 3.47415 10.7305 4.19109L12.8965 2.00009C11.4943 0.718338 9.6762 0.00631935 7.78974 8.83298e-05C5.70223 -0.00985675 3.69581 0.820346 2.20939 2.30909C0.79194 3.80082 0.00109939 5.79392 0.00402462 7.86709C-0.00699699 9.89832 0.75203 11.856 2.12373 13.3341C2.88828 14.1094 3.79803 14.7212 4.79927 15.1334C5.80051 15.5456 6.87292 15.7499 7.95317 15.7341C8.92999 15.7425 9.89825 15.5485 10.7988 15.1641C11.6994 14.7796 12.5133 14.2128 13.1909 13.4981C14.5216 12.0123 15.2414 10.0653 15.2023 8.05709C15.2062 7.58862 15.1742 7.12055 15.1068 6.65709Z" fill="white"/>
</svg>
