<svg xmlns="http://www.w3.org/2000/svg" width="22.282" height="20.808" viewBox="0 0 22.282 20.808">
  <g id="Group_3381" data-name="Group 3381" opacity="0.7">
    <path id="Path_281" data-name="Path 281" d="M12.069,3.943a.8.8,0,0,1,1.124,0l9.212,9.212a.8.8,0,1,0,1.124-1.124L14.318,2.82a2.385,2.385,0,0,0-3.373,0L1.732,12.032a.8.8,0,1,0,1.125,1.124l9.212-9.212Z" transform="translate(-1.5 -2.121)" fill="#fff"/>
    <path id="Path_282" data-name="Path 282" d="M12.5,5.432l8.649,8.649c.032.032.064.061.1.091v6.57a1.988,1.988,0,0,1-1.988,1.988H15.676a.8.8,0,0,1-.8-.8v-4.77a.8.8,0,0,0-.8-.8h-3.18a.8.8,0,0,0-.8.8v4.77a.8.8,0,0,1-.8.8H5.738A1.988,1.988,0,0,1,3.75,20.743v-6.57q.049-.044.1-.091L12.5,5.43Z" transform="translate(-1.364 -1.922)" fill="#fff"/>
  </g>
</svg>
