<svg width="24" height="24" viewBox="0 0 24 24" fill="none" xmlns="http://www.w3.org/2000/svg">
<g clip-path="url(#clip0_22_387)">
<mask id="mask0_22_387" style="mask-type:alpha" maskUnits="userSpaceOnUse" x="0" y="0" width="24" height="24">
<rect width="24" height="24" fill="#D9D9D9"/>
</mask>
<g mask="url(#mask0_22_387)">
<path d="M6.75131 22.8385V22.6385V20.994H5.00324H4.80324V20.794V19.5193V19.3193H5.00324H6.74935C6.7494 19.2754 6.74946 19.2317 6.74952 19.1881C6.75006 18.7824 6.75059 18.3898 6.74345 17.9978C6.74185 17.9972 6.74068 17.9968 6.73995 17.9965C5.43042 17.7886 4.29926 17.2301 3.38767 16.2799C2.2587 15.1035 1.69624 13.6919 1.81579 12.0701C1.98362 9.79102 3.1882 8.17083 5.28616 7.20575C6.03699 6.86028 6.84148 6.72049 7.6628 6.73731L7.66283 6.73731C7.71128 6.73831 7.72588 6.72991 7.73017 6.72735C7.73756 6.72291 7.75386 6.71029 7.78417 6.66351C8.92655 4.89806 10.5834 3.95083 12.7252 3.91401L6.75131 22.8385ZM6.75131 22.8385H6.95131H8.24532H8.44532V22.6385V20.9853M6.75131 22.8385L8.44532 20.9853M8.44532 20.9853H10.2812H10.4812V20.7853V19.5061V19.3061H10.2812H8.45355C8.4535 19.2576 8.45343 19.2093 8.45336 19.1612C8.45278 18.7661 8.45222 18.3819 8.45869 17.9981C10.2221 17.7013 11.6003 16.8235 12.5526 15.3325C12.5875 15.2779 12.6115 15.259 12.6284 15.2499C12.6457 15.2407 12.6767 15.2304 12.7458 15.2308H12.7459C13.6446 15.2355 14.498 15.0396 15.3077 14.6582C17.8727 13.4501 19.1792 10.519 18.2978 7.8757L18.2977 7.8756C18.2034 7.59308 18.0789 7.31311 17.9562 7.0372C17.9195 6.95485 17.8831 6.87287 17.8476 6.79128C18.7235 5.98226 19.6135 5.16015 20.5049 4.33714V5.45076V5.65076H20.7049H22H22.2V5.45076V1.83203V1.63203H22H18.1901H17.9901V1.83203V3.10108V3.30108H18.1901H19.1356C18.3289 4.04555 17.5478 4.76663 16.7725 5.48292C16.7662 5.4773 16.76 5.47168 16.7537 5.46603C16.7244 5.43981 16.6945 5.41305 16.6614 5.38383L16.6612 5.3836C15.5465 4.40313 14.2236 3.88816 12.7252 3.91401L8.44532 20.9853ZM12.7469 15.0308C13.6148 15.0354 14.4388 14.8464 15.2225 14.4772L12.7469 15.0308ZM12.7469 15.0308C12.5707 15.0298 12.4756 15.0817 12.3841 15.2248L12.7469 15.0308ZM12.7286 4.11398C14.1748 4.08903 15.45 4.58453 16.5291 5.53377L12.7286 4.11398ZM16.801 10.2512L16.9981 10.2856L16.801 10.2513C16.4631 12.1907 14.7937 13.3666 13.3055 13.5135C13.8624 10.6588 12.1987 8.0055 9.59404 7.06672C10.3753 6.03948 12.1025 5.22448 13.9505 5.75156C15.9039 6.30876 17.1501 8.24859 16.801 10.2512ZM11.5642 13.3757C9.50175 12.8006 8.22508 10.6115 8.79477 8.59506C10.7391 9.08501 12.1653 11.266 11.5642 13.3757Z" fill="#9C9C9C" stroke="#9C9C9C" stroke-width="0.4"/>
</g>
</g>
<defs>
<clipPath id="clip0_22_387">
<rect width="24" height="24" fill="white"/>
</clipPath>
</defs>
</svg>
