<svg xmlns="http://www.w3.org/2000/svg" xmlns:xlink="http://www.w3.org/1999/xlink" width="24" height="24" viewBox="0 0 24 24">
  <defs>
    <clipPath id="clip-path">
      <rect id="Rectangle_1337" data-name="Rectangle 1337" width="24" height="24" fill="#fff" stroke="#707070" stroke-width="1"/>
    </clipPath>
  </defs>
  <g id="Mask_Group_14" data-name="Mask Group 14" clip-path="url(#clip-path)">
    <path id="Icon_awesome-coins" data-name="Icon awesome-coins" d="M0,15.686v1.653c0,1.366,3.328,2.477,7.431,2.477s7.431-1.111,7.431-2.477V15.686c-1.6,1.126-4.52,1.653-7.431,1.653S1.6,16.812,0,15.686ZM12.385,4.954c4.1,0,7.431-1.111,7.431-2.477S16.487,0,12.385,0,4.954,1.111,4.954,2.477,8.282,4.954,12.385,4.954ZM0,11.626v2C0,14.989,3.328,16.1,7.431,16.1s7.431-1.111,7.431-2.477v-2c-1.6,1.316-4.524,2-7.431,2S1.6,12.942,0,11.626Zm16.1.426c2.218-.43,3.715-1.227,3.715-2.144V8.255A9.5,9.5,0,0,1,16.1,9.59ZM7.431,6.192C3.328,6.192,0,7.578,0,9.288s3.328,3.1,7.431,3.1,7.431-1.386,7.431-3.1S11.533,6.192,7.431,6.192Zm8.487,2.179c2.322-.418,3.9-1.238,3.9-2.179V4.54A12.6,12.6,0,0,1,13.6,6.157,4.334,4.334,0,0,1,15.918,8.371Z" transform="translate(2.462 1.802)" fill="#fff"/>
  </g>
</svg>
