<svg xmlns="http://www.w3.org/2000/svg" xmlns:xlink="http://www.w3.org/1999/xlink" width="24" height="24" viewBox="0 0 24 24">
  <defs>
    <clipPath id="clip-path">
      <rect id="Rectangle_1346" data-name="Rectangle 1346" width="24" height="24" transform="translate(-10797 -7197)" fill="#fff" stroke="#707070" stroke-width="1"/>
    </clipPath>
    <clipPath id="clip-path-2">
      <rect id="Rectangle_1410" data-name="Rectangle 1410" width="19" height="19" transform="translate(0.408 0.408)" fill="#fff"/>
    </clipPath>
  </defs>
  <g id="Mask_Group_16" data-name="Mask Group 16" transform="translate(10797 7197)" clip-path="url(#clip-path)">
    <g id="Group_11357" data-name="Group 11357" transform="translate(-10794.272 -7194.863)">
      <g id="Group_11357-2" data-name="Group 11357" transform="translate(-0.136 -0.137)" clip-path="url(#clip-path-2)">
        <path id="Path_6309" data-name="Path 6309" d="M0,121.792V110.444a.5.5,0,0,0,.03-.069,1.506,1.506,0,0,1,1.562-1.231q7.3,0,14.6,0a1.513,1.513,0,0,1,1.589,1.593c0,.781,0,1.561,0,2.342v.19h-.237c-.812,0-1.625-.006-2.437,0a2.854,2.854,0,0,0-.07,5.706c.844.014,1.688,0,2.532,0h.208c0,.923,0,1.817,0,2.711a.561.561,0,0,1-.013.094,1.521,1.521,0,0,1-1.583,1.3H2.893c-.463,0-.927,0-1.39,0a1.5,1.5,0,0,1-1.085-.475A1.838,1.838,0,0,1,0,121.792" transform="translate(0.159 -103.431)" fill="#fff"/>
        <path id="Path_6310" data-name="Path 6310" d="M50.619,0c.535.145.619.61.762,1.062-.246,0-.474-.006-.7,0a1.894,1.894,0,0,0-1.849,1.872c-.008.482,0,.964,0,1.475h-.211c-1.656,0-3.312,0-4.968,0a.233.233,0,0,1-.267-.193c-.078-.247-.178-.488-.264-.733a.762.762,0,0,1,.488-1.038L50.249.036A.463.463,0,0,0,50.314,0Z" transform="translate(-40.712 0.159)" fill="#fff"/>
        <path id="Path_6311" data-name="Path 6311" d="M267.049,216.056c-.622,0-1.244.011-1.865,0a1.708,1.708,0,0,1,0-3.416c1.275-.019,2.55-.009,3.826,0a.57.57,0,0,1,.59.608q0,1.1,0,2.208a.567.567,0,0,1-.607.607c-.647,0-1.294,0-1.941,0v0m-1.834-1.142a.569.569,0,0,0,.575-.559.571.571,0,1,0-1.142-.008.569.569,0,0,0,.567.566" transform="translate(-249.942 -201.651)" fill="#fff"/>
        <path id="Path_6312" data-name="Path 6312" d="M178.857,45.462c0-.509-.013-1,0-1.5a.739.739,0,0,1,.784-.694c.99,0,1.98,0,2.969,0,.692,0,1.383,0,2.075,0a.76.76,0,0,1,.829.827c0,.45,0,.9,0,1.365Z" transform="translate(-169.595 -40.907)" fill="#fff"/>
      </g>
    </g>
  </g>
</svg>
