<svg width="17" height="23" viewBox="0 0 17 23" fill="none" xmlns="http://www.w3.org/2000/svg">
<g id="Frame" clip-path="url(#clip0_502_110)">
<g id="Group 12578">
<g id="Group 1973">
<path id="Path 4009" d="M16.3208 22.4341H0.537782C0.362951 22.3628 0.216315 22.2362 0.120241 22.0736C0.0241662 21.9111 -0.0160403 21.7216 0.00579985 21.534C0.0151332 15.82 0.0171146 10.106 0.0117813 4.39204C0.0117813 4.31904 0.0117813 4.24605 0.0117813 4.17305C0.00946314 4.01696 0.0636588 3.8653 0.164369 3.74603C0.26508 3.62676 0.405548 3.54792 0.559816 3.52405C1.07282 3.48805 1.58882 3.51405 2.11682 3.51405C2.11682 4.00305 2.10882 4.47705 2.11682 4.95105C2.12607 5.49115 2.34463 6.00657 2.7265 6.38863C3.10838 6.77069 3.62372 6.98954 4.16382 6.99905C7.00682 7.01205 9.84984 7.00505 12.6918 6.99905C13.0971 6.99848 13.4919 6.87082 13.8208 6.63405C14.1021 6.44689 14.333 6.19336 14.4931 5.89583C14.6532 5.5983 14.7376 5.26592 14.7388 4.92805C14.7508 4.45605 14.7388 3.98405 14.7388 3.52005C14.7603 3.51037 14.7827 3.503 14.8058 3.49805H15.9678C16.5958 3.49805 16.8448 3.74604 16.8448 4.37004C16.8448 10.0914 16.8468 15.8127 16.8508 21.534C16.873 21.7214 16.8331 21.9108 16.7374 22.0733C16.6417 22.2359 16.4954 22.3626 16.3208 22.4341ZM10.1818 10.508C10.9818 10.508 11.7748 10.514 12.5708 10.502C12.7299 10.4988 12.8858 10.4565 13.0248 10.379C13.1507 10.3022 13.2473 10.1854 13.299 10.0473C13.3506 9.90912 13.3544 9.75764 13.3098 9.61705C13.2672 9.46443 13.1741 9.33077 13.0457 9.23795C12.9172 9.14512 12.7611 9.09863 12.6028 9.10605C11.0028 9.10605 9.4028 9.10605 7.8028 9.10605C7.70308 9.09394 7.60194 9.10324 7.5061 9.13335C7.41027 9.16345 7.32195 9.21367 7.24707 9.28062C7.17219 9.34758 7.11249 9.42975 7.0719 9.52164C7.03131 9.61352 7.01079 9.71302 7.01172 9.81346C7.01265 9.91391 7.03499 10.013 7.07727 10.1041C7.11956 10.1952 7.18085 10.2763 7.25696 10.3418C7.33307 10.4074 7.42224 10.4559 7.51862 10.4843C7.61499 10.5126 7.71632 10.52 7.8158 10.506C8.6038 10.5087 9.39249 10.5097 10.1818 10.509V10.508ZM10.1908 13.314C10.9908 13.314 11.7838 13.314 12.5798 13.314C12.6718 13.3135 12.7626 13.2949 12.8474 13.2592C12.9321 13.2236 13.009 13.1716 13.0736 13.1062C13.1382 13.0408 13.1894 12.9634 13.2241 12.8782C13.2588 12.7931 13.2763 12.702 13.2758 12.61C13.2753 12.5181 13.2567 12.4272 13.221 12.3425C13.1853 12.2577 13.1333 12.1809 13.0679 12.1162C13.0026 12.0516 12.9251 12.0005 12.84 11.9658C12.7548 11.9311 12.6637 11.9135 12.5718 11.914C10.9791 11.914 9.38612 11.914 7.79279 11.914C7.70086 11.9146 7.60994 11.9332 7.52521 11.9689C7.44048 12.0045 7.36364 12.0565 7.29901 12.1219C7.23438 12.1873 7.18325 12.2647 7.14856 12.3499C7.11387 12.435 7.09628 12.5261 7.0968 12.618C7.09733 12.71 7.11595 12.8009 7.15161 12.8856C7.18728 12.9703 7.23932 13.0472 7.30469 13.1118C7.37006 13.1765 7.44747 13.2276 7.53259 13.2623C7.61772 13.297 7.70886 13.3146 7.80078 13.314C8.59745 13.316 9.39413 13.3164 10.1908 13.315V13.314ZM10.2038 14.7141H7.81482C7.71533 14.7002 7.614 14.7077 7.51764 14.736C7.42128 14.7644 7.33211 14.8131 7.25604 14.8787C7.17998 14.9443 7.11876 15.0254 7.07654 15.1165C7.03432 15.2076 7.01203 15.3068 7.01117 15.4072C7.01031 15.5077 7.03088 15.6071 7.07153 15.699C7.11219 15.7908 7.17202 15.873 7.24695 15.9399C7.32188 16.0068 7.41019 16.0569 7.50604 16.087C7.6019 16.117 7.70309 16.1262 7.8028 16.114C9.38813 16.114 10.9738 16.114 12.5598 16.114C12.6595 16.1264 12.7607 16.1173 12.8566 16.0874C12.9525 16.0575 13.0409 16.0075 13.116 15.9407C13.191 15.8739 13.2509 15.7919 13.2917 15.7001C13.3325 15.6083 13.3532 15.5088 13.3525 15.4084C13.3518 15.3079 13.3296 15.2088 13.2875 15.1175C13.2454 15.0263 13.1844 14.9451 13.1084 14.8794C13.0324 14.8137 12.9433 14.765 12.8469 14.7364C12.7506 14.7079 12.6493 14.7003 12.5498 14.7141H10.2038ZM10.2038 17.5201C9.3998 17.5201 8.59612 17.5201 7.79279 17.5201C7.60714 17.5214 7.42966 17.5964 7.29932 17.7286C7.16898 17.8608 7.09645 18.0394 7.09778 18.2251C7.09911 18.4107 7.17412 18.5882 7.30634 18.7186C7.43855 18.8489 7.61715 18.9214 7.8028 18.92C9.38813 18.92 10.9738 18.92 12.5598 18.92C12.6595 18.9324 12.7607 18.9233 12.8566 18.8934C12.9525 18.8635 13.0409 18.8135 13.116 18.7467C13.191 18.6799 13.2509 18.5979 13.2917 18.5061C13.3325 18.4143 13.3532 18.3148 13.3525 18.2144C13.3518 18.1139 13.3296 18.0148 13.2875 17.9235C13.2454 17.8323 13.1844 17.7511 13.1084 17.6854C13.0324 17.6197 12.9433 17.571 12.8469 17.5424C12.7506 17.5139 12.6493 17.5063 12.5498 17.5201H10.2038ZM4.57782 10.504C4.70982 10.504 4.8408 10.512 4.9718 10.504C5.15745 10.503 5.33511 10.4282 5.46564 10.2962C5.59616 10.1642 5.66885 9.9857 5.66779 9.80005C5.66673 9.6144 5.59199 9.43677 5.45996 9.30624C5.32794 9.17572 5.14946 9.10299 4.96381 9.10405C4.70181 9.09105 4.43781 9.09205 4.17481 9.10405C3.99757 9.113 3.83052 9.18951 3.70795 9.31784C3.58538 9.44618 3.51661 9.61659 3.51581 9.79405C3.51379 9.97517 3.58204 10.15 3.70624 10.2818C3.83043 10.4137 4.00091 10.4923 4.18183 10.5011C4.31383 10.5141 4.44582 10.508 4.57782 10.508V10.504ZM4.56683 13.31C4.69783 13.31 4.82982 13.317 4.96082 13.31C5.14647 13.3091 5.32416 13.2345 5.45477 13.1026C5.58539 12.9706 5.65822 12.7922 5.65729 12.6066C5.65636 12.4209 5.58176 12.2432 5.44983 12.1126C5.3179 11.982 5.13945 11.9091 4.9538 11.91C4.6988 11.899 4.44283 11.9 4.18683 11.91C4.00643 11.9178 3.83598 11.9949 3.71112 12.1254C3.58627 12.2558 3.51662 12.4295 3.51679 12.61C3.51669 12.7918 3.58728 12.9664 3.71362 13.0971C3.83997 13.2277 4.01215 13.3041 4.19379 13.31C4.31779 13.319 4.4378 13.314 4.5658 13.313L4.56683 13.31ZM4.56683 14.716C4.43583 14.716 4.30379 14.709 4.17279 14.716C4.08087 14.7153 3.98971 14.7326 3.90448 14.767C3.81925 14.8015 3.74165 14.8524 3.67609 14.9168C3.54369 15.047 3.46839 15.2244 3.4668 15.41C3.46521 15.5957 3.53745 15.7744 3.6676 15.9068C3.79775 16.0392 3.97518 16.1145 4.16083 16.116C4.43062 16.1311 4.70104 16.1311 4.97083 16.116C5.14714 16.1027 5.31186 16.023 5.43189 15.8932C5.55191 15.7633 5.61831 15.5929 5.6178 15.416C5.61661 15.2386 5.54811 15.0683 5.42615 14.9395C5.30419 14.8107 5.13788 14.7329 4.96082 14.722C4.83282 14.712 4.69979 14.7191 4.56879 14.7191L4.56683 14.716ZM4.57483 18.922C4.70583 18.922 4.83781 18.93 4.96881 18.922C5.15446 18.9212 5.33218 18.8467 5.46289 18.7149C5.59361 18.5831 5.66663 18.4047 5.66583 18.2191C5.66504 18.0334 5.59052 17.8557 5.45868 17.7249C5.32684 17.5942 5.14848 17.5213 4.96283 17.522C4.70083 17.509 4.43683 17.51 4.17383 17.522C3.99726 17.5324 3.83112 17.6092 3.70886 17.737C3.58661 17.8648 3.51731 18.0342 3.51483 18.211C3.51281 18.3922 3.58107 18.567 3.70526 18.6989C3.82946 18.8307 3.99988 18.9093 4.18079 18.918C4.31379 18.932 4.44578 18.926 4.57678 18.926L4.57483 18.922Z" fill="#B9B9B9"/>
<path id="Path 4010" d="M5.69018 2.09052C5.85357 1.49018 6.20987 0.960254 6.70422 0.582466C7.19857 0.204678 7.80348 0 8.42565 0C9.04783 0 9.65274 0.204678 10.1471 0.582466C10.6414 0.960254 10.9978 1.49018 11.1612 2.09052C11.6242 2.09052 12.0912 2.09052 12.5612 2.09052C12.6656 2.07967 12.7711 2.09215 12.8702 2.12708C12.9692 2.162 13.0592 2.21848 13.1338 2.29245C13.2083 2.36642 13.2655 2.45601 13.3012 2.55477C13.3369 2.65353 13.3502 2.75899 13.3401 2.86352C13.3401 3.52085 13.3401 4.17852 13.3401 4.83652C13.3497 4.93944 13.3363 5.0432 13.301 5.14034C13.2657 5.23749 13.2093 5.3256 13.1359 5.39836C13.0624 5.47112 12.9738 5.52671 12.8763 5.56114C12.7789 5.59558 12.675 5.60799 12.5721 5.59751C9.81014 5.59751 7.04782 5.59751 4.28515 5.59751C4.1825 5.60695 4.07905 5.59377 3.98205 5.55888C3.88505 5.524 3.79688 5.46827 3.72375 5.39561C3.65062 5.32296 3.59429 5.23515 3.55877 5.13838C3.52325 5.04161 3.50941 4.93822 3.51818 4.83551C3.51818 4.16884 3.51818 3.50385 3.51818 2.84052C3.51076 2.73965 3.52526 2.63837 3.56072 2.54366C3.59619 2.44894 3.65178 2.36303 3.72363 2.29185C3.79547 2.22066 3.88188 2.16589 3.97692 2.13131C4.07197 2.09673 4.17337 2.08315 4.27416 2.09151C4.74616 2.08851 5.22118 2.09052 5.69018 2.09052Z" fill="#B9B9B9"/>
</g>
</g>
</g>
<defs>
<clipPath id="clip0_502_110">
<rect width="16.851" height="22.434" fill="white"/>
</clipPath>
</defs>
</svg>
