<svg xmlns="http://www.w3.org/2000/svg" width="21" height="22.5" viewBox="0 0 21 22.5">
  <g id="Group_410" data-name="Group 410" transform="translate(-353 -33)">
    <path id="Icon_awesome-bell" data-name="Icon awesome-bell" d="M9.844,22.5a2.812,2.812,0,0,0,2.811-2.812H7.033A2.812,2.812,0,0,0,9.844,22.5Zm9.465-6.579c-.849-.912-2.438-2.285-2.438-6.78a6.94,6.94,0,0,0-5.622-6.819V1.406a1.405,1.405,0,1,0-2.811,0v.916A6.94,6.94,0,0,0,2.816,9.141c0,4.5-1.589,5.868-2.438,6.78A1.373,1.373,0,0,0,0,16.875a1.407,1.407,0,0,0,1.411,1.406H18.277a1.407,1.407,0,0,0,1.411-1.406A1.372,1.372,0,0,0,19.309,15.921Z" transform="translate(353 33)" fill="#223850"/>
    <g id="Ellipse_5" data-name="Ellipse 5" transform="translate(363 33)" fill="#ff5700" stroke="#fff" stroke-width="1">
      <circle cx="5.5" cy="5.5" r="5.5" stroke="none"/>
      <circle cx="5.5" cy="5.5" r="5" fill="none"/>
    </g>
  </g>
</svg>
