<svg width="22" height="24" viewBox="0 0 22 24" fill="none" xmlns="http://www.w3.org/2000/svg">
<path fill-rule="evenodd" clip-rule="evenodd" d="M2.77018 8.093C2.77018 5.9466 3.62283 3.88812 5.14056 2.37038C6.6583 0.852653 8.71678 0 10.8632 0C13.0096 0 15.0681 0.852653 16.5858 2.37038C18.1035 3.88812 18.9562 5.9466 18.9562 8.093V8.993C18.9519 11.4376 19.8569 13.7965 21.4952 15.611C21.5934 15.7202 21.6635 15.8517 21.6992 15.9942C21.735 16.1366 21.7353 16.2857 21.7002 16.4283C21.6651 16.5709 21.5956 16.7028 21.4978 16.8124C21.4 16.9219 21.2769 17.0059 21.1392 17.057C19.2641 17.749 17.3234 18.2482 15.3472 18.547C15.3997 19.1677 15.3227 19.7925 15.1212 20.3819C14.9197 20.9713 14.598 21.5125 14.1765 21.9711C13.755 22.4298 13.2429 22.7959 12.6725 23.0464C12.1022 23.2968 11.4861 23.4261 10.8632 23.4261C10.2403 23.4261 9.62415 23.2968 9.05382 23.0464C8.48348 22.7959 7.97136 22.4298 7.54986 21.9711C7.12837 21.5125 6.80668 20.9713 6.60516 20.3819C6.40365 19.7925 6.3267 19.1677 6.37918 18.547C4.40292 18.2473 2.46226 17.7474 0.587178 17.055C0.449564 17.004 0.326513 16.9201 0.228748 16.8106C0.130983 16.7012 0.0614716 16.5695 0.0262704 16.427C-0.00893086 16.2845 -0.00875331 16.1356 0.0267873 15.9932C0.0623278 15.8508 0.132153 15.7192 0.230178 15.61C1.86864 13.7956 2.77395 11.4367 2.77018 8.992V8.093ZM8.17018 18.764C8.14896 19.1311 8.20294 19.4986 8.32881 19.8441C8.45468 20.1896 8.64979 20.5057 8.90217 20.7731C9.15456 21.0405 9.45889 21.2535 9.79653 21.3991C10.1342 21.5447 10.498 21.6198 10.8657 21.6198C11.2334 21.6198 11.5972 21.5447 11.9348 21.3991C12.2725 21.2535 12.5768 21.0405 12.8292 20.7731C13.0816 20.5057 13.2767 20.1896 13.4025 19.8441C13.5284 19.4986 13.5824 19.1311 13.5612 18.764C11.7678 18.9256 9.96355 18.9256 8.17018 18.764Z" fill="#03384C"/>
</svg>
