<svg id="Group_753" data-name="Group 753" xmlns="http://www.w3.org/2000/svg" width="27.452" height="22.591" viewBox="0 0 27.452 22.591">
  <path id="Subtraction_1" data-name="Subtraction 1" d="M17.382,21.448H1.65A1.651,1.651,0,0,1,0,19.8V4.95A1.651,1.651,0,0,1,1.65,3.3h.824V18.251a.722.722,0,1,0,1.444,0V1.65A1.48,1.48,0,0,1,5.465.1L19.8,0a1.652,1.652,0,0,1,1.65,1.65V9.313l-5.863,2.612a.723.723,0,0,0-.633-.376H7.321a.722.722,0,1,0,0,1.444h7.63a.715.715,0,0,0,.259-.048,17.04,17.04,0,0,0-.1,2.729H7.321a.722.722,0,1,0,0,1.444h7.936a7.009,7.009,0,0,0,2.123,4.329ZM7.321,7.424a.722.722,0,1,0,0,1.444H17.426a.722.722,0,1,0,0-1.444Zm0-4.124a.722.722,0,1,0,0,1.444h4.331a.722.722,0,1,0,0-1.444Z" transform="translate(0)" fill="#29b6f6"/>
  <path id="Icon_material-verified-user" data-name="Icon material-verified-user" d="M9.446,1.5,4.5,3.7V7A6.839,6.839,0,0,0,9.446,13.59,6.839,6.839,0,0,0,14.392,7V3.7Zm-1.1,8.793-2.2-2.2.775-.775L8.347,8.738l3.622-3.622.775.78Z" transform="translate(13.06 9)" fill="#29b6f6"/>
</svg>
