<svg xmlns="http://www.w3.org/2000/svg" width="20.688" height="22.5" viewBox="0 0 20.688 22.5">
  <path id="Icon_awesome-bell" data-name="Icon awesome-bell" d="M10.344,22.5A2.886,2.886,0,0,0,13.3,19.688H7.39A2.886,2.886,0,0,0,10.344,22.5Zm9.946-6.579c-.892-.912-2.561-2.285-2.561-6.78a7.039,7.039,0,0,0-5.908-6.819V1.406a1.479,1.479,0,0,0-2.954,0v.916A7.039,7.039,0,0,0,2.959,9.141c0,4.5-1.669,5.868-2.561,6.78a1.337,1.337,0,0,0-.4.954,1.444,1.444,0,0,0,1.482,1.406H19.205a1.443,1.443,0,0,0,1.482-1.406A1.337,1.337,0,0,0,20.29,15.921Z" transform="translate(0)" fill="#29b6f6"/>
</svg>
