<svg xmlns="http://www.w3.org/2000/svg" width="23.049" height="21.137" viewBox="0 0 23.049 21.137">
  <g id="Group_11517" data-name="Group 11517" transform="translate(-2944.695 -676.791)">
    <path id="Path_6331" data-name="Path 6331" d="M2958.678,697.928h-1.086c.441-.056.958-.1,1.467-.19a10.258,10.258,0,0,0,4.368-1.883,10.411,10.411,0,0,0,4.049-6.182,9.8,9.8,0,0,0,.244-1.8c0-.068.016-.136.024-.2v-.645q-.023-.251-.046-.5a10.472,10.472,0,0,0-3.632-7.153,10.206,10.206,0,0,0-5.265-2.436c-.393-.061-.793-.081-1.19-.12-.065-.006-.129-.015-.193-.023h-.553c-.164.015-.327.033-.49.045a10.3,10.3,0,0,0-4.548,1.436,10.423,10.423,0,0,0-4.842,6.346c-.049.173-.046.174-.23.174h-.968a1.017,1.017,0,0,0-1.068.854.492.492,0,0,1-.024.064v.208a2.743,2.743,0,0,0,.157.4q1.074,1.853,2.161,3.7a1.029,1.029,0,0,0,1.817,0q1.071-1.828,2.14-3.658a1.012,1.012,0,0,0-.886-1.566c-.28,0-.561,0-.841,0-.041,0-.081,0-.136-.006.016-.061.027-.109.042-.155a7.991,7.991,0,0,1,1-2.016,8.488,8.488,0,0,1,10.9-2.807,8.482,8.482,0,1,1-9.859,13.551,1.019,1.019,0,0,0-.65-.313,1.036,1.036,0,0,0-.817,1.781,10.483,10.483,0,0,0,2.83,2.016,10.313,10.313,0,0,0,3.179.967c.361.048.724.075,1.1.113h-.147" fill="#29b6f6"/>
    <path id="Path_6332" data-name="Path 6332" d="M3317.456,834.251c-.04-.008-.062-.01-.083-.017a1.883,1.883,0,0,1-1.216-1.081c-.122-.285-.221-.581-.324-.874a.8.8,0,0,0-.651-.565,1.429,1.429,0,0,0-.355-.017.951.951,0,0,0-.851.92,2.56,2.56,0,0,0,.379,1.335,3.582,3.582,0,0,0,2.227,1.651c.28.076.57.117.876.179v.119c0,.3,0,.607,0,.91a.455.455,0,1,0,.907,0c0-.269,0-.538,0-.807,0-.238,0-.238.229-.273l.1-.016a4.165,4.165,0,0,0,1.634-.56,3.155,3.155,0,0,0,1.5-2.522,2.952,2.952,0,0,0-1.822-3.042c-.492-.2-1.01-.34-1.519-.5-.1-.031-.131-.068-.13-.171,0-.957,0-1.913,0-2.87v-.142c.061.019.1.029.146.045a1.712,1.712,0,0,1,1.108,1.218,1.047,1.047,0,0,0,.43.658.972.972,0,0,0,1.036-.024.916.916,0,0,0,.382-1,2.921,2.921,0,0,0-.882-1.495,3.037,3.037,0,0,0-1.705-.791c-.168-.029-.338-.049-.514-.074V824.3c0-.3,0-.607,0-.911a.451.451,0,0,0-.2-.4.451.451,0,0,0-.7.391c0,.323,0,.645,0,.968,0,.1-.032.123-.123.132a4.569,4.569,0,0,0-1.132.253,2.765,2.765,0,0,0-1.695,1.526,3.324,3.324,0,0,0-.235,1.534,2.6,2.6,0,0,0,1.353,2.231,7.389,7.389,0,0,0,1.711.669c.087.025.122.057.122.155,0,1.095,0,2.19,0,3.284Zm.915-3.254a2.408,2.408,0,0,1,.267.089c.252.119.511.228.75.371a1.272,1.272,0,0,1,.61,1.309,1.645,1.645,0,0,1-1.175,1.436,3.969,3.969,0,0,1-.387.11.289.289,0,0,1-.065,0Zm-.922-2.221a.226.226,0,0,1-.067-.009c-.241-.118-.489-.223-.719-.36a1.2,1.2,0,0,1-.547-1.253,1.14,1.14,0,0,1,.535-.906,1.9,1.9,0,0,1,.8-.348Z" transform="translate(-360.768 -142.751)" fill="#29b6f6"/>
  </g>
</svg>
