<svg width="66" height="66" viewBox="0 0 66 66" fill="none" xmlns="http://www.w3.org/2000/svg">
<path opacity="0.5" d="M32.6878 65.3756C50.7407 65.3756 65.3756 50.7407 65.3756 32.6878C65.3756 14.6348 50.7407 0 32.6878 0C14.6348 0 0 14.6348 0 32.6878C0 50.7407 14.6348 65.3756 32.6878 65.3756Z" fill="#E6EAF0"/>
<path d="M14 45.7998V24.9141H48.7372V31.9652C46.6744 30.282 44.1131 29.3279 41.4518 29.2514C42.1231 28.8602 42.3542 28.4238 42.2214 27.913C42.1528 27.6478 41.9895 27.4168 41.7622 27.2637C41.535 27.1107 41.2596 27.0461 40.988 27.0822C40.3499 27.0822 39.7114 27.0762 39.0761 27.0822C38.9278 27.0726 38.7791 27.0937 38.6392 27.144C38.4994 27.1943 38.3714 27.2728 38.2631 27.3746C38.1549 27.4764 38.0687 27.5994 38.01 27.7359C37.9512 27.8724 37.9211 28.0195 37.9215 28.1681C37.922 28.3167 37.953 28.4636 38.0126 28.5998C38.0722 28.7359 38.1591 28.8584 38.2679 28.9595C38.3768 29.0607 38.5053 29.1384 38.6454 29.1879C38.7856 29.2373 38.9344 29.2574 39.0826 29.247C39.4584 29.253 39.8343 29.247 40.2095 29.247C37.7497 29.4876 35.4189 30.4618 33.5195 32.0433C33.1453 31.5894 32.941 31.4348 32.5608 31.4266C31.7906 31.4091 31.0187 31.3998 30.2496 31.4266C29.9754 31.4431 29.7183 31.5653 29.5325 31.7676C29.3466 31.9698 29.2465 32.2363 29.2532 32.5109C29.2577 32.7784 29.3609 33.0349 29.543 33.2309C29.7251 33.427 29.9733 33.5487 30.2398 33.5728C30.431 33.5909 30.6221 33.581 30.8172 33.5816C31.1815 33.5816 31.5453 33.5816 31.9097 33.5816C31.5071 34.2371 31.1236 34.8467 30.7625 35.4667C30.7235 35.5577 30.6577 35.6346 30.5739 35.6873C30.4901 35.74 30.3922 35.766 30.2933 35.7617C30.08 35.7596 29.8715 35.8254 29.698 35.9495C29.5245 36.0736 29.395 36.2496 29.3281 36.4522C29.2442 36.6353 29.2218 36.8406 29.2641 37.0374C29.3064 37.2343 29.4113 37.4122 29.5629 37.5447C29.6457 37.6095 29.7041 37.7005 29.7285 37.8028C29.7529 37.9051 29.7419 38.0126 29.6973 38.1079C29.0806 40.2255 29.104 42.4783 29.7645 44.5827C29.9721 45.2551 30.2561 45.9041 30.5162 46.5886H30.0884C25.212 46.5886 20.335 46.5804 15.4585 46.599C15.1618 46.6401 14.8597 46.5846 14.597 46.4407C14.3343 46.2967 14.125 46.072 14 45.7998ZM22.7768 29.2481C23.1258 29.2481 23.4754 29.2574 23.8239 29.2481C23.9677 29.2518 24.1108 29.2267 24.2448 29.1744C24.3788 29.122 24.5009 29.0434 24.6041 28.9432C24.7073 28.843 24.7894 28.7232 24.8457 28.5908C24.902 28.4584 24.9312 28.3162 24.9317 28.1723C24.9322 28.0285 24.904 27.886 24.8487 27.7532C24.7934 27.6204 24.7121 27.5 24.6096 27.3991C24.5071 27.2982 24.3855 27.2187 24.2519 27.1654C24.1183 27.1121 23.9754 27.086 23.8316 27.0887C23.1094 27.0734 22.3871 27.0734 21.6646 27.0887C21.5208 27.0851 21.3777 27.1101 21.2437 27.1625C21.1098 27.2149 20.9876 27.2935 20.8844 27.3938C20.7813 27.494 20.6992 27.6138 20.6429 27.7462C20.5867 27.8786 20.5575 28.0209 20.557 28.1648C20.5566 28.3086 20.5848 28.4511 20.6402 28.5839C20.6955 28.7166 20.7769 28.837 20.8794 28.9379C20.9819 29.0388 21.1035 29.1183 21.2371 29.1715C21.3707 29.2248 21.5137 29.2508 21.6575 29.2481C22.03 29.2596 22.4037 29.2481 22.7768 29.2481ZM31.412 29.2481C31.7731 29.2481 32.1347 29.2574 32.4958 29.2481C32.6396 29.2518 32.7827 29.2268 32.9167 29.1745C33.0507 29.1222 33.1728 29.0436 33.2761 28.9434C33.3793 28.8432 33.4614 28.7234 33.5177 28.5911C33.574 28.4587 33.6033 28.3164 33.6038 28.1726C33.6043 28.0288 33.5762 27.8863 33.5209 27.7535C33.4656 27.6207 33.3844 27.5003 33.2819 27.3993C33.1795 27.2983 33.0579 27.2189 32.9243 27.1655C32.7907 27.1122 32.6478 27.0861 32.504 27.0887C31.7819 27.0731 31.0595 27.0731 30.337 27.0887C30.1932 27.085 30.0501 27.11 29.9161 27.1623C29.7822 27.2147 29.66 27.2932 29.5568 27.3934C29.4535 27.4936 29.3714 27.6134 29.3151 27.7457C29.2588 27.8781 29.2296 28.0204 29.229 28.1642C29.2285 28.3081 29.2567 28.4506 29.3119 28.5833C29.3672 28.7161 29.4485 28.8365 29.5509 28.9375C29.6534 29.0385 29.7749 29.118 29.9085 29.1713C30.0421 29.2246 30.185 29.2507 30.3288 29.2481C30.6893 29.2596 31.0488 29.2481 31.412 29.2481ZM22.7265 33.5843C23.0876 33.5843 23.4492 33.593 23.8103 33.5843C23.9543 33.5874 24.0974 33.5616 24.2313 33.5086C24.3652 33.4555 24.4871 33.3763 24.5899 33.2755C24.6928 33.1747 24.7744 33.0543 24.8301 32.9215C24.8858 32.7887 24.9144 32.6461 24.9142 32.5021C24.914 32.3581 24.8851 32.2156 24.8291 32.0829C24.773 31.9503 24.6911 31.8301 24.588 31.7296C24.4849 31.629 24.3628 31.5501 24.2287 31.4974C24.0947 31.4447 23.9515 31.4193 23.8075 31.4228C23.0978 31.4104 22.3876 31.4104 21.6771 31.4228C21.5352 31.4229 21.3948 31.4511 21.2638 31.5055C21.1327 31.56 21.0137 31.6397 20.9135 31.7402C20.8133 31.8407 20.7339 31.9599 20.6797 32.091C20.6256 32.2222 20.5978 32.3627 20.598 32.5046C20.5982 32.6465 20.6263 32.787 20.6808 32.918C20.7352 33.049 20.815 33.168 20.9154 33.2683C21.0159 33.3685 21.1351 33.4479 21.2663 33.502C21.3974 33.5562 21.538 33.5839 21.6799 33.5838C22.0289 33.5936 22.3785 33.5854 22.7276 33.5854L22.7265 33.5843ZM22.744 35.7546C22.3829 35.7546 22.0213 35.7448 21.6602 35.7546C21.3738 35.7546 21.0992 35.8683 20.8967 36.0708C20.6943 36.2733 20.5805 36.5479 20.5805 36.8343C20.5805 37.1206 20.6943 37.3953 20.8967 37.5977C21.0992 37.8002 21.3738 37.914 21.6602 37.914C22.3823 37.9289 23.1047 37.9289 23.8272 37.914C23.971 37.9172 24.1141 37.8917 24.2479 37.8389C24.3817 37.7861 24.5036 37.707 24.6065 37.6065C24.7094 37.5059 24.7911 37.3858 24.8469 37.2532C24.9027 37.1206 24.9315 36.9781 24.9315 36.8343C24.9315 36.6904 24.9027 36.548 24.8469 36.4154C24.7911 36.2828 24.7094 36.1627 24.6065 36.0621C24.5036 35.9615 24.3817 35.8825 24.2479 35.8297C24.1141 35.7769 23.971 35.7514 23.8272 35.7546C23.4683 35.7453 23.1067 35.7557 22.7456 35.7557L22.744 35.7546ZM22.7096 42.2551C23.0827 42.2551 23.4563 42.2655 23.8294 42.2551C23.9712 42.2548 24.1115 42.2265 24.2424 42.172C24.3733 42.1174 24.4921 42.0376 24.5921 41.9371C24.6922 41.8366 24.7714 41.7174 24.8254 41.5863C24.8793 41.4552 24.907 41.3147 24.9066 41.1729C24.9063 41.0312 24.8781 40.8908 24.8235 40.76C24.7689 40.6291 24.6891 40.5102 24.5887 40.4102C24.4882 40.3102 24.369 40.2309 24.2378 40.177C24.1067 40.123 23.9663 40.0954 23.8245 40.0957C23.1023 40.0812 22.38 40.0812 21.6575 40.0957C21.5136 40.0928 21.3707 40.1187 21.237 40.1718C21.1033 40.2249 20.9816 40.3042 20.879 40.405C20.7763 40.5059 20.6949 40.6262 20.6394 40.7589C20.5839 40.8916 20.5555 41.0341 20.5558 41.1779C20.5561 41.3218 20.5852 41.4641 20.6413 41.5966C20.6974 41.729 20.7794 41.849 20.8825 41.9493C20.9855 42.0497 21.1076 42.1284 21.2416 42.1809C21.3755 42.2334 21.5186 42.2586 21.6624 42.2551C22.012 42.2666 22.3632 42.2573 22.7107 42.2567L22.7096 42.2551Z" fill="#03384C"/>
<path d="M42.252 16.2481C44.0465 16.2481 45.841 16.2399 47.6354 16.2481C47.775 16.2366 47.9154 16.2537 48.0482 16.2984C48.1809 16.3431 48.3031 16.4145 48.4073 16.5081C48.5114 16.6017 48.5954 16.7156 48.654 16.8427C48.7127 16.9699 48.7447 17.1078 48.7481 17.2478C48.7694 19.0646 48.7558 20.882 48.7558 22.7492H14V17.0386C14.0875 16.8014 14.2465 16.5972 14.455 16.4544C14.6635 16.3115 14.9113 16.2369 15.1641 16.241C16.97 16.2503 18.7754 16.2476 20.5808 16.2492L20.571 16.2383C20.571 17.2962 20.5726 18.3541 20.5759 19.4121C20.5657 19.5589 20.5856 19.7062 20.6343 19.8452C20.6829 19.9841 20.7594 20.1116 20.8589 20.22C20.9585 20.3285 21.079 20.4155 21.2133 20.4758C21.3476 20.5361 21.4927 20.5684 21.6399 20.5709C21.787 20.5733 21.9331 20.5457 22.0693 20.4898C22.2055 20.4339 22.3288 20.3509 22.4319 20.2458C22.5349 20.1407 22.6155 20.0158 22.6687 19.8785C22.7219 19.7413 22.7466 19.5946 22.7412 19.4476C22.7544 18.378 22.7473 17.3079 22.7494 16.2383L22.7391 16.2492H27.0851L27.0753 16.2383C27.0753 17.2962 27.0769 18.3541 27.0802 19.4121C27.0701 19.5589 27.0899 19.7062 27.1386 19.8452C27.1873 19.9841 27.2637 20.1116 27.3632 20.22C27.4628 20.3285 27.5834 20.4155 27.7176 20.4758C27.8519 20.5361 27.997 20.5684 28.1442 20.5709C28.2913 20.5733 28.4374 20.5457 28.5736 20.4898C28.7098 20.4339 28.8332 20.3509 28.9362 20.2458C29.0392 20.1407 29.1198 20.0158 29.173 19.8785C29.2262 19.7413 29.2509 19.5946 29.2456 19.4476C29.2587 18.378 29.2521 17.3079 29.2538 16.2383L29.2439 16.2492H33.59L33.5801 16.2383C33.5801 17.2962 33.5816 18.3541 33.5845 19.4121C33.5744 19.5589 33.5942 19.7062 33.6429 19.8452C33.6916 19.9841 33.768 20.1116 33.8675 20.22C33.9671 20.3285 34.0877 20.4155 34.2219 20.4758C34.3562 20.5361 34.5013 20.5684 34.6485 20.5709C34.7957 20.5733 34.9418 20.5457 35.0779 20.4898C35.2141 20.4339 35.3375 20.3509 35.4405 20.2458C35.5436 20.1407 35.6241 20.0158 35.6773 19.8785C35.7305 19.7413 35.7552 19.5946 35.7499 19.4476C35.7624 18.378 35.7559 17.3079 35.7581 16.2383L35.7482 16.2492H40.0943L40.0845 16.2383C40.0845 17.2964 40.0894 18.3539 40.0888 19.4121C40.0787 19.5589 40.0986 19.7062 40.1472 19.8452C40.1959 19.9841 40.2723 20.1116 40.3719 20.22C40.4714 20.3285 40.592 20.4155 40.7262 20.4758C40.8605 20.5361 41.0056 20.5684 41.1528 20.5709C41.3 20.5733 41.4461 20.5457 41.5822 20.4898C41.7184 20.4339 41.8418 20.3509 41.9448 20.2458C42.0479 20.1407 42.1285 20.0158 42.1816 19.8785C42.2348 19.7413 42.2595 19.5946 42.2542 19.4476C42.2673 18.378 42.2608 17.3079 42.2624 16.2383L42.252 16.2481Z" fill="#03384C"/>
<path d="M21.951 14C22.2273 14.1073 22.4578 14.3071 22.6035 14.5652C22.7491 14.8234 22.8007 15.124 22.7497 15.4159C22.7256 15.6891 22.7426 15.9693 22.7409 16.2457L22.7508 16.2348H20.5722L20.5821 16.2457C20.5821 15.9688 20.5973 15.6907 20.5739 15.4159C20.5228 15.124 20.5745 14.8234 20.7201 14.5652C20.8657 14.3071 21.0962 14.1073 21.3725 14H21.951Z" fill="#03384C"/>
<path d="M28.4549 14C28.7311 14.1073 28.9617 14.3071 29.1073 14.5652C29.2529 14.8234 29.3046 15.124 29.2535 15.4159C29.2295 15.6891 29.2464 15.9693 29.2448 16.2457L29.2546 16.2348H27.0766L27.0864 16.2457C27.0864 15.9688 27.1017 15.6907 27.0777 15.4159C27.0267 15.124 27.0785 14.8234 27.224 14.5653C27.3696 14.3072 27.6001 14.1074 27.8764 14H28.4549Z" fill="#03384C"/>
<path d="M34.9583 14C35.2347 14.1072 35.4653 14.3069 35.611 14.5651C35.7568 14.8232 35.8085 15.1239 35.7575 15.4159C35.7334 15.6891 35.7504 15.9693 35.7487 16.2457L35.7586 16.2348H33.5806L33.5904 16.2457C33.5904 15.9688 33.6057 15.6907 33.5817 15.4159C33.5306 15.124 33.5823 14.8234 33.7279 14.5652C33.8735 14.3071 34.1041 14.1073 34.3803 14H34.9583Z" fill="#03384C"/>
<path d="M40.0943 16.2457C40.0943 15.9688 40.1102 15.6907 40.0856 15.4159C40.0345 15.124 40.0862 14.8234 40.2318 14.5652C40.3774 14.3071 40.608 14.1073 40.8842 14H41.4627C41.7389 14.1074 41.9694 14.3072 42.115 14.5653C42.2606 14.8234 42.3123 15.124 42.2614 15.4159C42.2374 15.6891 42.2543 15.9693 42.2527 16.2457L42.2625 16.2348H40.0845L40.0943 16.2457Z" fill="#03384C"/>
<path d="M41.2839 31.4883C43.2136 31.4964 45.0974 32.0767 46.6972 33.1556C48.297 34.2346 49.5408 35.7638 50.2713 37.5498C51.0019 39.3358 51.1863 41.2984 50.8012 43.1892C50.4162 45.08 49.479 46.8142 48.1082 48.1723C46.7374 49.5304 44.9946 50.4514 43.1003 50.8189C41.206 51.1863 39.2452 50.9836 37.4661 50.2365C35.687 49.4894 34.1694 48.2314 33.1053 46.6217C32.0413 45.0119 31.4786 43.1228 31.4884 41.1931C31.51 38.6102 32.5519 36.1406 34.3868 34.3227C36.2217 32.5047 38.7009 31.4859 41.2839 31.4883ZM42.3257 40.1591C42.3257 39.0414 42.3344 37.9828 42.3224 36.9236C42.3251 36.7816 42.2998 36.6405 42.2478 36.5084C42.1958 36.3762 42.1182 36.2557 42.0195 36.1536C41.9207 36.0516 41.8028 35.9701 41.6725 35.9138C41.5421 35.8575 41.4019 35.8275 41.2599 35.8256C41.1206 35.8212 40.9819 35.8444 40.8515 35.8937C40.7212 35.943 40.6019 36.0175 40.5004 36.113C40.399 36.2085 40.3173 36.3231 40.2602 36.4502C40.203 36.5773 40.1715 36.7144 40.1674 36.8537C40.1481 38.334 40.1481 39.8144 40.1674 41.2947C40.1667 41.559 40.269 41.8132 40.4525 42.0033C40.6361 42.1934 40.8865 42.3044 41.1506 42.313C42.6547 42.3359 44.1589 42.3359 45.6633 42.313C45.9381 42.299 46.1964 42.1778 46.3829 41.9755C46.5694 41.7732 46.6691 41.5058 46.6608 41.2308C46.6566 40.9635 46.554 40.7072 46.3725 40.5108C46.1911 40.3145 45.9437 40.192 45.6775 40.1667C45.5224 40.1514 45.3651 40.1585 45.2083 40.1585L42.3257 40.1591Z" fill="#03384C"/>
</svg>
