<svg width="66" height="66" viewBox="0 0 66 66" fill="none" xmlns="http://www.w3.org/2000/svg">
<g opacity="0.5">
<path d="M32.6878 65.3756C50.7407 65.3756 65.3756 50.7407 65.3756 32.6878C65.3756 14.6348 50.7407 0 32.6878 0C14.6348 0 0 14.6348 0 32.6878C0 50.7407 14.6348 65.3756 32.6878 65.3756Z" fill="#CFD7E2"/>
</g>
<path d="M32.6843 65.3751C25.1418 65.3728 17.8321 62.7628 11.994 57.9873C6.1559 53.2118 2.1485 46.5647 0.650954 39.1724C-0.84659 31.7801 0.257845 24.0974 3.77709 17.4263C7.29633 10.7552 13.0139 5.5061 19.9608 2.56855C23.986 0.865255 28.3135 -0.00834145 32.6843 6.0027e-05V7.61601C27.7255 7.61601 22.8782 9.08643 18.7551 11.8413C14.6321 14.5962 11.4186 18.5119 9.52096 23.0931C7.62331 27.6744 7.12677 32.7155 8.09413 37.5789C9.06148 42.4424 11.4493 46.9097 14.9556 50.4161C18.4619 53.9225 22.9292 56.3104 27.7926 57.2779C32.6561 58.2453 37.6972 57.7489 42.2784 55.8514C46.8597 53.9538 50.7755 50.7404 53.5305 46.6174C56.2855 42.4945 57.756 37.6471 57.7561 32.6884C57.7561 32.5819 57.7561 32.4737 57.7561 32.3666H65.372V32.4057C65.372 32.4997 65.372 32.5942 65.372 32.689C65.3756 36.9826 64.5326 41.2348 62.8911 45.2022C61.2497 49.1696 58.842 52.7745 55.806 55.8105C52.7699 58.8465 49.165 61.2541 45.1975 62.8955C41.23 64.5369 36.9779 65.3798 32.6843 65.3762V65.3751Z" fill="url(#paint0_linear_97_7646)"/>
<path d="M23.8633 31.8857C23.8633 32.7835 23.7744 33.5833 23.5967 34.2852C23.4189 34.9824 23.1592 35.5749 22.8174 36.0625C22.4756 36.5456 22.0586 36.9147 21.5664 37.1699C21.0742 37.4206 20.5137 37.5459 19.8848 37.5459C19.2376 37.5459 18.668 37.432 18.1758 37.2041V36.1309C18.7181 36.4362 19.2969 36.5889 19.9121 36.5889C20.3542 36.5889 20.7484 36.4977 21.0947 36.3154C21.4456 36.1331 21.7419 35.8688 21.9834 35.5225C22.2249 35.1715 22.4095 34.7409 22.5371 34.2305C22.6647 33.7201 22.7285 33.1344 22.7285 32.4736H22.7012C22.2819 33.3167 21.5527 33.7383 20.5137 33.7383C20.0944 33.7383 19.7093 33.6654 19.3584 33.5195C19.0075 33.3691 18.7044 33.1595 18.4492 32.8906C18.194 32.6172 17.9958 32.2936 17.8545 31.9199C17.7132 31.5462 17.6426 31.1338 17.6426 30.6826C17.6426 30.1995 17.7201 29.7575 17.875 29.3564C18.0345 28.9554 18.2533 28.6113 18.5312 28.3242C18.8138 28.0326 19.1465 27.807 19.5293 27.6475C19.9167 27.488 20.3382 27.4082 20.7939 27.4082C21.2861 27.4082 21.7214 27.5085 22.0996 27.709C22.4824 27.9049 22.8037 28.1943 23.0635 28.5771C23.3232 28.9554 23.5215 29.4225 23.6582 29.9785C23.7949 30.5345 23.8633 31.1702 23.8633 31.8857ZM22.6533 30.8809C22.6533 30.5026 22.6032 30.1585 22.5029 29.8486C22.4072 29.5387 22.2728 29.2744 22.0996 29.0557C21.9264 28.8324 21.7191 28.6615 21.4775 28.543C21.2406 28.4199 20.9808 28.3584 20.6982 28.3584C20.4294 28.3584 20.1787 28.4131 19.9463 28.5225C19.7139 28.6273 19.5111 28.7777 19.3379 28.9736C19.1693 29.165 19.0348 29.3952 18.9346 29.6641C18.8389 29.9284 18.791 30.2178 18.791 30.5322C18.791 30.8786 18.8366 31.1885 18.9277 31.4619C19.0234 31.7354 19.1579 31.9678 19.3311 32.1592C19.5042 32.346 19.7116 32.4896 19.9531 32.5898C20.1992 32.6901 20.4704 32.7402 20.7666 32.7402C21.0264 32.7402 21.2702 32.6924 21.498 32.5967C21.7305 32.4964 21.931 32.3643 22.0996 32.2002C22.2728 32.0316 22.4072 31.8356 22.5029 31.6123C22.6032 31.3844 22.6533 31.1406 22.6533 30.8809ZM31.5195 32.4326C31.5195 33.2529 31.4443 33.9798 31.2939 34.6133C31.1481 35.2467 30.9339 35.7822 30.6514 36.2197C30.3734 36.6527 30.0293 36.9831 29.6191 37.2109C29.2135 37.4342 28.751 37.5459 28.2314 37.5459C27.7393 37.5459 27.2995 37.4388 26.9121 37.2246C26.5293 37.0059 26.2057 36.6891 25.9414 36.2744C25.6771 35.8597 25.4766 35.3516 25.3398 34.75C25.2031 34.1439 25.1348 33.4512 25.1348 32.6719C25.1348 31.8151 25.2054 31.0586 25.3467 30.4023C25.4925 29.7461 25.7044 29.1969 25.9824 28.7549C26.2604 28.3083 26.6045 27.9733 27.0146 27.75C27.4294 27.5221 27.9033 27.4082 28.4365 27.4082C30.4919 27.4082 31.5195 29.083 31.5195 32.4326ZM30.3711 32.542C30.3711 29.7529 29.708 28.3584 28.3818 28.3584C26.9827 28.3584 26.2832 29.778 26.2832 32.6172C26.2832 35.265 26.9691 36.5889 28.3408 36.5889C29.6943 36.5889 30.3711 35.2399 30.3711 32.542ZM34.8555 32.4873C34.181 32.4873 33.6432 32.2663 33.2422 31.8242C32.8411 31.3776 32.6406 30.7829 32.6406 30.04C32.6406 29.2288 32.8525 28.5908 33.2764 28.126C33.7002 27.6566 34.2721 27.4219 34.9922 27.4219C35.6895 27.4219 36.2295 27.6383 36.6123 28.0713C36.9997 28.5042 37.1934 29.1126 37.1934 29.8965C37.1934 30.6803 36.9769 31.3092 36.5439 31.7832C36.1156 32.2526 35.5527 32.4873 34.8555 32.4873ZM34.9512 28.1738C34.5182 28.1738 34.1764 28.3356 33.9258 28.6592C33.6751 28.9782 33.5498 29.418 33.5498 29.9785C33.5498 30.5299 33.6729 30.9606 33.9189 31.2705C34.165 31.5758 34.5 31.7285 34.9238 31.7285C35.3522 31.7285 35.6872 31.569 35.9287 31.25C36.1702 30.931 36.291 30.4889 36.291 29.9238C36.291 29.3724 36.1702 28.944 35.9287 28.6387C35.6917 28.3288 35.3659 28.1738 34.9512 28.1738ZM41.418 27.5723L35.1289 37.4434H34.1514L40.4336 27.5723H41.418ZM40.6934 37.5254C40.0189 37.5254 39.4811 37.3021 39.0801 36.8555C38.679 36.4089 38.4785 35.8164 38.4785 35.0781C38.4785 34.2669 38.6927 33.6266 39.1211 33.1572C39.5495 32.6833 40.1191 32.4463 40.8301 32.4463C41.5228 32.4463 42.0628 32.665 42.4502 33.1025C42.8376 33.54 43.0312 34.153 43.0312 34.9414C43.0312 35.7207 42.8148 36.3473 42.3818 36.8213C41.9535 37.2907 41.3906 37.5254 40.6934 37.5254ZM40.7891 33.2188C40.3516 33.2188 40.0075 33.3783 39.7568 33.6973C39.5107 34.0163 39.3877 34.4583 39.3877 35.0234C39.3877 35.5658 39.5107 35.9919 39.7568 36.3018C40.0029 36.6071 40.3379 36.7598 40.7617 36.7598C41.1901 36.7598 41.5251 36.6003 41.7666 36.2812C42.0081 35.9577 42.1289 35.5156 42.1289 34.9551C42.1289 34.3991 42.0081 33.9707 41.7666 33.6699C41.5296 33.3691 41.2038 33.2188 40.7891 33.2188Z" fill="black"/>
<defs>
<linearGradient id="paint0_linear_97_7646" x1="41" y1="58.5" x2="26" y2="9" gradientUnits="userSpaceOnUse">
<stop stop-color="#25B62C"/>
<stop offset="1" stop-color="#E6EAF0"/>
</linearGradient>
</defs>
</svg>
