<svg width="56" height="56" viewBox="0 0 56 56" fill="none" xmlns="http://www.w3.org/2000/svg">
<path d="M27.516 0.921875C22.0739 0.921875 16.7539 2.53566 12.2289 5.55916C7.70396 8.58265 4.17716 12.8801 2.09454 17.908C0.0119221 22.9358 -0.532986 28.4684 0.528725 33.806C1.59044 39.1436 4.21108 44.0464 8.05926 47.8946C11.9074 51.7428 16.8103 54.3635 22.1479 55.4252C27.4855 56.4869 33.018 55.942 38.0459 53.8593C43.0738 51.7767 47.3712 48.2499 50.3947 43.7249C53.4182 39.2 55.032 33.88 55.032 28.4379C55.0325 24.8243 54.3212 21.246 52.9385 17.9073C51.5559 14.5687 49.5291 11.5352 46.9739 8.97995C44.4187 6.42475 41.3852 4.39796 38.0466 3.01534C34.7079 1.63271 31.1296 0.92135 27.516 0.921875ZM34.488 38.3989L27.516 31.4269L20.544 38.3989C20.3477 38.5952 20.1146 38.7509 19.8581 38.8572C19.6016 38.9634 19.3267 39.0181 19.049 39.0181C18.7714 39.0181 18.4964 38.9634 18.2399 38.8572C17.9834 38.7509 17.7503 38.5952 17.554 38.3989C17.3577 38.2025 17.202 37.9695 17.0957 37.713C16.9894 37.4565 16.9348 37.1815 16.9348 36.9039C16.9348 36.6262 16.9894 36.3513 17.0957 36.0948C17.202 35.8383 17.3577 35.6052 17.554 35.4089L24.525 28.4379L17.555 21.4659C17.1585 21.0694 16.9358 20.5316 16.9358 19.9709C16.9358 19.4101 17.1585 18.8724 17.555 18.4759C17.9515 18.0794 18.4893 17.8566 19.05 17.8566C19.6107 17.8566 20.1485 18.0794 20.545 18.4759L27.516 25.4469L34.488 18.4749C34.8845 18.0784 35.4223 17.8556 35.983 17.8556C36.5437 17.8556 37.0815 18.0784 37.478 18.4749C37.8745 18.8714 38.0973 19.4091 38.0973 19.9699C38.0973 20.5306 37.8745 21.0684 37.478 21.4649L30.506 28.4369L37.478 35.4089C37.8721 35.8066 38.0933 36.3439 38.0933 36.9039C38.0933 37.4638 37.8721 38.0011 37.478 38.3989C37.2826 38.5969 37.0499 38.7542 36.7932 38.8615C36.5366 38.9688 36.2612 39.0241 35.983 39.0241C35.7048 39.0241 35.4294 38.9688 35.1728 38.8615C34.9161 38.7542 34.6834 38.5969 34.488 38.3989Z" fill="#B71C1C"/>
</svg>
