<svg width="66" height="66" viewBox="0 0 66 66" fill="none" xmlns="http://www.w3.org/2000/svg">
<path opacity="0.5" d="M32.6878 65.3756C50.7407 65.3756 65.3756 50.7407 65.3756 32.6878C65.3756 14.6348 50.7407 0 32.6878 0C14.6348 0 0 14.6348 0 32.6878C0 50.7407 14.6348 65.3756 32.6878 65.3756Z" fill="#E6EAF0"/>
<path d="M16.5661 32.4883H22.2147C22.4871 32.4883 22.7484 32.5965 22.941 32.7891C23.1336 32.9817 23.2418 33.2429 23.2418 33.5153V52.0018H15.5391V33.5153C15.5391 33.2429 15.6473 32.9817 15.8399 32.7891C16.0325 32.5965 16.2937 32.4883 16.5661 32.4883Z" fill="#03384C"/>
<path d="M43.7809 24.7812H49.4296C49.702 24.7812 49.9632 24.8895 50.1558 25.0821C50.3484 25.2747 50.4566 25.5359 50.4566 25.8083V51.9975H42.7539V25.8083C42.7539 25.5359 42.8621 25.2747 43.0547 25.0821C43.2473 24.8895 43.5085 24.7812 43.7809 24.7812Z" fill="#03384C"/>
<path d="M29.9177 14H36.0798C36.3522 14 36.6134 14.1082 36.806 14.3008C36.9986 14.4934 37.1068 14.7546 37.1068 15.027V52H28.8906V15.027C28.8906 14.7546 28.9988 14.4934 29.1914 14.3008C29.384 14.1082 29.6453 14 29.9177 14Z" fill="#03384C"/>
</svg>
