<svg xmlns="http://www.w3.org/2000/svg" xmlns:xlink="http://www.w3.org/1999/xlink" width="24" height="24" viewBox="0 0 24 24">
  <defs>
    <clipPath id="clip-path">
      <rect id="Rectangle_1347" data-name="Rectangle 1347" width="24" height="24" transform="translate(-10797 -7197)" fill="#fff" stroke="#707070" stroke-width="1"/>
    </clipPath>
  </defs>
  <g id="Mask_Group_17" data-name="Mask Group 17" transform="translate(10797 7197)" clip-path="url(#clip-path)">
    <path id="Path_6206" data-name="Path 6206" d="M12.287,2.25a1.966,1.966,0,0,0-1.939,1.642l-.1.575a.836.836,0,0,1-.542.637q-.254.1-.5.207a.836.836,0,0,1-.834-.067L7.9,4.905a1.965,1.965,0,0,0-2.532.21l-.255.255A1.965,1.965,0,0,0,4.905,7.9l.34.475a.836.836,0,0,1,.067.834q-.112.247-.207.5a.836.836,0,0,1-.637.542l-.576.1A1.965,1.965,0,0,0,2.25,12.287v.36a1.966,1.966,0,0,0,1.642,1.939l.575.1a.837.837,0,0,1,.637.542c.063.17.133.336.207.5a.836.836,0,0,1-.067.834l-.34.475a1.965,1.965,0,0,0,.21,2.532l.255.255a1.965,1.965,0,0,0,2.532.21l.475-.34a.836.836,0,0,1,.834-.067q.247.112.5.207a.837.837,0,0,1,.542.637l.1.576a1.964,1.964,0,0,0,1.938,1.641h.36a1.966,1.966,0,0,0,1.939-1.642l.1-.575a.836.836,0,0,1,.542-.637q.254-.1.5-.207a.836.836,0,0,1,.834.067l.475.34a1.965,1.965,0,0,0,2.532-.21l.255-.255a1.965,1.965,0,0,0,.21-2.532l-.34-.475a.836.836,0,0,1-.067-.834q.112-.247.207-.5a.837.837,0,0,1,.637-.542l.576-.1a1.965,1.965,0,0,0,1.641-1.939v-.36a1.966,1.966,0,0,0-1.642-1.939l-.575-.1a.836.836,0,0,1-.637-.542q-.1-.254-.207-.5a.836.836,0,0,1,.067-.834l.34-.475a1.965,1.965,0,0,0-.21-2.532l-.255-.255a1.965,1.965,0,0,0-2.532-.21l-.475.34a.836.836,0,0,1-.834.067q-.247-.112-.5-.207a.836.836,0,0,1-.542-.637l-.1-.576A1.965,1.965,0,0,0,12.647,2.25h-.36Zm.18,14.146a3.93,3.93,0,1,0-3.93-3.93,3.93,3.93,0,0,0,3.93,3.93Z" transform="translate(-10797.25 -7197.25)" fill="#fff" fill-rule="evenodd"/>
  </g>
</svg>
