<svg width="17" height="23" viewBox="0 0 17 23" fill="none" xmlns="http://www.w3.org/2000/svg">
<g clip-path="url(#clip0_82_2366)">
<path d="M16.3208 22.4321H0.537782C0.362951 22.3608 0.216315 22.2342 0.120241 22.0717C0.0241662 21.9092 -0.0160403 21.7196 0.00579985 21.5321C0.0151332 15.8181 0.0171146 10.1041 0.0117813 4.39009C0.0117813 4.31709 0.0117813 4.2441 0.0117813 4.1711C0.00946314 4.01501 0.0636588 3.86335 0.164369 3.74408C0.26508 3.62481 0.405548 3.54596 0.559816 3.52209C1.07282 3.48609 1.58882 3.5121 2.11682 3.5121C2.11682 4.0011 2.10882 4.4751 2.11682 4.9491C2.12607 5.4892 2.34463 6.00461 2.7265 6.38667C3.10838 6.76873 3.62372 6.98759 4.16382 6.9971C7.00682 7.0101 9.84984 7.0031 12.6918 6.9971C13.0971 6.99653 13.4919 6.86887 13.8208 6.6321C14.1021 6.44494 14.333 6.19141 14.4931 5.89388C14.6532 5.59634 14.7376 5.26397 14.7388 4.9261C14.7508 4.4541 14.7388 3.9821 14.7388 3.5181C14.7603 3.50842 14.7827 3.50104 14.8058 3.49609H15.9678C16.5958 3.49609 16.8448 3.74409 16.8448 4.36809C16.8448 10.0894 16.8468 15.8108 16.8508 21.5321C16.873 21.7194 16.8331 21.9088 16.7374 22.0714C16.6417 22.2339 16.4954 22.3606 16.3208 22.4321ZM10.1818 10.5061C10.9818 10.5061 11.7748 10.5121 12.5708 10.5001C12.7299 10.4968 12.8858 10.4546 13.0248 10.3771C13.1507 10.3003 13.2473 10.1835 13.299 10.0453C13.3506 9.90717 13.3544 9.75568 13.3098 9.6151C13.2672 9.46247 13.1741 9.32881 13.0457 9.23599C12.9172 9.14317 12.7611 9.09667 12.6028 9.1041C11.0028 9.1041 9.4028 9.1041 7.8028 9.1041C7.70308 9.09199 7.60194 9.10129 7.5061 9.13139C7.41027 9.1615 7.32195 9.21171 7.24707 9.27867C7.17219 9.34563 7.11249 9.4278 7.0719 9.51968C7.03131 9.61157 7.01079 9.71106 7.01172 9.81151C7.01265 9.91195 7.03499 10.011 7.07727 10.1022C7.11956 10.1933 7.18085 10.2743 7.25696 10.3399C7.33307 10.4054 7.42224 10.454 7.51862 10.4823C7.61499 10.5106 7.71632 10.518 7.8158 10.5041C8.6038 10.5068 9.39249 10.5078 10.1818 10.5071V10.5061ZM10.1908 13.3121C10.9908 13.3121 11.7838 13.3121 12.5798 13.3121C12.6718 13.3116 12.7626 13.2929 12.8474 13.2573C12.9321 13.2216 13.009 13.1696 13.0736 13.1042C13.1382 13.0389 13.1894 12.9614 13.2241 12.8763C13.2588 12.7912 13.2763 12.7 13.2758 12.6081C13.2753 12.5162 13.2567 12.4252 13.221 12.3405C13.1853 12.2558 13.1333 12.1789 13.0679 12.1143C13.0026 12.0497 12.9251 11.9985 12.84 11.9639C12.7548 11.9292 12.6637 11.9116 12.5718 11.9121C10.9791 11.9121 9.38612 11.9121 7.79279 11.9121C7.70086 11.9126 7.60994 11.9312 7.52521 11.9669C7.44048 12.0026 7.36364 12.0546 7.29901 12.1199C7.23438 12.1853 7.18325 12.2628 7.14856 12.3479C7.11387 12.433 7.09628 12.5242 7.0968 12.6161C7.09733 12.708 7.11595 12.7989 7.15161 12.8837C7.18728 12.9684 7.23932 13.0453 7.30469 13.1099C7.37006 13.1745 7.44747 13.2257 7.53259 13.2603C7.61772 13.295 7.70886 13.3126 7.80078 13.3121C8.59745 13.3141 9.39413 13.3144 10.1908 13.3131V13.3121ZM10.2038 14.7121H7.81482C7.71533 14.6982 7.614 14.7057 7.51764 14.7341C7.42128 14.7625 7.33211 14.8111 7.25604 14.8767C7.17998 14.9423 7.11876 15.0234 7.07654 15.1145C7.03432 15.2057 7.01203 15.3048 7.01117 15.4053C7.01031 15.5057 7.03088 15.6052 7.07153 15.697C7.11219 15.7889 7.17202 15.871 7.24695 15.9379C7.32188 16.0048 7.41019 16.055 7.50604 16.085C7.6019 16.1151 7.70309 16.1243 7.8028 16.1121C9.38813 16.1121 10.9738 16.1121 12.5598 16.1121C12.6595 16.1244 12.7607 16.1154 12.8566 16.0855C12.9525 16.0556 13.0409 16.0055 13.116 15.9388C13.191 15.872 13.2509 15.7899 13.2917 15.6981C13.3325 15.6063 13.3532 15.5069 13.3525 15.4064C13.3518 15.3059 13.3296 15.2068 13.2875 15.1156C13.2454 15.0244 13.1844 14.9432 13.1084 14.8775C13.0324 14.8118 12.9433 14.763 12.8469 14.7345C12.7506 14.706 12.6493 14.6983 12.5498 14.7121H10.2038ZM10.2038 17.5181C9.3998 17.5181 8.59612 17.5181 7.79279 17.5181C7.60714 17.5194 7.42966 17.5944 7.29932 17.7267C7.16898 17.8589 7.09645 18.0374 7.09778 18.2231C7.09911 18.4088 7.17412 18.5863 7.30634 18.7166C7.43855 18.8469 7.61715 18.9194 7.8028 18.9181C9.38813 18.9181 10.9738 18.9181 12.5598 18.9181C12.6595 18.9304 12.7607 18.9214 12.8566 18.8915C12.9525 18.8616 13.0409 18.8115 13.116 18.7448C13.191 18.678 13.2509 18.5959 13.2917 18.5041C13.3325 18.4123 13.3532 18.3129 13.3525 18.2124C13.3518 18.1119 13.3296 18.0128 13.2875 17.9216C13.2454 17.8304 13.1844 17.7492 13.1084 17.6835C13.0324 17.6178 12.9433 17.569 12.8469 17.5405C12.7506 17.512 12.6493 17.5043 12.5498 17.5181H10.2038ZM4.57782 10.5021C4.70982 10.5021 4.8408 10.5101 4.9718 10.5021C5.15745 10.501 5.33511 10.4263 5.46564 10.2942C5.59616 10.1622 5.66885 9.98375 5.66779 9.7981C5.66673 9.61244 5.59199 9.43482 5.45996 9.30429C5.32794 9.17377 5.14946 9.10104 4.96381 9.1021C4.70181 9.0891 4.43781 9.0901 4.17481 9.1021C3.99757 9.11104 3.83052 9.18755 3.70795 9.31589C3.58538 9.44422 3.51661 9.61464 3.51581 9.7921C3.51379 9.97321 3.58204 10.1481 3.70624 10.2799C3.83043 10.4117 4.00091 10.4903 4.18183 10.4991C4.31383 10.5121 4.44582 10.5061 4.57782 10.5061V10.5021ZM4.56683 13.3081C4.69783 13.3081 4.82982 13.3151 4.96082 13.3081C5.14647 13.3072 5.32416 13.2325 5.45477 13.1006C5.58539 12.9687 5.65822 12.7903 5.65729 12.6046C5.65636 12.4189 5.58176 12.2413 5.44983 12.1106C5.3179 11.98 5.13945 11.9072 4.9538 11.9081C4.6988 11.8971 4.44283 11.8981 4.18683 11.9081C4.00643 11.9158 3.83598 11.993 3.71112 12.1234C3.58627 12.2539 3.51662 12.4275 3.51679 12.6081C3.51669 12.7898 3.58728 12.9645 3.71362 13.0951C3.83997 13.2257 4.01215 13.3021 4.19379 13.3081C4.31779 13.3171 4.4378 13.3121 4.5658 13.3111L4.56683 13.3081ZM4.56683 14.7141C4.43583 14.7141 4.30379 14.7071 4.17279 14.7141C4.08087 14.7133 3.98971 14.7306 3.90448 14.7651C3.81925 14.7995 3.74165 14.8504 3.67609 14.9149C3.54369 15.045 3.46839 15.2224 3.4668 15.4081C3.46521 15.5937 3.53745 15.7724 3.6676 15.9048C3.79775 16.0372 3.97518 16.1125 4.16083 16.1141C4.43062 16.1291 4.70104 16.1291 4.97083 16.1141C5.14714 16.1007 5.31186 16.0211 5.43189 15.8912C5.55191 15.7614 5.61831 15.5909 5.6178 15.4141C5.61661 15.2367 5.54811 15.0664 5.42615 14.9375C5.30419 14.8087 5.13788 14.731 4.96082 14.7201C4.83282 14.7101 4.69979 14.7171 4.56879 14.7171L4.56683 14.7141ZM4.57483 18.9201C4.70583 18.9201 4.83781 18.9281 4.96881 18.9201C5.15446 18.9193 5.33218 18.8448 5.46289 18.713C5.59361 18.5811 5.66663 18.4028 5.66583 18.2171C5.66504 18.0315 5.59052 17.8537 5.45868 17.723C5.32684 17.5923 5.14848 17.5193 4.96283 17.5201C4.70083 17.5071 4.43683 17.5081 4.17383 17.5201C3.99726 17.5304 3.83112 17.6072 3.70886 17.7351C3.58661 17.8629 3.51731 18.0322 3.51483 18.2091C3.51281 18.3902 3.58107 18.5651 3.70526 18.6969C3.82946 18.8287 3.99988 18.9073 4.18079 18.9161C4.31379 18.9301 4.44578 18.9241 4.57678 18.9241L4.57483 18.9201Z" fill="#388E3C"/>
<path d="M5.69018 2.09052C5.85357 1.49018 6.20987 0.960254 6.70422 0.582466C7.19857 0.204678 7.80348 0 8.42565 0C9.04783 0 9.65274 0.204678 10.1471 0.582466C10.6414 0.960254 10.9978 1.49018 11.1612 2.09052C11.6242 2.09052 12.0912 2.09052 12.5612 2.09052C12.6656 2.07967 12.7711 2.09215 12.8702 2.12708C12.9692 2.162 13.0592 2.21848 13.1338 2.29245C13.2083 2.36642 13.2655 2.45601 13.3012 2.55477C13.3369 2.65353 13.3502 2.75899 13.3401 2.86352C13.3401 3.52085 13.3401 4.17852 13.3401 4.83652C13.3497 4.93944 13.3363 5.0432 13.301 5.14034C13.2657 5.23749 13.2093 5.3256 13.1359 5.39836C13.0624 5.47112 12.9738 5.52671 12.8763 5.56114C12.7789 5.59558 12.675 5.60799 12.5721 5.59751C9.81014 5.59751 7.04782 5.59751 4.28515 5.59751C4.1825 5.60695 4.07905 5.59377 3.98205 5.55888C3.88505 5.524 3.79688 5.46827 3.72375 5.39561C3.65062 5.32296 3.59429 5.23515 3.55877 5.13838C3.52325 5.04161 3.50941 4.93822 3.51818 4.83551C3.51818 4.16884 3.51818 3.50385 3.51818 2.84052C3.51076 2.73965 3.52526 2.63837 3.56072 2.54366C3.59619 2.44894 3.65178 2.36303 3.72363 2.29185C3.79547 2.22066 3.88188 2.16589 3.97692 2.13131C4.07197 2.09673 4.17337 2.08315 4.27416 2.09151C4.74616 2.08851 5.22118 2.09052 5.69018 2.09052Z" fill="#388E3C"/>
</g>
<defs>
<clipPath id="clip0_82_2366">
<rect width="16.851" height="22.434" fill="white"/>
</clipPath>
</defs>
</svg>
