<svg width="28" height="30" viewBox="0 0 28 30" fill="none" xmlns="http://www.w3.org/2000/svg">
<g filter="url(#filter0_d_105_2638)">
<mask id="mask0_105_2638" style="mask-type:alpha" maskUnits="userSpaceOnUse" x="2" y="0" width="24" height="24">
<rect x="2" width="24" height="24" fill="#D9D9D9"/>
</mask>
<g mask="url(#mask0_105_2638)">
<path d="M4.00427 6.43698C4.00427 5.36063 4.00427 4.28475 4.00427 3.20914C3.9905 3.04811 4.01193 2.88594 4.06709 2.73404C4.12225 2.58213 4.20979 2.44403 4.32366 2.32938C4.43752 2.21474 4.57498 2.12634 4.72646 2.07019C4.87795 2.01403 5.03982 1.99158 5.20086 2.00431C7.36146 2.00431 9.52207 2.00431 11.6827 2.00431C11.844 1.9901 12.0066 2.01109 12.1589 2.06602C12.3113 2.12095 12.45 2.20849 12.5652 2.32239C12.6804 2.4363 12.7695 2.57391 12.8262 2.7257C12.8829 2.8775 12.9059 3.03976 12.8936 3.20134C12.898 5.36211 12.898 7.52287 12.8936 9.68364C12.9071 9.8453 12.8854 10.008 12.83 10.1605C12.7745 10.3129 12.6867 10.4515 12.5725 10.5666C12.4584 10.6818 12.3205 10.7709 12.1686 10.8276C12.0167 10.8843 11.8543 10.9074 11.6926 10.8952C9.53198 10.8989 7.37137 10.8989 5.21077 10.8952C5.04732 10.9084 4.88295 10.8854 4.72929 10.8281C4.57562 10.7708 4.43643 10.6805 4.32147 10.5635C4.20652 10.4465 4.11862 10.3058 4.064 10.1511C4.00938 9.99639 3.98935 9.83159 4.00534 9.66832C4.00387 8.5905 4.00353 7.51333 4.00427 6.43698Z" fill="#388E3C"/>
<path d="M19.5614 2.00416C20.6373 2.00416 21.7132 2.00416 22.7891 2.00416C22.9501 1.99022 23.1123 2.01143 23.2643 2.06653C23.4162 2.12164 23.5544 2.20924 23.6691 2.32318C23.7839 2.43711 23.8724 2.57472 23.9286 2.72635C23.9848 2.87799 24.0073 3.03997 23.9945 3.20119C23.9945 5.36196 23.9945 7.52319 23.9945 9.6847C24.0087 9.84612 23.9877 10.0087 23.9327 10.1611C23.8778 10.3136 23.7904 10.4523 23.6766 10.5675C23.5627 10.6828 23.4251 10.7719 23.2734 10.8286C23.1217 10.8854 22.9594 10.9084 22.7979 10.8961C20.6373 10.8998 18.4767 10.8998 16.3161 10.8961C16.1545 10.9096 15.9919 10.8878 15.8396 10.8324C15.6872 10.7769 15.5486 10.689 15.4335 10.5748C15.3184 10.4606 15.2294 10.3228 15.1727 10.1708C15.116 10.0188 15.093 9.85627 15.1052 9.69451C15.1015 7.53374 15.1015 5.37298 15.1052 3.21221C15.092 3.04868 15.1148 2.88425 15.1721 2.73052C15.2294 2.57679 15.3197 2.43751 15.4366 2.3225C15.5536 2.2075 15.6943 2.11956 15.849 2.06492C16.0036 2.01028 16.1683 1.9903 16.3315 2.00631L19.5614 2.00416Z" fill="#388E3C"/>
<path d="M4.0043 17.5459C4.0043 16.4696 4.0043 15.3932 4.0043 14.3169C3.9901 14.1555 4.01117 13.9929 4.06608 13.8404C4.12099 13.688 4.20839 13.5493 4.32225 13.434C4.4361 13.3188 4.57369 13.2297 4.72542 13.173C4.87715 13.1162 5.03941 13.0932 5.20093 13.1055C7.36153 13.1018 9.52213 13.1018 11.6827 13.1055C11.8443 13.0919 12.0069 13.1136 12.1593 13.1691C12.3117 13.2245 12.4502 13.3124 12.5653 13.4266C12.6804 13.5409 12.7694 13.6788 12.8261 13.8308C12.8828 13.9827 12.9058 14.1452 12.8936 14.3069C12.8973 16.4677 12.8973 18.6285 12.8936 20.7892C12.9067 20.9505 12.8847 21.1127 12.829 21.2646C12.7733 21.4165 12.6853 21.5544 12.5711 21.669C12.4569 21.7836 12.3193 21.8721 12.1676 21.9282C12.0159 21.9843 11.8539 22.0067 11.6926 21.9941C9.53204 21.9941 7.37144 21.9941 5.21084 21.9941C5.04983 22.0078 4.88776 21.9865 4.73587 21.9313C4.58398 21.8761 4.4459 21.7885 4.33122 21.6746C4.21654 21.5608 4.12799 21.4233 4.07173 21.2717C4.01546 21.1202 3.99285 20.9582 4.00541 20.797C4.00321 19.7148 4.00283 18.6311 4.0043 17.5459Z" fill="#388E3C"/>
<path d="M20.6616 18.6602V20.8805H18.4599V18.6778H16.2461V16.4499H18.4335V14.2539H20.6616V16.4434H22.8776V18.6602H20.6616Z" fill="#388E3C"/>
</g>
</g>
<defs>
<filter id="filter0_d_105_2638" x="0" y="2" width="28" height="28" filterUnits="userSpaceOnUse" color-interpolation-filters="sRGB">
<feFlood flood-opacity="0" result="BackgroundImageFix"/>
<feColorMatrix in="SourceAlpha" type="matrix" values="0 0 0 0 0 0 0 0 0 0 0 0 0 0 0 0 0 0 127 0" result="hardAlpha"/>
<feOffset dy="4"/>
<feGaussianBlur stdDeviation="2"/>
<feComposite in2="hardAlpha" operator="out"/>
<feColorMatrix type="matrix" values="0 0 0 0 0 0 0 0 0 0 0 0 0 0 0 0 0 0 0.25 0"/>
<feBlend mode="normal" in2="BackgroundImageFix" result="effect1_dropShadow_105_2638"/>
<feBlend mode="normal" in="SourceGraphic" in2="effect1_dropShadow_105_2638" result="shape"/>
</filter>
</defs>
</svg>
