<svg width="58" height="58" viewBox="0 0 58 58" fill="none" xmlns="http://www.w3.org/2000/svg">
<g filter="url(#filter0_d_91_5570)">
<rect x="10" y="10" width="38" height="38" rx="18.8867" fill="white"/>
</g>
<path d="M40.9981 25.5327C40.9606 25.6824 40.9267 25.8332 40.8854 25.9822C40.5148 27.315 39.3114 28.2433 37.9252 28.2496C36.2228 28.2571 34.5204 28.2584 32.818 28.249C31.1224 28.2396 29.7581 26.8674 29.7513 25.1684C29.7444 23.4738 29.7444 21.7786 29.7513 20.084C29.7581 18.3757 31.1281 17.0103 32.8418 17.0041C34.521 16.9978 36.1996 16.9997 37.8788 17.0035C39.4378 17.0072 40.6901 18.0739 40.958 19.6145C40.9643 19.6514 40.9843 19.6859 40.9981 19.7209C40.9981 21.6584 40.9981 23.5953 40.9981 25.5327ZM31.2495 22.6268C31.2495 23.4463 31.2477 24.2663 31.2502 25.0858C31.2527 26.0673 31.9339 26.7491 32.9156 26.7503C34.5548 26.7528 36.194 26.7528 37.8337 26.7503C38.8155 26.7491 39.4967 26.0673 39.498 25.0851C39.5005 23.4456 39.5005 21.8061 39.498 20.1673C39.4961 19.1844 38.8149 18.5046 37.8325 18.5027C36.1933 18.5002 34.5542 18.5002 32.9144 18.5027C31.932 18.504 31.2527 19.1851 31.2502 20.1679C31.2477 20.988 31.2495 21.8074 31.2495 22.6268Z" fill="#388E3C"/>
<path d="M19.7216 40.9995C19.4761 40.9294 19.2232 40.8768 18.9859 40.786C17.7931 40.3309 17.0092 39.2016 17.0049 37.9265C16.9992 36.2237 16.9973 34.5216 17.0055 32.8189C17.0136 31.1343 18.3798 29.7628 20.0622 29.7534C21.7727 29.744 23.4826 29.7434 25.1932 29.7534C26.8762 29.7628 28.2405 31.1318 28.2498 32.8189C28.2592 34.506 28.2549 36.1931 28.2511 37.8795C28.2473 39.437 27.1804 40.6903 25.6402 40.9594C25.6033 40.9657 25.5695 40.9857 25.5338 40.9995C23.5959 40.9995 21.6588 40.9995 19.7216 40.9995ZM18.5032 35.3736C18.5032 36.1931 18.5013 37.0131 18.5038 37.8326C18.5063 38.8148 19.1862 39.4977 20.1674 39.499C21.8065 39.5015 23.4457 39.5015 25.0855 39.499C26.0678 39.4977 26.7497 38.8173 26.7516 37.8351C26.7541 36.1956 26.7541 34.5561 26.7516 32.9172C26.7503 31.9337 26.0697 31.2526 25.088 31.2514C23.4488 31.2489 21.8097 31.2489 20.1699 31.2514C19.1862 31.2526 18.5063 31.9325 18.5038 32.9147C18.5013 33.7341 18.5032 34.5536 18.5032 35.3736Z" fill="#388E3C"/>
<path opacity="0.5" d="M34.8606 40.9989C34.4079 40.8906 33.9439 40.8161 33.5044 40.6684C31.154 39.879 29.568 37.4608 29.7621 34.9943C29.9669 32.3901 31.8815 30.2592 34.3929 29.8398C37.5472 29.3121 40.4323 31.3842 40.9407 34.5417C40.9577 34.6481 40.9802 34.7533 41.0002 34.8591C41.0002 35.2028 41.0002 35.5464 41.0002 35.8901C40.9865 35.9339 40.9664 35.9765 40.9595 36.021C40.6052 38.381 39.2953 39.9529 37.0488 40.7373C36.6775 40.8668 36.2781 40.9138 35.8918 40.9989C35.5474 40.9989 35.2037 40.9989 34.8606 40.9989ZM35.3853 31.2502C33.1081 31.2464 31.2529 33.0956 31.2517 35.3705C31.2504 37.6367 33.0931 39.4909 35.3539 39.499C37.6317 39.5072 39.4938 37.6617 39.4994 35.3899C39.5063 33.1119 37.6593 31.2533 35.3853 31.2502Z" fill="#388E3C"/>
<path opacity="0.5" d="M22.6262 17.0026C23.454 17.0026 24.2823 17.0008 25.11 17.0033C26.8945 17.0083 28.2469 18.3654 28.25 20.1546C28.2525 21.8028 28.2525 23.4511 28.25 25.0993C28.2475 26.8872 26.8938 28.2469 25.11 28.2513C23.454 28.255 21.7979 28.255 20.1418 28.2513C18.3587 28.2475 17.0044 26.8872 17.0019 25.1C16.9994 23.4517 16.9994 21.8034 17.0019 20.1552C17.005 18.3667 18.3587 17.0083 20.1425 17.0033C20.9702 17.0008 21.7985 17.0026 22.6262 17.0026ZM18.502 22.6035C18.502 23.431 18.5002 24.2586 18.5027 25.0862C18.5052 26.0684 19.1858 26.7501 20.1675 26.7514C21.8067 26.7539 23.4458 26.7539 25.0856 26.7514C26.0674 26.7501 26.7492 26.069 26.7505 25.0868C26.753 23.4473 26.753 21.8078 26.7505 20.1689C26.7486 19.1861 26.068 18.505 25.0862 18.5038C23.4471 18.5013 21.8079 18.5013 20.1681 18.5038C19.1851 18.505 18.5058 19.1855 18.5027 20.1683C18.5002 20.9796 18.502 21.7915 18.502 22.6035Z" fill="#388E3C"/>
<defs>
<filter id="filter0_d_91_5570" x="0" y="0" width="58" height="58" filterUnits="userSpaceOnUse" color-interpolation-filters="sRGB">
<feFlood flood-opacity="0" result="BackgroundImageFix"/>
<feColorMatrix in="SourceAlpha" type="matrix" values="0 0 0 0 0 0 0 0 0 0 0 0 0 0 0 0 0 0 127 0" result="hardAlpha"/>
<feOffset/>
<feGaussianBlur stdDeviation="5"/>
<feComposite in2="hardAlpha" operator="out"/>
<feColorMatrix type="matrix" values="0 0 0 0 0 0 0 0 0 0 0 0 0 0 0 0 0 0 0.1 0"/>
<feBlend mode="normal" in2="BackgroundImageFix" result="effect1_dropShadow_91_5570"/>
<feBlend mode="normal" in="SourceGraphic" in2="effect1_dropShadow_91_5570" result="shape"/>
</filter>
</defs>
</svg>
