<svg width="24" height="24" viewBox="0 0 24 24" fill="none" xmlns="http://www.w3.org/2000/svg">
<path fill-rule="evenodd" clip-rule="evenodd" d="M11.077 2.25C10.16 2.25 9.37796 2.913 9.22696 3.817L9.04896 4.889C9.02896 5.009 8.93396 5.149 8.75196 5.237C8.40931 5.40171 8.07969 5.59226 7.76596 5.807C7.59996 5.922 7.43196 5.933 7.31596 5.89L6.29896 5.508C5.8832 5.35224 5.42566 5.34906 5.00777 5.49904C4.58989 5.64901 4.23879 5.94241 4.01696 6.327L3.09496 7.924C2.87305 8.30836 2.79467 8.75897 2.87378 9.19569C2.95288 9.6324 3.18433 10.0269 3.52696 10.309L4.36696 11.001C4.46196 11.079 4.53696 11.23 4.52096 11.431C4.49246 11.8101 4.49246 12.1909 4.52096 12.57C4.53596 12.77 4.46196 12.922 4.36796 13L3.52696 13.692C3.18433 13.9741 2.95288 14.3686 2.87378 14.8053C2.79467 15.242 2.87305 15.6926 3.09496 16.077L4.01696 17.674C4.23894 18.0584 4.59012 18.3516 5.00798 18.5014C5.42585 18.6512 5.88331 18.6478 6.29896 18.492L7.31796 18.11C7.43296 18.067 7.60096 18.079 7.76796 18.192C8.07996 18.406 8.40896 18.597 8.75296 18.762C8.93496 18.85 9.02996 18.99 9.04996 19.112L9.22796 20.183C9.37896 21.087 10.161 21.75 11.078 21.75H12.922C13.838 21.75 14.621 21.087 14.772 20.183L14.95 19.111C14.97 18.991 15.064 18.851 15.247 18.762C15.591 18.597 15.92 18.406 16.232 18.192C16.399 18.078 16.567 18.067 16.682 18.11L17.702 18.492C18.1175 18.6472 18.5746 18.6501 18.992 18.5002C19.4094 18.3502 19.7602 18.0571 19.982 17.673L20.905 16.076C21.1269 15.6916 21.2052 15.241 21.1261 14.8043C21.047 14.3676 20.8156 13.9731 20.473 13.691L19.633 12.999C19.538 12.921 19.463 12.77 19.479 12.569C19.5074 12.1899 19.5074 11.8091 19.479 11.43C19.463 11.23 19.538 11.078 19.632 11L20.472 10.308C21.18 9.726 21.363 8.718 20.905 7.923L19.983 6.326C19.761 5.94159 19.4098 5.6484 18.9919 5.49861C18.5741 5.34883 18.1166 5.35215 17.701 5.508L16.681 5.89C16.567 5.933 16.399 5.921 16.232 5.807C15.9186 5.5923 15.5893 5.40175 15.247 5.237C15.064 5.15 14.97 5.01 14.95 4.889L14.771 3.817C14.698 3.37906 14.4721 2.98122 14.1333 2.69427C13.7945 2.40732 13.3649 2.24989 12.921 2.25H11.078H11.077ZM11.999 15.75C12.9935 15.75 13.9473 15.3549 14.6506 14.6517C15.3539 13.9484 15.749 12.9946 15.749 12C15.749 11.0054 15.3539 10.0516 14.6506 9.34835C13.9473 8.64509 12.9935 8.25 11.999 8.25C11.0044 8.25 10.0506 8.64509 9.34731 9.34835C8.64405 10.0516 8.24896 11.0054 8.24896 12C8.24896 12.9946 8.64405 13.9484 9.34731 14.6517C10.0506 15.3549 11.0044 15.75 11.999 15.75Z" fill="#388E3C"/>
</svg>
