<svg width="24" height="24" viewBox="0 0 24 24" fill="none" xmlns="http://www.w3.org/2000/svg">
<mask id="mask0_95_7144" style="mask-type:alpha" maskUnits="userSpaceOnUse" x="0" y="0" width="24" height="24">
<rect width="24" height="24" fill="#D9D9D9"/>
</mask>
<g mask="url(#mask0_95_7144)">
<g clip-path="url(#clip0_95_7144)">
<path d="M4.44527 2H15.5685C15.7197 2.06829 15.8448 2.18364 15.9251 2.32884C16.0055 2.47405 16.0367 2.64134 16.0142 2.80575C16.0066 7.91955 16.0047 13.033 16.0085 18.1462C16.0085 18.6672 15.7904 18.8844 15.2666 18.8844H4.76624C4.21479 18.8844 4.00431 18.6748 4.00431 18.1224C4.00431 13.0156 4.00241 7.90873 3.9986 2.80191C3.97734 2.63803 4.00927 2.47164 4.08969 2.32727C4.1701 2.1829 4.29474 2.0682 4.44527 2ZM10.0045 7.44206C8.82541 7.44206 7.64632 7.44206 6.46724 7.44206C6.33986 7.43132 6.21234 7.461 6.10276 7.52681C5.99318 7.59263 5.90711 7.69126 5.85675 7.80875C5.81579 7.90418 5.8003 8.00863 5.81179 8.11184C5.82328 8.21505 5.86136 8.31347 5.92231 8.39755C5.98326 8.48163 6.06499 8.5485 6.15951 8.59153C6.25403 8.63456 6.35809 8.65228 6.46153 8.64304C7.95364 8.64304 9.44574 8.64304 10.9379 8.64304C11.8109 8.64304 12.6836 8.64304 13.556 8.64304C13.68 8.65253 13.8039 8.62331 13.9106 8.55933C14.0172 8.49535 14.1013 8.39976 14.1513 8.28588C14.1941 8.19127 14.2115 8.08717 14.2019 7.98378C14.1922 7.88038 14.1558 7.78126 14.0962 7.69621C14.0366 7.61116 13.9559 7.54308 13.862 7.49868C13.7682 7.45428 13.6643 7.43514 13.5608 7.44305C12.376 7.43987 11.1906 7.43952 10.0045 7.44206ZM9.98544 11.0431C11.1715 11.0431 12.3573 11.0431 13.5427 11.0431C13.6665 11.0539 13.7906 11.0266 13.8983 10.9648C14.0061 10.903 14.0924 10.8097 14.1456 10.6974C14.1917 10.6038 14.2124 10.4997 14.2056 10.3956C14.1988 10.2915 14.1648 10.191 14.1069 10.1041C14.049 10.0173 13.9693 9.94724 13.8758 9.90092C13.7823 9.85461 13.6783 9.83366 13.5741 9.84023C12.455 9.84023 11.336 9.84023 10.2159 9.84023C8.96319 9.84023 7.71078 9.84023 6.45868 9.84023C6.33817 9.83081 6.21762 9.85783 6.11266 9.91778C6.0077 9.97773 5.92318 10.0679 5.87008 10.1765C5.82269 10.2707 5.80113 10.3759 5.80759 10.4812C5.81405 10.5865 5.84829 10.6882 5.90685 10.776C5.9654 10.8638 6.04617 10.9345 6.14092 10.9809C6.23568 11.0273 6.34105 11.0478 6.4463 11.0403C7.62729 11.0479 8.80636 11.0431 9.98544 11.0431ZM10.0293 12.2432C8.84351 12.2432 7.65776 12.2432 6.47201 12.2432C6.34478 12.2319 6.21721 12.2607 6.10721 12.3256C5.9972 12.3905 5.91028 12.4883 5.85866 12.6051C5.81729 12.6985 5.80057 12.8009 5.8101 12.9026C5.81963 13.0043 5.8551 13.1019 5.9131 13.186C5.9711 13.2701 6.04969 13.3378 6.14137 13.3829C6.23306 13.4279 6.33476 13.4487 6.43676 13.4432C7.59585 13.4432 8.75493 13.4432 9.91401 13.4432C11.1267 13.4432 12.3392 13.4432 13.5513 13.4432C13.6752 13.4532 13.7993 13.4246 13.9063 13.3613C14.0134 13.2981 14.0983 13.2032 14.1494 13.0898C14.193 12.9956 14.2114 12.8917 14.2025 12.7882C14.1937 12.6847 14.1581 12.5854 14.0992 12.4999C14.0402 12.4144 13.96 12.3457 13.8664 12.3007C13.7728 12.2557 13.6691 12.2359 13.5656 12.2432C12.3874 12.2413 11.2083 12.2432 10.0293 12.2432ZM8.18635 6.243H9.92449C10.0092 6.253 10.095 6.24514 10.1765 6.21993C10.258 6.19472 10.3332 6.15271 10.3975 6.09663C10.4617 6.04055 10.5135 5.97159 10.5495 5.89428C10.5855 5.81696 10.6049 5.73301 10.6064 5.64775C10.6065 5.56244 10.5886 5.47805 10.5539 5.40011C10.5193 5.32217 10.4686 5.25237 10.4051 5.19532C10.3417 5.13827 10.267 5.09526 10.1858 5.069C10.1046 5.04274 10.0188 5.03386 9.93401 5.04296H6.47868C6.39388 5.03402 6.30815 5.04298 6.22704 5.06929C6.14594 5.0956 6.07127 5.1387 6.00788 5.19572C5.94448 5.25274 5.89378 5.32241 5.85905 5.40029C5.82432 5.47816 5.80633 5.56248 5.80627 5.64775C5.8081 5.73292 5.82769 5.81676 5.86377 5.89393C5.89985 5.9711 5.95163 6.03991 6.01581 6.09593C6.07999 6.15196 6.15515 6.19396 6.23649 6.21929C6.31783 6.24461 6.40356 6.25269 6.4882 6.243H8.18635ZM12.4074 14.6451C12.0265 14.6451 11.6455 14.6451 11.2693 14.6451C11.1862 14.6378 11.1024 14.6477 11.0233 14.6741C10.9441 14.7006 10.8713 14.743 10.8093 14.7989C10.7472 14.8547 10.6974 14.9228 10.6628 14.9987C10.6283 15.0747 10.6097 15.1569 10.6083 15.2404C10.6083 15.3239 10.6256 15.4064 10.659 15.4829C10.6925 15.5594 10.7414 15.6282 10.8026 15.6848C10.8639 15.7415 10.9362 15.785 11.015 15.8124C11.0939 15.8398 11.1775 15.8507 11.2607 15.8442C12.0258 15.8442 12.7912 15.8442 13.557 15.8442C13.6403 15.8508 13.724 15.8401 13.8029 15.8126C13.8818 15.7852 13.9542 15.7416 14.0154 15.6848C14.0767 15.6279 14.1254 15.559 14.1587 15.4824C14.1919 15.4057 14.2088 15.323 14.2084 15.2395C14.2071 15.1555 14.1884 15.0727 14.1535 14.9964C14.1186 14.9201 14.0682 14.8518 14.0055 14.796C13.9429 14.7401 13.8693 14.6979 13.7895 14.6719C13.7096 14.646 13.6253 14.6368 13.5417 14.6451C13.1655 14.6423 12.7865 14.6451 12.4074 14.6451Z" fill="#388E3C"/>
<path d="M7.60664 20.0838H15.2697C15.5288 20.1031 15.789 20.0663 16.0326 19.9761C16.2762 19.8858 16.4976 19.7442 16.6815 19.5607C16.8655 19.3773 17.0078 19.1564 17.0988 18.913C17.1898 18.6697 17.2273 18.4096 17.2088 18.1505C17.2088 14.0697 17.2088 9.98896 17.2088 5.9082V5.65487C17.2669 5.64915 17.3174 5.63958 17.3679 5.63958C17.8949 5.63958 18.4216 5.63958 18.9479 5.63958C19.0366 5.63091 19.1262 5.64199 19.2101 5.67196C19.294 5.70193 19.3703 5.75004 19.4335 5.81293C19.4966 5.87581 19.5451 5.95188 19.5754 6.03568C19.6058 6.11949 19.6172 6.209 19.6089 6.29773C19.6089 11.4719 19.6089 16.6466 19.6089 21.822C19.6183 21.9109 19.6078 22.0009 19.5783 22.0853C19.5488 22.1697 19.5009 22.2465 19.4382 22.3102C19.3755 22.374 19.2994 22.423 19.2155 22.4539C19.1315 22.4847 19.0418 22.4967 18.9527 22.4887C15.392 22.4887 11.8312 22.4887 8.27047 22.4887C8.1817 22.498 8.09198 22.4876 8.00771 22.4582C7.92344 22.4288 7.84671 22.3811 7.78301 22.3186C7.71931 22.256 7.67022 22.1803 7.63923 22.0966C7.60825 22.0129 7.59614 21.9233 7.60379 21.8344C7.60474 21.2572 7.60664 20.6801 7.60664 20.0838Z" fill="#388E3C"/>
</g>
</g>
<defs>
<clipPath id="clip0_95_7144">
<rect width="15.61" height="20.4863" fill="white" transform="translate(4 2)"/>
</clipPath>
</defs>
</svg>
