<svg xmlns="http://www.w3.org/2000/svg" width="232.373" height="230.097" viewBox="0 0 232.373 230.097">
  <g id="svg" transform="translate(-231.9 -155.78)">
    <g id="Group_1" data-name="Group 1" transform="translate(245.972 155.78)">
      <path id="Path_1" data-name="Path 1" d="M455.346,293.082a93.425,93.425,0,0,0,8.2-38.437c0-50.756-40.167-91.9-89.711-91.9s-89.711,41.142-89.711,91.9a93.534,93.534,0,0,0,6.748,35.02,92.737,92.737,0,1,1,164.471,3.417Z" transform="translate(-271.879 -155.78)" fill="#fff"/>
      <path id="Path_2" data-name="Path 2" d="M261.51,511.247c1-.418,2.015-.808,3.032-1.188s2.039-.751,3.061-1.117c2.048-.718,4.111-1.4,6.178-2.072,4.135-1.335,8.317-2.538,12.513-3.669q12.6-3.365,25.478-5.684c2.143-.385,4.287-.756,6.439-1.1,1.074-.181,2.153-.337,3.227-.5s2.153-.318,3.232-.466c4.315-.613,8.645-1.122,12.979-1.559s8.687-.76,13.041-1.031,8.716-.4,13.074-.489a276.054,276.054,0,0,1,52.134,3.949l3.217.589c1.074.19,2.139.428,3.208.637,2.139.418,4.268.908,6.392,1.388,4.239,1.012,8.464,2.082,12.637,3.336l1.568.461,1.559.49,3.113.984,3.089,1.055,1.54.532,1.53.566c4.092,1.464,8.112,3.132,12.081,4.881a300.66,300.66,0,0,0-50.5-11.273,345.437,345.437,0,0,0-51.492-2.9q-6.451.093-12.9.418c-4.3.2-8.6.494-12.888.832s-8.578.765-12.865,1.231c-1.069.114-2.143.238-3.213.366l-3.208.39q-3.208.392-6.411.846-12.817,1.782-25.539,4.287C278.338,507.118,269.888,508.98,261.51,511.247Z" transform="translate(-261.51 -332.391)" fill="#fff"/>
      <path id="Path_3" data-name="Path 3" d="M415.02,206.122s1.868-10.446,15-1.4c0,0-9.22,10.679-15,3.27,0,0,4.843-2.861,9.453-2.628a19.97,19.97,0,0,0-9.338,1.459Z" transform="translate(-342.066 -179.528)" fill="#fff"/>
      <path id="Path_4" data-name="Path 4" d="M386.22,231.872s6.972-8,13.582,6.511c0,0-13.4,4.42-14.542-4.909,0,0,5.627.038,9.457,2.609a19.983,19.983,0,0,0-8.759-3.55Z" transform="translate(-326.449 -194.556)" fill="#fff"/>
      <path id="Path_5" data-name="Path 5" d="M360.124,258.881s4.962-5.693,9.666,4.634c0,0-9.533,3.146-10.351-3.493a14.145,14.145,0,0,1,6.729,1.858,14.235,14.235,0,0,0-6.23-2.524Z" transform="translate(-312.9 -209.062)" fill="#fff"/>
      <path id="Path_6" data-name="Path 6" d="M377.82,282.383s4.424-9.647,14.87,2.4c0,0-11.6,8.032-15.341-.589,0,0,5.4-1.554,9.809-.176a19.959,19.959,0,0,0-9.4-.927Z" transform="translate(-322.298 -220.297)" fill="#fff"/>
      <path id="Path_7" data-name="Path 7" d="M350.979,305.019s6.611-8.3,13.858,5.9c0,0-13.193,5-14.747-4.263,0,0,5.622-.209,9.567,2.186a19.975,19.975,0,0,0-8.906-3.16Z" transform="translate(-307.993 -232.83)" fill="#fff"/>
      <path id="Path_8" data-name="Path 8" d="M459.927,227.95s-10.037,5.836-2.219,18.791,14.471.817,14.471.817,2.1,9.338-4.32,12.256-14.238.233-14.942-8.169-2.1-18.325-1.749-18.791S459.927,227.95,459.927,227.95Z" transform="translate(-361.006 -193.652)" fill="#fff"/>
      <path id="Path_9" data-name="Path 9" d="M526.27,232.794s7.238-.466,3.849,7.352-4.2,8.055-11.32,11.206-13.658,8.288-7.005,22.878c0,0,2.158-11.41,2.333-11.672s5.513-5.342,6.216-5.513,6.915-3.5,6.915-3.5,4.9,1.136,6.3-4.553,2.452-3.94,1.05-9.191-1.839-6.478-2.015-6.739S526.27,232.794,526.27,232.794Z" transform="translate(-391.396 -196.191)" fill="#fff"/>
      <path id="Path_10" data-name="Path 10" d="M507.8,383.2l4.32-34.022s-15-.908-13.216-8.055a24.2,24.2,0,0,0,3.678-5.251c1.578-3.327-10.066,3.588-10.066,3.588a46.791,46.791,0,0,0,1.4,5.955c.437.7,6.915,6.3,11.03,7.618s.437,14.1.437,18.82S507.8,383.2,507.8,383.2Z" transform="translate(-382.735 -249.809)" fill="#fff"/>
      <path id="Path_11" data-name="Path 11" d="M403.731,292.05s-2.276,14.647-16.458,26.728-30.463,37.644-26,56.554a49.678,49.678,0,0,1-4.814-24.513c.874-14.005,14.005-26.613,15.056-26.96s20.659-13.483,26.086-21.709S403.731,292.05,403.731,292.05Z" transform="translate(-311.288 -227.289)" fill="#fff"/>
      <path id="Path_12" data-name="Path 12" d="M275.919,457.34s-6.188,6.363-2.452,6.478,7.119-4.144,13.364-.466,10.8,11.149,22.412,10.446c0,0-6.829,2.509-16.69-2.509s-10.973-5.836-16.168-3.968-7.879.352-7.238-2.975S275.919,457.34,275.919,457.34Z" transform="translate(-265.468 -314.027)" fill="#fff"/>
      <path id="Path_13" data-name="Path 13" d="M406.3,394.265s16.809-1.749,19.9,9.571-3.327,22.061-7.647,26.086c0,0,10.911-6.71,13.012-10.911s3.27-17.917-1.107-21.709S424.563,386.965,406.3,394.265Z" transform="translate(-337.49 -279.195)" fill="#fff"/>
      <path id="Path_14" data-name="Path 14" d="M406.3,393.163s12.87-8.345,21.533-1.782,12,21.533-1.578,35.106c0,0,14.709-2.452,13.131,10.854h-4.025s-2.452-14.271-17.684-4.9c0,0-.613-2.452,2.362-5.6s15.231-11.819,11.292-23.9S420.044,389.161,406.3,393.163Z" transform="translate(-337.49 -278.093)" fill="#fff"/>
      <path id="Path_15" data-name="Path 15" d="M552.651,370.29s16.063,13.183,17.636,28.148-3.764,27.051-18.473,30.553-1.839,3.151-.875,2.975,16.543-6.392,17.246-6.915,10.066-12.256,8.141-22.146-8.141-18.644-8.141-18.644L556.9,371.83Z" transform="translate(-410.174 -268.346)" fill="#fff"/>
      <path id="Path_16" data-name="Path 16" d="M496.91,464.325s-14.1-21.709,1.4-16.282a1.288,1.288,0,0,0,.261-1.839c-.7-1.226-6.568-7.091-10.156-2.538s-1.839,12.869-1.226,13.92S496.91,464.325,496.91,464.325Z" transform="translate(-379.43 -305.956)" fill="#fff"/>
      <path id="Path_17" data-name="Path 17" d="M355.7,292.05s-5.66,12.841-23.985,23.81-25.563,28.657-25.563,39.687,3.5,18.035,3.5,18.035-7.789,5.166-19.96-2.714-24.86-4.025-24.86,6.392,7.965,8.493,10.241,5.779,7.176-1.487,9.98.7,12.608,7.528,21.97,3.327c0,0-8.141,2.276-21.1-7.618,0,0-6.33-4.814-11.586-.556s-6.653,1.749-6.012-1.635,7.005-10.27,14.124-6.478,17.565,14.794,30.786,4.553c0,0-8.493-28.419,8.317-45.813S353.538,310.494,355.7,292.05Z" transform="translate(-263.252 -227.289)" fill="#fff"/>
      <path id="Path_18" data-name="Path 18" d="M542.427,360.484c-3.151-5.893-11.962-19.114-19.4-23.753,0,0-.086-14.414-1.953-21.828s-3.849-6.6-7.936-2.918-4.434,2.975-7.647,2.861-4.786-.176-7.238,2.8-5.076,6.3-11.9,6.653c0,0-2.8,14.709,13.6,16.866,0,0-.993,24.218,2.742,28.538l.352-32.449s-14.067,1.839-13.625-10.854c0,0,6.478-.789,8.578-3.588s4.553-5.427,8.839-4.729,5.427-.528,5.427-.528,2.452-3.474,4.434-4.116c0,0,3.037,15.816,3.384,24.394,0,.143.01.28.019.418.932.756,15.787,12.988,20.758,26.78,5.137,14.238-.7,32.216-29.878,32.563a33.856,33.856,0,0,1-16.458-5.251c-7.7-5.137-10.27-13.54-5.955-16.809s8.169,1.635,8.987,5.6,7.352,9.106,10.5,8.987a15.331,15.331,0,0,1-7.789-11.03c-1.4-8.055-14.709-11.382-16.985-2.889s3.065,19.257,15.322,22.236,27.664,1.606,27.664,1.606l.409-.409v-1.487s10.565-.029,16.106-11.292S545.578,366.382,542.427,360.484Z" transform="translate(-377.614 -236.314)" fill="#fff"/>
      <path id="Path_19" data-name="Path 19" d="M528.98,440.95c.171.328.347.651.537.965s.371.632.575.936.4.608.6.908.418.589.651.87a19.988,19.988,0,0,0,2.927,3.108,15.649,15.649,0,0,0,3.488,2.272A14.16,14.16,0,0,0,541.7,451.2l1.026.119c.342.029.694.024,1.041.038a7.607,7.607,0,0,0,1.041-.019c.347-.019.7-.019,1.046-.071l1.046-.124c.347-.052.694-.133,1.041-.195l.523-.1c.176-.029.342-.09.518-.128l1.036-.266c.689-.195,1.364-.432,2.058-.646.675-.261,1.359-.5,2.029-.779s1.345-.566,2.015-.86c.661-.314,1.331-.623,2.01-.917-.575.461-1.169.908-1.763,1.35-.295.223-.618.409-.927.613l-.941.6c-.642.375-1.307.713-1.967,1.074-.337.166-.684.309-1.027.461l-.518.228a4.442,4.442,0,0,1-.523.209,19.747,19.747,0,0,1-2.162.694c-.371.09-.737.2-1.107.276l-1.131.19a16.381,16.381,0,0,1-4.624.014c-.385-.062-.765-.152-1.145-.228-.1-.019-.19-.038-.285-.062l-.28-.086-.561-.171c-.375-.1-.732-.271-1.1-.409a8.56,8.56,0,0,1-1.055-.5,14.815,14.815,0,0,1-3.693-2.766c-.138-.133-.266-.276-.394-.418l-.38-.428c-.242-.29-.48-.594-.7-.893a20.228,20.228,0,0,1-1.221-1.906,18,18,0,0,1-.965-2.029A12.348,12.348,0,0,1,528.98,440.95Z" transform="translate(-401.868 -305.426)" fill="#fff"/>
      <path id="Path_20" data-name="Path 20" d="M312.674,326.953S272.754,253.419,354.7,212.71c0,0-45.172,27.051-45.96,68.282,0,0,5.864-25.444,27.925-33.267C336.66,247.73,298.227,272.59,312.674,326.953Z" transform="translate(-283.257 -185.655)" fill="#fff"/>
      <path id="Path_21" data-name="Path 21" d="M464.276,228.1a15.282,15.282,0,0,0,2.975,12.166c4.553,6.126-1.312,16.2-8.317,13.483s-11.116-19.086-7.266-26.438,20.92-7.528,24.689-5.076,10.156,5.251,13.92,3.849,8.578-1.312,8.93,5.166-.7,10.332-7.789,13.744-13.307,5.864-13.131,12.694.352,9.191.352,9.191,1.226-3.94,2.362-9.191,9.8-8.055,14.1-10.417,9.367-7.789,7.879-17.945-8.055-7.442-12.955-6.739-9.367-3.065-14.1-4.291-20.4-2.452-27.84,8.055,3.849,36.242,17.246,29.94,5.166-16.02,3.327-19.433S464.014,232.476,464.276,228.1Z" transform="translate(-358.174 -188.169)" fill="#fff"/>
    </g>
    <g id="Group_3" data-name="Group 3" transform="translate(270.575 377.327)">
      <g id="Group_2" data-name="Group 2" transform="translate(0)">
        <path id="Path_22" data-name="Path 22" d="M313.28,630.52v-8.35h2.661a5.14,5.14,0,0,1,1.326.152,2.47,2.47,0,0,1,.912.432,1.73,1.73,0,0,1,.532.684,2.331,2.331,0,0,1,.171.912,1.919,1.919,0,0,1-.1.594,1.768,1.768,0,0,1-.29.532,2.089,2.089,0,0,1-.49.437,2.707,2.707,0,0,1-.689.314,2.554,2.554,0,0,1,1.383.661,1.731,1.731,0,0,1,.466,1.259,2.4,2.4,0,0,1-.195.969,2.04,2.04,0,0,1-.57.751,2.658,2.658,0,0,1-.922.485,4.175,4.175,0,0,1-1.245.171H313.28Zm1.131-4.61H315.9a2.845,2.845,0,0,0,.827-.1,1.7,1.7,0,0,0,.58-.29,1.178,1.178,0,0,0,.342-.451,1.449,1.449,0,0,0,.109-.58,1.281,1.281,0,0,0-.442-1.079,2.246,2.246,0,0,0-1.373-.342h-1.535Zm0,.808v2.908h1.806a2.846,2.846,0,0,0,.832-.109,1.434,1.434,0,0,0,.57-.314,1.189,1.189,0,0,0,.328-.48,1.687,1.687,0,0,0,.1-.608,1.253,1.253,0,0,0-.456-1.022,2.135,2.135,0,0,0-1.383-.375Z" transform="translate(-313.28 -622.07)" fill="#fff"/>
        <path id="Path_23" data-name="Path 23" d="M341.647,622.17v.922h-4.011v2.775h3.246v.884h-3.246V629.6h4.011v.922H336.5v-8.35h5.147Z" transform="translate(-325.465 -622.07)" fill="#fff"/>
        <path id="Path_24" data-name="Path 24" d="M363.458,628.685a.236.236,0,0,1,.171.076l.442.485a3.608,3.608,0,0,1-1.245.927,4.215,4.215,0,0,1-1.763.333,4.134,4.134,0,0,1-1.64-.314,3.617,3.617,0,0,1-1.255-.874,3.95,3.95,0,0,1-.8-1.35,5.041,5.041,0,0,1-.285-1.73,4.707,4.707,0,0,1,.3-1.73,4,4,0,0,1,.86-1.354,3.922,3.922,0,0,1,1.326-.879,4.488,4.488,0,0,1,1.706-.314,3.814,3.814,0,0,1,2.775,1.06l-.366.518a.362.362,0,0,1-.1.1.266.266,0,0,1-.152.038.29.29,0,0,1-.162-.057c-.057-.038-.124-.081-.2-.138s-.171-.114-.276-.176a2.711,2.711,0,0,0-.371-.176,3.224,3.224,0,0,0-1.16-.195,3.2,3.2,0,0,0-1.226.228,2.742,2.742,0,0,0-.96.656,3.054,3.054,0,0,0-.627,1.036,4.014,4.014,0,0,0-.223,1.369,4.1,4.1,0,0,0,.223,1.392,3.1,3.1,0,0,0,.613,1.036,2.641,2.641,0,0,0,.917.646,2.924,2.924,0,0,0,1.141.223,4.769,4.769,0,0,0,.67-.043,2.753,2.753,0,0,0,.551-.138,2.185,2.185,0,0,0,.47-.238,3.833,3.833,0,0,0,.442-.342A.378.378,0,0,1,363.458,628.685Z" transform="translate(-336.264 -621.96)" fill="#fff"/>
        <path id="Path_25" data-name="Path 25" d="M388.1,630.515h-.874a.362.362,0,0,1-.242-.076.443.443,0,0,1-.138-.195l-.779-2.015h-3.75l-.779,2.015a.474.474,0,0,1-.138.185.356.356,0,0,1-.242.081h-.874l3.341-8.35h1.15Zm-5.475-3.1h3.118l-1.312-3.4a6.005,6.005,0,0,1-.252-.789c-.043.157-.086.3-.124.442s-.081.252-.119.352Z" transform="translate(-348.439 -622.065)" fill="#fff"/>
        <path id="Path_26" data-name="Path 26" d="M408.777,629.622a2.287,2.287,0,0,0,.927-.176,1.957,1.957,0,0,0,.689-.49,2.132,2.132,0,0,0,.432-.751,2.948,2.948,0,0,0,.147-.96V622.17H412.1v5.076a3.853,3.853,0,0,1-.228,1.34,3.073,3.073,0,0,1-.661,1.069,3.014,3.014,0,0,1-1.046.708,3.88,3.88,0,0,1-2.775,0,3.079,3.079,0,0,1-1.05-.708,3,3,0,0,1-.661-1.069,3.853,3.853,0,0,1-.228-1.34V622.17h1.126v5.071a2.928,2.928,0,0,0,.147.96,2.132,2.132,0,0,0,.432.751,1.986,1.986,0,0,0,.694.494A2.286,2.286,0,0,0,408.777,629.622Z" transform="translate(-361.647 -622.07)" fill="#fff"/>
        <path id="Path_27" data-name="Path 27" d="M434.412,623.382a.528.528,0,0,1-.109.133.223.223,0,0,1-.152.043.391.391,0,0,1-.228-.1,3.7,3.7,0,0,0-.333-.219,2.585,2.585,0,0,0-.485-.219,2.348,2.348,0,0,0-1.354,0,1.408,1.408,0,0,0-.485.276,1.184,1.184,0,0,0-.295.409,1.294,1.294,0,0,0-.1.508.943.943,0,0,0,.171.58,1.489,1.489,0,0,0,.456.394,3.306,3.306,0,0,0,.642.28c.238.081.485.162.732.247s.494.181.737.29a2.766,2.766,0,0,1,.642.4,1.856,1.856,0,0,1,.456.6,2.006,2.006,0,0,1,.171.875,2.857,2.857,0,0,1-.185,1.031,2.344,2.344,0,0,1-.547.836,2.608,2.608,0,0,1-.879.561,3.193,3.193,0,0,1-1.188.2,3.648,3.648,0,0,1-1.478-.295,3.437,3.437,0,0,1-1.141-.794l.328-.537a.417.417,0,0,1,.114-.109.266.266,0,0,1,.147-.043.454.454,0,0,1,.28.133c.1.086.238.185.394.29a3.178,3.178,0,0,0,.57.29,2.281,2.281,0,0,0,.817.133,2.231,2.231,0,0,0,.718-.109,1.413,1.413,0,0,0,.532-.314,1.374,1.374,0,0,0,.337-.48,1.633,1.633,0,0,0,.119-.623,1.059,1.059,0,0,0-.171-.623,1.43,1.43,0,0,0-.452-.4,3.138,3.138,0,0,0-.637-.276c-.238-.076-.485-.152-.737-.233a7.476,7.476,0,0,1-.732-.276,2.393,2.393,0,0,1-.637-.409,1.864,1.864,0,0,1-.451-.627,2.249,2.249,0,0,1-.171-.931,2.217,2.217,0,0,1,.171-.855,2.18,2.18,0,0,1,.5-.732,2.4,2.4,0,0,1,.808-.513,2.946,2.946,0,0,1,1.1-.19,3.556,3.556,0,0,1,1.278.223,2.9,2.9,0,0,1,1.008.642Z" transform="translate(-374.247 -621.976)" fill="#fff"/>
        <path id="Path_28" data-name="Path 28" d="M456.387,622.17v.922h-4.011v2.775h3.246v.884h-3.246V629.6h4.011v.922H451.24v-8.35h5.147Z" transform="translate(-385.676 -622.07)" fill="#fff"/>
        <path id="Path_29" data-name="Path 29" d="M482.98,622.165h.936a.4.4,0,0,1,.252.076.378.378,0,0,1,.133.19l1.725,5.8c.033.1.057.219.086.337s.048.247.071.38c.029-.133.052-.257.081-.38a2.868,2.868,0,0,1,.1-.337l1.963-5.8a.451.451,0,0,1,.138-.185.372.372,0,0,1,.247-.086h.328a.374.374,0,0,1,.247.076.457.457,0,0,1,.138.19l1.953,5.8a5,5,0,0,1,.185.694c.024-.128.043-.252.062-.366a2.357,2.357,0,0,1,.076-.328l1.73-5.8a.334.334,0,0,1,.133-.185.4.4,0,0,1,.247-.081h.879l-2.6,8.35h-1.012l-2.115-6.368a4.191,4.191,0,0,1-.119-.418c-.019.076-.038.152-.057.223s-.038.138-.057.195l-2.129,6.368H485.58Z" transform="translate(-402.332 -622.065)" fill="#fff"/>
        <path id="Path_30" data-name="Path 30" d="M522.437,622.17v.922h-4.011v2.775h3.246v.884h-3.246V629.6h4.011v.922H517.29v-8.35h5.147Z" transform="translate(-420.336 -622.07)" fill="#fff"/>
        <path id="Path_31" data-name="Path 31" d="M556.338,628.685a.235.235,0,0,1,.171.076l.442.485a3.609,3.609,0,0,1-1.245.927,4.215,4.215,0,0,1-1.763.333,4.134,4.134,0,0,1-1.64-.314,3.617,3.617,0,0,1-1.255-.874,3.951,3.951,0,0,1-.8-1.35,5.041,5.041,0,0,1-.285-1.73,4.707,4.707,0,0,1,.3-1.73,4,4,0,0,1,.86-1.354,3.922,3.922,0,0,1,1.326-.879,4.489,4.489,0,0,1,1.706-.314,3.814,3.814,0,0,1,2.775,1.06l-.366.518a.361.361,0,0,1-.1.1.266.266,0,0,1-.152.038.29.29,0,0,1-.162-.057c-.057-.038-.124-.081-.2-.138s-.171-.114-.276-.176a2.541,2.541,0,0,0-.375-.176,3.224,3.224,0,0,0-1.16-.195,3.2,3.2,0,0,0-1.226.228,2.743,2.743,0,0,0-.96.656,2.981,2.981,0,0,0-.627,1.036,3.9,3.9,0,0,0-.223,1.369,4.1,4.1,0,0,0,.223,1.392,3.027,3.027,0,0,0,.613,1.036,2.659,2.659,0,0,0,.917.646,2.924,2.924,0,0,0,1.141.223,4.768,4.768,0,0,0,.67-.043,2.752,2.752,0,0,0,.551-.138,2.184,2.184,0,0,0,.47-.238,3.836,3.836,0,0,0,.442-.342A.408.408,0,0,1,556.338,628.685Z" transform="translate(-437.48 -621.96)" fill="#fff"/>
        <path id="Path_32" data-name="Path 32" d="M580.972,630.515H580.1a.361.361,0,0,1-.242-.076.442.442,0,0,1-.138-.195l-.779-2.015h-3.75l-.779,2.015a.475.475,0,0,1-.138.185.361.361,0,0,1-.247.081h-.874l3.341-8.35h1.15Zm-5.475-3.1h3.118l-1.312-3.4a6,6,0,0,1-.252-.789c-.043.157-.086.3-.124.442s-.081.252-.119.352Z" transform="translate(-449.649 -622.065)" fill="#fff"/>
        <path id="Path_33" data-name="Path 33" d="M600.556,627.036v3.484H599.43v-8.35h2.362a5.056,5.056,0,0,1,1.369.162,2.714,2.714,0,0,1,.955.461,1.847,1.847,0,0,1,.556.732,2.6,2.6,0,0,1,.043,1.787,2.229,2.229,0,0,1-.4.689,2.42,2.42,0,0,1-.646.523,3.338,3.338,0,0,1-.865.328,1.207,1.207,0,0,1,.375.356l2.438,3.317h-1a.505.505,0,0,1-.456-.238l-2.167-2.985a.6.6,0,0,0-.214-.2.751.751,0,0,0-.352-.062h-.865Zm0-.822h1.183a2.809,2.809,0,0,0,.87-.119,1.722,1.722,0,0,0,.627-.337,1.427,1.427,0,0,0,.38-.523,1.718,1.718,0,0,0,.128-.67,1.333,1.333,0,0,0-.494-1.126,2.382,2.382,0,0,0-1.464-.38h-1.236v3.156Z" transform="translate(-463.44 -622.07)" fill="#fff"/>
        <path id="Path_34" data-name="Path 34" d="M627.487,622.17v.922h-4.011v2.775h3.246v.884h-3.246V629.6h4.011v.922H622.34v-8.35h5.147Z" transform="translate(-475.462 -622.07)" fill="#fff"/>
      </g>
    </g>
    <g id="Group_5" data-name="Group 5" transform="translate(231.9 338.158)">
      <g id="Group_4" data-name="Group 4">
        <path id="Path_35" data-name="Path 35" d="M250.61,540.92v31.295h-8.136V559.069h-2.433v13.145H231.9V540.92h8.136v11.192h2.433V540.92Z" transform="translate(-231.9 -540.264)" fill="#fff"/>
        <path id="Path_36" data-name="Path 36" d="M279.81,540.92h13.568v6.264h-5.432v5.936h5.085v5.955h-5.085v6.881h5.974v6.264H279.81Z" transform="translate(-257.041 -540.264)" fill="#fff"/>
        <path id="Path_37" data-name="Path 37" d="M328.116,540.92l4.653,31.295h-8.317l-.437-5.627H321.1l-.489,5.627H312.2l4.149-31.295Zm-4.31,20.126q-.62-5.318-1.24-13.145-1.24,8.989-1.564,13.145Z" transform="translate(-274.038 -540.264)" fill="#fff"/>
        <path id="Path_38" data-name="Path 38" d="M368.191,540.92v25.031h4.947v6.264H360.05V540.92Z" transform="translate(-299.148 -540.264)" fill="#fff"/>
        <path id="Path_39" data-name="Path 39" d="M401.546,540.92v31.295H393.41V540.92Z" transform="translate(-316.654 -540.264)" fill="#fff"/>
        <path id="Path_40" data-name="Path 40" d="M437.238,540.92v31.295H430.11l-4.234-14.229v14.229H419.07V540.92h6.805l4.562,14.091V540.92Z" transform="translate(-330.119 -540.264)" fill="#fff"/>
        <path id="Path_41" data-name="Path 41" d="M484.25,551.72h-8.136v-2.842a13.963,13.963,0,0,0-.233-3.365,1.219,1.219,0,0,0-2.129-.1,9.415,9.415,0,0,0-.271,2.975v15.018a8.949,8.949,0,0,0,.271,2.775,1.051,1.051,0,0,0,1.084.665,1.192,1.192,0,0,0,1.207-.756,8.793,8.793,0,0,0,.318-2.937v-3.712h-1.644V554.7h9.529v16.8h-5.114l-.751-2.243a5.723,5.723,0,0,1-2.1,2.177,5.9,5.9,0,0,1-2.989.727,7.8,7.8,0,0,1-3.84-.993,7.322,7.322,0,0,1-2.718-2.467,7.8,7.8,0,0,1-1.16-3.084,37.507,37.507,0,0,1-.233-4.843v-9.3a31.079,31.079,0,0,1,.485-6.516,6.667,6.667,0,0,1,2.775-3.721,9.73,9.73,0,0,1,5.926-1.692,11.047,11.047,0,0,1,5.936,1.469,6.953,6.953,0,0,1,3.075,3.488,18.528,18.528,0,0,1,.713,5.865Z" transform="translate(-354.4 -539.54)" fill="#fff"/>
        <path id="Path_42" data-name="Path 42" d="M529.78,540.92h8.2a19.3,19.3,0,0,1,5.114.523,5.7,5.7,0,0,1,2.685,1.506,5.148,5.148,0,0,1,1.217,2.386,21.309,21.309,0,0,1,.318,4.339V552.4a11.325,11.325,0,0,1-.618,4.367,4.224,4.224,0,0,1-2.272,2.105,10.748,10.748,0,0,1-4.32.737h-2.186v12.6H529.78Zm8.136,5.356v7.965c.233.014.432.019.6.019a1.883,1.883,0,0,0,1.554-.551,4.044,4.044,0,0,0,.437-2.291v-2.571a3,3,0,0,0-.5-2.086A3.148,3.148,0,0,0,537.916,546.276Z" transform="translate(-388.215 -540.264)" fill="#fff"/>
        <path id="Path_43" data-name="Path 43" d="M583.211,540.92l4.653,31.295h-8.317l-.437-5.627H576.2l-.49,5.627H567.3l4.149-31.295h11.762Zm-4.31,20.126q-.62-5.318-1.24-13.145-1.24,8.989-1.564,13.145Z" transform="translate(-407.904 -540.264)" fill="#fff"/>
        <path id="Path_44" data-name="Path 44" d="M642.484,540.92l-3.621,31.295H628.7Q627.3,565,626.24,555.8q-.485,3.942-2.272,16.41h-10.1L610.22,540.92h7.908l.86,10.921.832,10.555q.449-8.191,2.248-21.476h8.45q.171,1.369.889,10.322l.9,11.9q.691-11.363,2.272-22.227Z" transform="translate(-430.427 -540.264)" fill="#fff"/>
        <path id="Path_45" data-name="Path 45" d="M699.641,549.667h-7.556v-2.319a4.514,4.514,0,0,0-.29-2.067,1.069,1.069,0,0,0-.965-.447,1.233,1.233,0,0,0-1.112.6,3.48,3.48,0,0,0-.375,1.82,5.165,5.165,0,0,0,.423,2.357,6.156,6.156,0,0,0,2.3,1.915q5.432,3.222,6.843,5.294t1.411,6.668a11.674,11.674,0,0,1-.784,4.928,6.128,6.128,0,0,1-3.027,2.657,12.01,12.01,0,0,1-5.218,1.074,11.693,11.693,0,0,1-5.575-1.236,6.1,6.1,0,0,1-3.027-3.151,16.065,16.065,0,0,1-.713-5.432V560.28h7.556v3.807a5,5,0,0,0,.318,2.262,1.23,1.23,0,0,0,1.131.5,1.324,1.324,0,0,0,1.207-.637,3.627,3.627,0,0,0,.394-1.9c0-1.844-.252-3.046-.756-3.617a24.057,24.057,0,0,0-3.807-2.842A37.485,37.485,0,0,1,684,554.943a6.848,6.848,0,0,1-1.635-2.514,11.032,11.032,0,0,1-.646-4.1,11.354,11.354,0,0,1,.917-5.256,6.2,6.2,0,0,1,2.965-2.6,11.8,11.8,0,0,1,4.947-.936,12.867,12.867,0,0,1,5.4,1.026,5.654,5.654,0,0,1,2.956,2.581,13.613,13.613,0,0,1,.727,5.285v1.235Z" transform="translate(-467.947 -539.54)" fill="#fff"/>
      </g>
    </g>
  </g>
</svg>
