<svg xmlns="http://www.w3.org/2000/svg" width="40.552" height="37.655" viewBox="0 0 40.552 37.655">
  <path id="Icon_ionic-ios-star" data-name="Icon ionic-ios-star" d="M41.263,16.409H27.948L23.9,4.334a1.466,1.466,0,0,0-2.752,0L17.1,16.409H3.7A1.453,1.453,0,0,0,2.25,17.858a1.064,1.064,0,0,0,.027.244,1.392,1.392,0,0,0,.606,1.023l10.944,7.712-4.2,12.211a1.452,1.452,0,0,0,.5,1.629,1.4,1.4,0,0,0,.815.353,1.775,1.775,0,0,0,.905-.326l10.681-7.612L33.207,40.7a1.7,1.7,0,0,0,.905.326,1.3,1.3,0,0,0,.806-.353,1.435,1.435,0,0,0,.5-1.629l-4.2-12.211,10.853-7.784.262-.226a1.518,1.518,0,0,0,.471-.969A1.533,1.533,0,0,0,41.263,16.409Z" transform="translate(-2.25 -3.375)" fill="#fa0"/>
</svg>
